<mxfile host="app.diagrams.net" agent="Mozilla/5.0 (Windows NT 10.0; Win64; x64) AppleWebKit/537.36 (KHTML, like Gecko) Chrome/128.0.0.0 Safari/537.36" version="24.7.15">
  <diagram name="PÃ¡gina-1" id="tvEsDjgtgoeBXhxRxdzy">
    <mxGraphModel dx="1434" dy="1941" grid="1" gridSize="10" guides="1" tooltips="1" connect="1" arrows="1" fold="1" page="1" pageScale="1" pageWidth="827" pageHeight="1169" math="0" shadow="0">
      <root>
        <mxCell id="0" />
        <mxCell id="1" parent="0" />
        <mxCell id="VXJaswxmb35011jDeImY-1" value="" style="rounded=1;whiteSpace=wrap;html=1;fillColor=#dae8fc;strokeColor=#6c8ebf;" parent="1" vertex="1">
          <mxGeometry x="290" y="-20" width="290" height="450" as="geometry" />
        </mxCell>
        <mxCell id="VXJaswxmb35011jDeImY-2" value="" style="rounded=0;whiteSpace=wrap;html=1;fillColor=#fff2cc;strokeColor=#d6b656;" parent="1" vertex="1">
          <mxGeometry x="318.12" y="60" width="223.75" height="80" as="geometry" />
        </mxCell>
        <mxCell id="VXJaswxmb35011jDeImY-3" value="" style="rounded=0;whiteSpace=wrap;html=1;fillColor=#e1d5e7;strokeColor=#9673a6;" parent="1" vertex="1">
          <mxGeometry x="330" y="160" width="200" height="30" as="geometry" />
        </mxCell>
        <mxCell id="VXJaswxmb35011jDeImY-4" value="" style="rounded=0;whiteSpace=wrap;html=1;align=left;fillColor=#e1d5e7;strokeColor=#9673a6;" parent="1" vertex="1">
          <mxGeometry x="330" y="200" width="200" height="30" as="geometry" />
        </mxCell>
        <mxCell id="VXJaswxmb35011jDeImY-5" value="" style="rounded=0;whiteSpace=wrap;html=1;fillColor=#e1d5e7;strokeColor=#9673a6;" parent="1" vertex="1">
          <mxGeometry x="330" y="280" width="200" height="30" as="geometry" />
        </mxCell>
        <mxCell id="VXJaswxmb35011jDeImY-6" value="" style="rounded=0;whiteSpace=wrap;html=1;fillColor=#e1d5e7;strokeColor=#9673a6;" parent="1" vertex="1">
          <mxGeometry x="330" y="240" width="200" height="30" as="geometry" />
        </mxCell>
        <mxCell id="VXJaswxmb35011jDeImY-7" value="" style="rounded=0;whiteSpace=wrap;html=1;fillColor=#e1d5e7;strokeColor=#9673a6;" parent="1" vertex="1">
          <mxGeometry x="330" y="320" width="200" height="30" as="geometry" />
        </mxCell>
        <mxCell id="VXJaswxmb35011jDeImY-8" value="" style="rounded=1;whiteSpace=wrap;html=1;fillColor=#fff2cc;strokeColor=#d6b656;" parent="1" vertex="1">
          <mxGeometry x="290" y="370" width="95" height="60" as="geometry" />
        </mxCell>
        <mxCell id="VXJaswxmb35011jDeImY-9" value="" style="rounded=1;whiteSpace=wrap;html=1;fillColor=#fff2cc;strokeColor=#d6b656;" parent="1" vertex="1">
          <mxGeometry x="385" y="370" width="95" height="60" as="geometry" />
        </mxCell>
        <mxCell id="VXJaswxmb35011jDeImY-10" value="" style="rounded=1;whiteSpace=wrap;html=1;fillColor=#fff2cc;strokeColor=#d6b656;" parent="1" vertex="1">
          <mxGeometry x="480" y="370" width="100" height="60" as="geometry" />
        </mxCell>
        <mxCell id="VXJaswxmb35011jDeImY-12" value="" style="ellipse;whiteSpace=wrap;html=1;aspect=fixed;fillColor=#fff2cc;strokeColor=#d6b656;" parent="1" vertex="1">
          <mxGeometry x="320" y="197.5" width="35" height="35" as="geometry" />
        </mxCell>
        <mxCell id="VXJaswxmb35011jDeImY-13" value="" style="ellipse;whiteSpace=wrap;html=1;aspect=fixed;fillColor=#fff2cc;strokeColor=#d6b656;" parent="1" vertex="1">
          <mxGeometry x="320" y="157.5" width="35" height="35" as="geometry" />
        </mxCell>
        <mxCell id="VXJaswxmb35011jDeImY-14" value="" style="ellipse;whiteSpace=wrap;html=1;aspect=fixed;fillColor=#fff2cc;strokeColor=#d6b656;" parent="1" vertex="1">
          <mxGeometry x="320" y="237.5" width="35" height="35" as="geometry" />
        </mxCell>
        <mxCell id="VXJaswxmb35011jDeImY-15" value="" style="ellipse;whiteSpace=wrap;html=1;aspect=fixed;fillColor=#fff2cc;strokeColor=#d6b656;" parent="1" vertex="1">
          <mxGeometry x="320" y="277.5" width="35" height="35" as="geometry" />
        </mxCell>
        <mxCell id="VXJaswxmb35011jDeImY-16" value="" style="ellipse;whiteSpace=wrap;html=1;aspect=fixed;fillColor=#fff2cc;strokeColor=#d6b656;" parent="1" vertex="1">
          <mxGeometry x="320" y="317.5" width="35" height="35" as="geometry" />
        </mxCell>
        <mxCell id="VXJaswxmb35011jDeImY-17" value="1" style="text;html=1;align=center;verticalAlign=middle;whiteSpace=wrap;rounded=0;" parent="1" vertex="1">
          <mxGeometry x="308" y="160" width="60" height="30" as="geometry" />
        </mxCell>
        <mxCell id="VXJaswxmb35011jDeImY-18" value="2" style="text;html=1;align=center;verticalAlign=middle;whiteSpace=wrap;rounded=0;" parent="1" vertex="1">
          <mxGeometry x="308" y="200" width="60" height="30" as="geometry" />
        </mxCell>
        <mxCell id="VXJaswxmb35011jDeImY-19" value="3" style="text;html=1;align=center;verticalAlign=middle;whiteSpace=wrap;rounded=0;" parent="1" vertex="1">
          <mxGeometry x="308" y="240" width="60" height="30" as="geometry" />
        </mxCell>
        <mxCell id="VXJaswxmb35011jDeImY-20" value="4" style="text;html=1;align=center;verticalAlign=middle;whiteSpace=wrap;rounded=0;" parent="1" vertex="1">
          <mxGeometry x="308" y="280" width="60" height="30" as="geometry" />
        </mxCell>
        <mxCell id="VXJaswxmb35011jDeImY-21" value="5" style="text;html=1;align=center;verticalAlign=middle;whiteSpace=wrap;rounded=0;" parent="1" vertex="1">
          <mxGeometry x="308" y="320" width="60" height="30" as="geometry" />
        </mxCell>
        <mxCell id="VXJaswxmb35011jDeImY-23" value="" style="shape=image;verticalLabelPosition=bottom;labelBackgroundColor=default;verticalAlign=top;aspect=fixed;imageAspect=0;image=data:image/webp,UklGRo4hAQBXRUJQVlA4WAoAAAA0AAAArgMAuAEASUNDUDACAAAAAAIwQURCRQIQAABtbnRyUkdCIFhZWiAHzwAGAAMAAAAAAABhY3NwQVBQTAAAAABub25lAAAAAAAAAAAAAAAAAAAAAAAA9tYAAQAAAADTLUFEQkUAAAAAAAAAAAAAAAAAAAAAAAAAAAAAAAAAAAAAAAAAAAAAAAAAAAAAAAAAAAAAAApjcHJ0AAAA/AAAADJkZXNjAAABMAAAAGt3dHB0AAABnAAAABRia3B0AAABsAAAABRyVFJDAAABxAAAAA5nVFJDAAAB1AAAAA5iVFJDAAAB5AAAAA5yWFlaAAAB9AAAABRnWFlaAAACCAAAABRiWFlaAAACHAAAABR0ZXh0AAAAAENvcHlyaWdodCAxOTk5IEFkb2JlIFN5c3RlbXMgSW5jb3Jwb3JhdGVkAAAAZGVzYwAAAAAAAAARQWRvYmUgUkdCICgxOTk4KQAAAAAAAAAAAAAAAAAAAAAAAAAAAAAAAAAAAAAAAAAAAAAAAAAAAAAAAAAAAAAAAAAAAAAAAAAAAAAAAAAAAAAAAAAAAAAAAAAAAAAAAAAAWFlaIAAAAAAAAPNRAAEAAAABFsxYWVogAAAAAAAAAAAAAAAAAAAAAGN1cnYAAAAAAAAAAQIzAABjdXJ2AAAAAAAAAAECMwAAY3VydgAAAAAAAAABAjMAAFhZWiAAAAAAAACcGAAAT6UAAAT8WFlaIAAAAAAAADSNAACgLAAAD5VYWVogAAAAAAAAJjEAABAvAAC+nEFMUEiCGAAAAf8nJEjw/3hrRKTuI5DcRnIkReTE2NX+/8FV7bLWXCP6PwH45G8Aj7qwtmoX7HEa2NhOsG/MZ04ajDE+Melx9lLOIcB9ahdTVxdvYLZdVY3AeG+pi78AvL/Rmf8BbqsAqlY1Y95LAzuV6mSzW0qn48lCShbSI9n17iV5J6ibNGGUpGZnLjUdapXRK422oThuG8mRVFX5Rz1me7vPfCNiAkC1YNCaF7WCBL7gVqJ+swUkYsRDOdU3e+xH0KaYSYWA+nBte4gvozQ9+Dqo6eE+6VL659HL+0PnBO05plPYXWYykxI1LWJSAt5LwtVliQ3o3Kxy1LphH030nrG2ZY3//8OtrO9MnFEm6ZantlIjOrbV3XL33mXb47Xth9e2bdvmsY3aTvKgSDKZ/P/TV55ExAR42rZPcRv//17hYWbavRl28wDe/Ahm+WZeMzMzM3OSYR6j7Fgei9niVlW3uCW1GFrqrkWSGYNU1XrVJiImgJYAgEkrKViNChSoAS0UT4AWCdA3s3YK3zvtYd0l4wMhu/MTERNAt7YmRcLTS1XdXdXzM1tokRQCM3nMzAyeMlBOCkspTJXom6+diAgsuzIswzIswxqt+klmbgqvmgEwBowBs20bZGAzJwqCIIgGP1gwLNgVTgAwYMy2LWs2m5jmcDJsNzryDivaBFm0iZIsWliWYVnMN0FnxMEysz8etOo1Y1Sjan601NJzPMfzPMfx3PDJk33a3yFJFO2iLDBgwSAqDS2r6kUlW18+pZSUpPKciec4XuA4A4DrJ0+eOBHvOXc7CKEKVJLmCnojk8otj7YUFgsBhPViMhmPx0znbYtSqP0JeraTyVd76dD+UuhlCZFMpVKxaNxB26QZMn4HfT1LZPTa7tZ0ybN1ApE20+lUJJJ1wspwcfgV9H7FV0yvpJY36T+AMnuZbDIcVp0sS31DVfBPMJThuLa9NVrKHD0KBbdyuUQoWHOkVrjq80cQY2sRxb+pLF0OZ0PpVSUfDQbbzlKFu04cRkyeRtPRHfdyZSeiUiP5UDAwcobYtR7njB+xvLCfdG+3lidZ0QEAjJB8IOBzfFzNhbdAgI10ancnsyRJjprLJyrN+n0xB2f9QQ+IcZjLev7WWIJwiPqBqqU8vqwjs/NoFciSef/1m+VHSvRd3i5qcY9XO6B3v+9agKFWUkua7iy0Hi0GeU5c/9o8d86HyxslLezx6CHVH1iXhvmTIyMjI4M3r2maVrQcAPbBo5kg07bnf/9YbjTnx+XVivqPv/x1dAl5R7fkIMTZXq/X7VbUoqapfXGzdh1OBLl2dv785DKjPl8AwH/79uW//uUvswBML+0uRrhZv9fr93RN1bRCQ7jshztlkG390u/WlxddNm/mT/fcOf/LT9zfWYfIj/r9Xq+rqWohrYtS+tH38CDf0tbP/MsKuzOP5o+cLJagXHPQ6w6GFUoiOdrJP9BkBhmT1R/mlhNQnlfRaffbvb+20UzlgVQQdPaZH9aWEjmeuLz+fa9Qi7ubA1mz1PkfD5YQId6A/enddFL/zAzI20z/9RfLD0nugLGJRuyvpoLMB6n7lx0K/IGNLH10tftB7Hn3Ny0zVDgkoYE2fK+OguSl4kc2LCu0OASb6SL5dRmkL1ccrF9GGFocspMm2MP3+EGBCa7DxcsGrMEhzjR6WP3mBCjRsf7gimUCIBzCblKKGCP0ptfY3V6n2+na/aZ+spM2uEJ8LR30yDp2dycsDwQ5BDsUwGnffv19MJtIZ08AgG3bjDHLBnuqp7OpXKoBjAfWvTwLqtQntD5gXA6I8UjnLvNwGLb6fs8UeISXzaazWTOTzmTTNcYYW1y2VzJAnxP3J/8DyPEIvGevewg66657dX5Emlkza2ZkU9lMusJsm7GFo1/z4hyotJQLzK/IJb7vP35gxoz2vdNQrmVZViebyqUzRdu2rMXB2J/LAa1qz2XWp3MJ+9/HpzPrAHRmb1vZHJRvW7bdzaXS29nhODYYV7/gB71Kjc2zvS6XgE3cl3ZKpmkvySTffX9JENFrM8t68hc8GwMSn8wH1Qp+PmF65oRLABizM+5Lu33TM4EFzKlH2mQW0c6stzcJepUzr3o+CNpVn8ksD0qcckVmHf/9H/42NDXFpD56RAdV1K96sdluVLPUY8WgYLE9CwwvwjNX9P/jD7+1ftAB1WSczz+UalUrruopUHJczdldiHvUeMWTh3L0qiRuywU1L59tmF1awADxiDuoQtYaUHXjiIyOCBnATvtVh7eBsr1cZnNVQUNgRG0EEdQ9fdoyuZaoITCuLhIPGm8uiA+FDTNTShBtJqNZ4vSB8aHxscGx8LGyFXTuLoDbbWHD5HSkNvtkqzs5AQvPHv/j/68ag5YxOgCDzILWdwe8ISlumJmMKEf0VIMwWpe8yXKvo7enr8TgAMXvD3j7BQ4mW86EST2hpwK8zdZ2MGe02zVjnuPlgzRX9ge4EyIH/919OQxbM+1u4J0srb94/HZAfLMZlH9AWxE6/L75ZgianTY5eIf7fzeTVwPqP4CtiR1+2t63BEdmhiFgsXusG4KHr3X3L5CQVbplE2C1B6i7oodn3gak4qJtmwRouCekTSZ6P3q2TufdzUPj3QMNA9G7EsyCFnwAuiV6mvER5xISKQpzEosURTmORoqAnMQjpe0na9EjwkVMUuoeYMvGJEWO+EIblcCk175KuAQmvea1j0xgMmhdEWwCo17jCqATmE3aVhqfwGDUtEo2PoHJoGXNqggFuqsaFigYBacGNSyKUvA7DUvFKRN/0K4oTsG5E5oVQSr46wyqFKvg16iqaKX3JqjDBlbBn6ACQSuw61BRvGJuSlZQCUlWEGk6UQSzgMuJUlFLf9uBKqAWICnnRP+Wt7z1LfX/vHh4nQ5qgc2B08FaxmEqL3eWp1x//Q2nQaeP/0c9JFBxi/k3R6PKu7Z4JgDDreE5LD7S//61QyK4BXZDTkXB5nVFt8cACAh5sv4J7VAocmF/cCKce9zZt8cRwfynnsI7QJ91GGxen29iCpFuf/wC3oF/9Z0DS8NKX9rwDJTYfkdwPUEv/X85Aoy+yucrHZ6GYtNvW0/RC7yUFTyGYQt9noaRqSAUvdpW6yP0Yv1Z4BhWl+LzeMamAlC6kft9NVPRC+y7BE2vl1wetzTtRzSyh/9YDQX8Av8Yi5ckWWtcrtwZP6L2e3+tVxGM8T+xEidT9OjK5wKI6tJpPUUw8ERFmITZ9PLo6j//AtH/HPWsPzEa4mezXYcbAfTkR+sJhgFPgHrmi02N6wPo0Rcur6YoBv5CNbPF8lZXIehZeXd1eYpiSnZakZbLAFc56OP3+1pbQzHwLI0Iq5XZFAXo6weX1gLFMYeLaWO9Nur7nQd9vnDP8A5NyIpa3HId9L1yDztyKGGmqnGZemAIO/nwGAWI261TIQSGsrGvXSA8TT/VSQKGtK4mWEbsIDgpz1NHEQcGdqwu2kgGBxgy43JcD3/6TBAMsK42q1imxEdek8MhyL0TGOi+GgpYBk+TFXc8OoXrggEPqGhmSzo5GaZdOmcw8HU9RTM4SkaKaeeeBSjQCfgeC/EsrHMcmXNAh0pAexPRCOdzgE5bQI9tPcEzeIxcTOd63+8AXY71FNE4a4nEcN3bSQP0eVo/NPAMniWO9fWKLltAp74eFESzM5EkJr4X+6oAqLUGKKLRdRODF4RwvQRU2yiITlMM8jlHBgYHBgdnFksrKHCuZUC9zsGkVTFn9a40iPxsT29P7x+/BTgKC8sqKxygYeEgmmLM+l2JAGBMBIDgp/6b4nSmg5SNhFtjyyuFIPgeKKCa1JJYUtwEkm+B9gDTYG8s+Q5Q/em4Hgiq2RVDPpPortQARTVVcoyY5lUBKN9IqNukQo7BQChllTf3F0D9LMRetZHXrUnSD9y5eePm2YF5OVVVxfkFYAwKCzeqCrt+Xf4wICQAQ303Tp6dSizJzZdAiR5QcY1Upx6N6xv7EGKABUXWgIJrsFcljF0rJ0G3PVA3GfvFIGjXAnaRawXpqvAx0O8pAIRr2KIGb4GCR4SSbacKvAwabhFCttW66GIaG1cFqahGKNk4ZxQ5Xa78K9OgY4uoZMOqKMl1uct7xkDPGiH8THJ7asYHQdceMdjIZsChLM7jadT3gr57BBVkg+LTimHcHnfSrVlQuYYItun8qDIqvN7i65OgdgtRbPMlRD7P662+PgqqryGCbW5EKNnnbRwZAvX3kIptkH0pbKLH5zEM+KEFWoigG+/nw6J3+3zJfTPQCiVE0c0qhF7r9ZX2TkJLHFRcGUKR19fQMw6tUUOjOrbJTb25SLrP60m2BqBB9hBQbMN6vg7A7vP6si0WPbRJoyKe9b9burLMbDJAuzztQwTdVDCf1huhcXqIohsGVmielYqa6HQdMSYhaajTlpAsBKqEVGNUtiIS0hKjEpLM1j5bbbZKTB/KRyMGVD7S2dpnqweJfCRBVT6yIJGP2mytwcpUOhpBpklHEgQqHdls7VEiHdUolY70EFSlo1KDRD7qwaItHVnQrEtHGoSCdORRKh3VKJGOWlSVjixKpSOJEunIo1Q6atGBIVkBkY0sTGUjma0+W/ts1dnqYUU20rAxkIwsDKpk1ONEMpI4lYxGnEhGNa5KRi1OJCOLU8lI49WJXFQ8bBcloxYGIhlpnEpGPlt1tnqcSEYtrkpGGi/O5KIRn1bkIo0DkYt6ApWLbLbqbPXZWhOIbKUxqWgkjOpSkSQAkYp8ttYMVbaiUtEyWyWDSEU9QxUyNrKRkmV0O+I1voYZE6SkGVAQLKOkeN77xvsAKbd9BhGpkhaPZAEefATQcs1QRWmsUl8mD5dvvB0v9QwqRC2S85EOXNX3MF4yCNRCPJGMpV8NoiXJIGIzVvJ+UoRXvW4KLXlGQWAa2XSwMoED/TRaqhmtkaAUMrG0DgdehJZaBlABmaRSgUoDDjWAlUYKEQ09mYgYcOi/xUqSQoUin4jme3AUn5ghpZ6iCoMZSwSaAziixibiomJQj0VjIzjKv0VKNYUIQDYSVidwxF/o4SRPKXCeGQ4HezM4+pMXcZKkVGccVwuFEjYc06dwkqXYJV5LBQOVk3B8V/EWFHjM9PvD41NwrOt7KElzKHdVff79c3D8+yjJclS+2vf64vEWzMP7UFLNofxk7nlC7DTMy2+gpJ5DOKmyu5e+BebphV9hJPvfiO56OrfCvP18BCFJjso7k53dwLWnYQ4PP4iQPGda45mi+1L+bpjXod/io5YDBW4Jb+8Nb4V5/gULaREuGW9v+28+A3O++wQ66kmUP9StbeV+WIS/QUc1SeUM/9bO7BZYkDs6Ntr1HMoRw02X7+6zsDhnT2CjkkR4gWxs0ntgwf4VHel/58uu7RM3w+L1qdjIcwbG0PU21n0PnYOFbF/ERpIDZNBya5vaXbC4/4GN/L9uZ9117kZY6PEUMmpJdJhaa2ue+87BomfnkZEmHVtAJ3758x47iPDGb1xckvYsGNu18muZBzF+3agoSdWLpL6y5rnzLEjyzPtU7En2hRFeW2nefAJ48/XrTLQkRl8EY9fKxl3XAY/Kl0yUJATnXnFlLXjLGeDVxx4l4pLln2tWcGW1e/1J4Nj9d0Ss/3a751p13XwOePfeM+jKN5dsS11dj15/Gnj4SzxkWeXKvGGzaWhto3vuBHDyNQMNaRbzzxVr2t1ybV17Gnj6B2jIs2COmKa2uRE7exI4+1c5LNT+XfZkHNpytU8Bhw+/ypCQpgXY8ZuO2u7tnZMngNPPu5HQSKsVj9lwqLl24sDz9udnOEjTwHeMrEE/7HZ3gffdF3BQz3vmzSiZ9Jp77j0QwpuvUtDy1v88GvpddduTAGH8xBioefZbRoVZnXZkzzMBkVw+ZKDt0vD+g0oaG/qe1w/C+cY1AhbN449nKqXbpLv+PIjo7lsG9jzs+jajALvRiPpCDET12fsE9ER8fX+kRnrt5XAEhPZHAkpm8nFHJIx6wRMpgug+fJx/nomHPxoeZrSMMQkkQIi/O9FPU/GbVSH1mq1qLBreB2G++hr9Wm7Rhy0Wi9lqtp4AmDSaeioaiY5ArD8a7FtyATYhyZHsSL797l4sGq2BgOub7Dtla4B3B/kMrnJOuNfxKsOop4CVK515AzHcpSeeQAaJeIYZxmwtF2gnqMl51jlqZVTSKWylnudcx62cO0c5B65cXBgnyJVzSjiDrljlW8OunJ+t5QLdHL1ibKvwlfNk2yl8dolrxeArfplril8ZjWoOYKnnMY0iWM7ejGgMwnLrDXimYwjX4xkBEW5CMwNFsBmSqTBCSccxDUeoayjGgIRmDsMIktDLI5gFShgoNnqpWMJYbcpVAPWzyMXhhOE6bhE8gSIvZnFEsWKKWBqkQdLEKwoprGoVrSyYAjQpVhFUoZ+1cUqHFczsSK6CmWJgFAUWLK3K8MlAFqBZtNDJTqGFrjLFJqVhC2amP0MmBi7A+sXmFJUovJD78Xl9ikgcX4DCj8/XTP5jvdZwKdAQBtB+/P+KyXn9tU898vmLmWqfOX2KMYCkI/ekmYgtOPaHzlTMr+767P+uD614hjdgBhION6ebyWz472N5WGrRe7tKX69ERqdAA/Lh5iwzeY0KF0sRuts2zWGzkRhchxoQDzfnWMhqSC7uQ7iPTYctRZn+rw3gD7bkW8ipn38sCYertrh1VHXO0CrcgPVAS6GVjIzkMzk4ivOmab2tJjMyBxwwdbcWc+RT96yX4ehyTYsjTV8zMIUc0He1ODmiMcsr3hEc+RxjZBhbxtVBB9jOlkqeWNqlCxk4rlFd5/udwbAMdgAPP5NFJHbRv5WH4+1U1f20PzAqRR6fa/pHhUAazeKT+RnMw2NZ383TQWBPDv0PfvKRjuYGiSAGRbe/CHNUrcv7+XSasCWFftNPAXS0uBQ6MLXEZgnmr1wWpWNaM3bUoF+09XPf3AzdjGZXaibMa7Eo755tLdnQ2AIAWZ6FtnkcrH4xu6H3Yd7fbkVo2wr7kW1AWlma2vZ5MjiT2P6aMYYFGd/u0eWisR3bDqScZqnr2OqApDdjNViw1/wWu86e3bRt8cIYoehysQZgnFGiaVjMVpZD17XYTN0g5AGixHHdaX+pCUUvdyewyI08hZ7nsBffKOQMwsTzXK13qqm4URoMgAuVFCHf83mmUjfMC/04jq45WWpRTCdb1f4Y+FKGCAWBP2EmB9k4pF5YVJCXn2eJKjOXofXqZAqcKsEYRmEoM5FiG4g0FBVsviVJsiiLssgqq19QCqWqbQPvclGSRFG8YR+6kQCkXwP4BSRZkkW7KEs2S4RGiqIo+gngaC+O4iTW2YZvp7t6sWSdLEqSZBPsol2SbTZZYkKYKEpOqZ88ARx+CcIYwiO70O3EBpa2ZE6SRJsgCzZZliWHJNzI55TK6ZPA88cgiCG6sIm+nRRpEEVJ4HrOgBDqfhCmMGQPvinpU7n6IcoQWxBqkvL16udZJjIDoyc5cx0vy29zJlApSooXx83uuTL6Ok1f6NhOdiuMUWdcJU37jIrCGm3CV3Jv2rAsvFHmnCU185SUJRxdjbekcjwFdXUfVZW75PKw93BVS2PJ+UsudvtLhfFyDCmHyamxs+oa62PHeExKmnEqcWOOmcZlkte0fdFib6won0luq+r3pkFjZHD6hYqyzdq2HBuV2ORK2cC2a8QR0clNyut12Had/MEUOV+t3K5tjREgJCeny6Xdtp1NeQvRSUmWj03XhhS3P3GdFBdzvW27nNJK4zspzOZq9egKicKc8yQ/na6K9oFljq6E9yQ3mSzyrmsVjqcm5/4LpckUdl274wWOhtoEIEVRirr2cRJEnnZ0EpCCILjdo3NESaCZZSKQPM+bj0cbSpJEKzIZSI7jjfbxSGaTCY3YhHgxpzaPLltMpxxltGnxwkXTdsVqNuMpQucGKZVdVynzuUAJy/x4Yd51WF8sRAqQSUIGj7Y5LGUpxvWJQlqPrrncPx3LbLKQ9e959xfneyZjlU4YctV0bbBZywPEx2mQQtu0UFHWA2OO43hh2bRI2yofTpFJh3ND0wZCiAchrw0u9rrO958xXoQ84aY87gyx3/h4ElLDdWXvdtP+MsebkMsKV5fDYf7BFCnVVekdj8v+EeJVXlgWtW+eNv1ijWshYVVElqn1Bxv3QvpFAS1r3w9/YWQY0ioKdLbN9+/doCxD7u63zDlf3qv+70O2VW55dnUc4X355FzcDSlneeq77vR9+DDidsUsTYOrL79jLpB8YYaCwN+8Q9+XfcgAwjgI9HdjaywDkZcERWF0eGv1z4FMfEziOI7Ob+VjIB0bURQnsfemvg1yshKGUQKTN/CiW1Ii5TAIITy9WunXIDFzorjG3fXVxqeuAlZQOCC0zAAA0DgDnQEqrwO5AT4ZCoRBIQWet2UEAGEpu4XJ+AMt7gPSdYD+5fhmmlCd/t/4TdeTGvlX9Z/mf2Z/xf/S/6Hys8Y9ZvoL7p/mP85/f//h/qfmZ139nf+T7pPfq89/dv9r/kP9b/4f8V////v9wf91/4f9l72/6H/o/+1/mf3r+hn9X/9X/hf9H/3f8d////b9b/7qe/L92/y3+En9t/0//m/0P/K///yt/979wve9/X/9x+33/L+RX+h/3P/vfuX///my9Y3+9+px+9P//9oD/v/uh/0/mU/rP/F/bv3Rf9F/5dW27Ifjl+vnzV84v1/5feeP479K/jf7x/m/+L/fvjs/MM9frP9h/7/9d6m/yb78ftv77/mv2h99v/B/lfLf87/k/+36jX5L/Tf9N/e/3h/z3KEgK7OX830J/Qf9r6QPMT/2+aP9v/9HsM/170Vf9P/8f7r1z/oH/A/+X+1+Bf+bf3X/rf4z2wvY/6Ev6qkJHpby9e/Sv1/o5BJHSKSZUJYuFR4eHh4eHh4eHh4eHh4eHh3/xmjgZjRh/0wiU0qwrEEB+ZYv/+Ns27k1V+l47PyemabBIxZ2bZinFQWeWfCtoGbv54mAN+cvOj6+6RF9xjZK8qYDnO2Z5UwHOdspAWaLSOelbgZM4Z6KCS8SYsPNx0ps2Hr3Cz5SzgYTWpyjQp8pFVq950+HpBFUSC73oP4HTgorWoBxDiUB8ySVloeEMQAZ4rFdSHaUYiJGtwQ0isNr3flegOCQ7mYW0iAwAvJX89+jhpE6EiEvuD7SMfU2l39W12yNcm3tjfJOrYYn1t33SfziQ3Fp1qk0Nd6MVXfF1X/xJXq7bUFvDcY2SvKmA5ztmeVMBznbM5nIN7rkKvsDkd24lC2orWwJrBPrmRc+1yf0TFAMEfqObzHq2kze4+mjJ27VGrnWMV6OaGr9nEUY03b0Y76DLDyGS2gz902MnIUPzpYTc63ZpzXL074TtYHN5mZ6n3A1IEFOStXQtF1fkp0tODVASYcFWaSPgwsjtoblBGyr9Qd/et1nTGOx8flU2uwjkitPgkPecyA8Z89eMN8pxHq9eXX998KETPBcs87Em8FkRlwknV4y+ZA3yELE7w8Twy/YYL3Tax9eDukCS9HT/RpoZSwoh82wogXOBznbM8qYDnOxReGKaGj8RI6pm8ziucU68p8xmyymusS4ZuznoKCP2XV6rMTiAi71wJxWHaaD695WX5ZYAzaQuiXALHMehnRmK7qsNrsTI29q8WAAy7ZkMC0kGJHqePrHsAwWFr3RXvMXf0Acj1/96ie86IS6Uo+CHhgIU99aABETMqdm0ibObogRkwaVGaCNPiPL1z2zqH2GKxaptxtfIO7Utye9Q5SCE359+mXzP2Pbvdrlzq3O+lsKIZ/2aoyiCSrdaOxiRwbv0GYmdbfkEsK7nwzHZPeTIiHzbCiBc4HOdszypgOcohs8bidd9B8vg63bd6oEGWvIGtMvoqbprSVcFKnPgRLlzDPorwNpiJQEazAWwinp9MZ1oovDMh32jRl3ofKOF0YO7tdrCctQMla/BYOqa1PWX9MPDvhpbOTgBVvNeXUENdrw/1eQ3e7YhRf/FnJz+qg6Ko6LRCvCBXGG72FSrsM2JtlBW/9e8LxgWWahZFbKifoO0cU+TmiuAm3aK7/d45CqOord70R8PdHU2AZ+GTbj2Wr5EmA8EAA7MX9AFEiYayzqkpz27wnFA2XCmDGY6YVFzZMYZykQ+IfEPiHxD4h8Q+IbeeH3UeuIdopQ/EHNoPkQGVYutaVD4FsKPiwiZFpCalQRuf1wc8ovsiyM3rMHp7aemNjZSobBYiijHaCNP1xaB0P6M/V4QW9NzSw5sU+favtnckCiRiAfoyLXaYKtnrFjUryJQbI9bj/AFa6L4x6Eh+QyofB/vJS+77+/4g4nTQO/eLijsTUhkfBEaYGsIT/Nw+XZFS/w9gXSccDYlBukD23GMf6zft38s95sIiARar0oq5XuGLp5Oaw/wZk3jE0kF+poHmNJ2lvIF1HUxULlImJQZWV/+c7ZnlTAc52yh4RZRHVmch/gXmwOUgss/bDhAoolznMrB62BezxJyHM8YBPGJg29Bv8SOMGAOCILtegnHl8glTOjjQJ9E7aPeYhd+i5Fq/LsxWNjdjz7LcHwmO6BWZ/nZ2QB3diTrsG26t7mFrj4FXmq5gqGTxBoAAciJPMFOy2XPpePna0w5/ar/rRxfk+/QMHgAalYGRYxXoX96VGb3mx6/uu4whcCpU+uE6VbmQl5vc4NZqdmeW8YiARSx0i8JwgQMs3BG/IhJk4F123qaJn4AzbAV3VEAFsml0kW14fZSgMWoB58WV/8ZwTAc52zPKlGD6YeThsscUyiTNDWX/SxiV+OKkNR4XJTUmUMd31x9ykKOVMfHYrCll9Hc6fymvawpX7rZ3DukUmgFEeI+MFaEh7W5Jh+mAISku6IfVdNjaqiVJlChWlpV8QSWoBOE8zkK7FYpN15CwTBJcYHOOpflOpldEvpOxEevwg5SyWCFpi/VzDlmAs5jG5vF70zTOcUu/0KngNSfe/XASdxIBFRjkKob8wdHPPWTPaDg8bSbpNUXNEehvTx7R1f2x28kPR+qHItTz/WEATme/3e/Jgq+d/60y6GC+F3OjznlOe+TXwgD8ke2QBTKQl/onOQID2HBib4mfKGLQAN6K3jJXlSjCdKDBLcibmuA6FA779GRmLTYvh9WocP9J0jqIrVxEIRf3BQ4hCj2BHX95758WF6/pJikmcc+J26uziDt338cGOWasOVlKMCOJ4sAslhn2cl6JRSMNVMKg5fF4aACW2I+x5s+qpbM7ttfZoQWmxY6mAR2WS/wwuoVGzaQyTte+Vm0N8eLFWweKYn4fEGbQBC/y1FMTvtUgKgyP5fcvjYmKNARXHLTqHQCsUEcsymrrJ8h0obUnjm4ecH493cn33RRUVkMwF3g8zSudDquX7va08hlR5keITDpEl2zUlj18FyXqnEi11GmgLf0TOqO3e5c5k/UKNn843gpyQb56A+TY5jcCMpQ8AJHHDPnwremjovRe0nM8P2tqiYc5xoEcQBzidfQx71APFOXtRFPHW5tCZtR6Fb27v8K2N+Pl9nvIlrtgD5V3GjTxKi6zCtWmsD5FbGGguw+f+O5vukXQ1dhrqYPlyc6pnjT9QtFOSv4RKrr4wwMItoH8w5mpupU4grO/XwDu32klLczPXEgxJUk4xWFmL+A4em13eb39rGDCOr5We1o2yWOskMDxPWcxGJRT+zo+V0vtPoyga+HFB72n8/Fz4bQvxyPnkrfCJ3bn8idsTnkF/w89Nnkv7WszarOyHIlhalJ1JbUTWJWOaRWfkE+H87cT1HgMEzVF5T8RJqOkQYuecxk/BvvuIKaYMTzCxsC/179/4BVJp/qTWW+k86i7ewB///ouOP8GG4ofMEDb/B26K5bBn0DgaRrfamZeY01rA9LSwJB/hG5MM4yWMbYm+AhdYtksLW3Temba8iS+AH3hOUxCozG+eZnrWMl6dQMmdN1QjCcX8Qo19Z5lNckuJeTpbi2umi4jZPq7luH7SejpdRYO7oxLOlR1DdlZJ+TfRicc8Hye9Fzed6I3nqHAixIjd9jo93AoWFTkYnxaYOUWCtK5EvgNXrWV+GRj6m3biwivX3w16rO75uQERVriyybONZ63bpXq47lSkQRZKk98s7+djMIHWQQm7GSApBkOoCCblrIYZZM9yetPbnLIloV0A2TBVSFmtEv5LxNItPn49rJmPf2Qdc65eO0i/3N9out9ZRpgo20vA1RY9Zh9kDkveolv5+IBbIHR5Z3THEqn+p1RsOaptD0Qm2YlwCcwxPx8LAA/yFjRKnwFSzhufXMb7jWt0K/rg2rSDHns79knetS4HiPfMDEkJzqAxWhEZAQnH0yeV5jVXgF0ygxQ2nrXz0/NW2+zfzPvotcwOrDms3UETv9DRlxqqhd+aTTYbhlX2MA8xlGF1PoknA5bFzkUc8bW7A/SQO/3FptfPC5lFj9gjANxuJ8VarYgOMU3ebNg/YdhNiFSFP80B1aIU2OcYlv4bGCbEu9/+kX01nG+jAtjgW4KQIlkFDg+jxr74yrmP57eIfQGIvg03ev6dKi6vJhFIUYy2hS2h+oV62QfJipRWfhipEVd/jWFiBw6qt96jTdRbcCWpcsQr9uUASrII1BXU9pZMQys/v1a/NO6ynI1OU+4EKyQxXCmrc1787j0rcpAzKDR9Aa5H7ZJV1wOslt9k2gpszg3z/XKM1ynlkIs7uAZlEIg59v6aoS2xT3jYJnzs2B9Bnvo4HVejrNKQyoyXT509T33LNUrve+OrjhHez7xsruRJklefqET9QceqV7oTWEGqyzpdwhPOUqu2Me+wiim9cb/bmaKGx3UFgvdy7iFrF1KiJvXlgZTdfGEDOG+a/51PKmx7LLjMMos3N5/g+vVeYjv3y8/ywrdjIO3f8dX/bE3UHCdCpU2gt15pdtlls3LZ2jRiOBHK3vnd8F3RLwOCSG9dJM79XGvpflerGa5SmWq6vtpNhJnQYbCOkxXaC99LIn7IFC5aWhsq0n/sLmU7sIuiR96qZsiZWFwGAcBo4e977tUDbAn/JN42Chi5eo+IbkcUobe8HdYXR0nYZe82pvgzgKLuBNkySH7lcEaAdoVTIiTdwdwv2xYG10oXZ0fWNC7RjxQhe5kmFRXrveCCbgcYqEIHbpKT8mMBOeX6xGKPumHw9r959TnibtyDuaBVLctC3tH4BCeBXC/wbK75vJAA+dqh+KQxwmK+H+9+q+2mjNnA6sPaWv8Nhz4nDJh/mqcatI8pGH4dNvPMazl1BKnYNclcMl4BI/HJIKmqjJWsVKlX8cjv6MFYgzNF1aWt5yBSg7/YmlGP2et0Wn+dKNmOAFL9sC/i47jyVOy80G9txp4/NaanKVD6dHY+Q2i0XHN6/r9qbbPtVSLNRnStu+YxkYmGPhOvrYH2a+6n1W5JQLuL80kisAg7dBo/w/G71Qt4Tu3+7Dyetx9k1hvtWr1CVoHr4V8x8fJwwr5bTtzHqj79Xu5cdq1PimHtG15qJgZ9Nhy1pqSFngFHOS0n5P3/jzjba2uloz1khD7bgrx3vF8sqM8uttUdcs+hoh1suM1r0R5cr2gfBXcpGacUMZuXxCam3fR3qKnWH64U/2F2DRVZLY0fMh+qt9f3IakhS0UOZQU+4yO9Calhyj7qjkcjh61c85obEtlzr0DNYZMY6LoC/RHFQ5GSK/QP2cOKV9T2376bBdbJTCPQXPB4vN90xBjfbXMliI375fF04/ImanCRb1gTMQYv9xJaDPrm96xd+d5+JB5+QenEUhM1dNHXhoM4dpYGDyIeZuO2RTC5kWEXBb0xN3G27X0OuJ9mvNkSp3OZXqGRZKh/M7PCJDpWR/F65xhEcGSo+zF4tw+mAyM2FK34jdnsvTmb9y57B1/EW+ss2bFSlY0nyJl3ZXyf3hUyJy4DezdWXHArYmhNvTtq90T07Sag7e8t9vlRU4DRABhPYplddOV9UoQ+NO4YtIIsVqt0rl6asasA+jlPGItZWMQQHI0Nvh6hMnyyX8oGWK29E502nCs6V5RKM5NvYuOR+PtIAFj1tdVk9IYlNXKv4MMv1MDfo3Qf4Dgu8KS4Is1WCkYBV62AxzanVf1eJSQBH1sXkYHFWt+ogFlOvC6v+1tMWAxyNcRpgYtMz93ytTz6ODMLTaNsDgXAsTm/Q1G14coeNr4cjWLTfWvLlw0vg0h7mJGb2R+Pr+t1yA/dzDXb8S2khwXCk5LuuAth7isuSgiTRoTJvqe+tat08N3yxjrecR7n+zW652DhcTZw8XMH7kYuQiftxBg8i2CztqZ6LJHEVoN5DJqYALJSc0pwSp4W4jKg/2CVZavAzV3fRIa1+wi5O2nReJyJ55BIh95SaJGopSYoDCyXmbX35YpOSPGGV7OFpTSymy0alRrru8/wb0jTpWdRkRV2F/g1gbp/xU49kj9Fe30ZygsIC6dDrCOPhx7mY0FqUSyhkkkD/7p8/HDu37h5kWBC/8WxlVWyGUs7N/cXuVHekaQHqR8LaT89O9A4zv3IXQjDrUnTpVJ7faipBXVa95K2HVliGug6lKTOQ+DP7UiZnB3fRTWHWDOgUZz28Hln9Ee1i4zMvlzdkwWWonP7klz/nLH9pCW01VTbJwFDPKb540WEqGmbptz/me2O38ax/1jUNyrhu15Uwuyy2qPGx4lyRBKNu5WZWxjvrMDJ7yNdL5hhexzCx7LGgwtSoNB5wKlORY1Lv3Y8mjizOGtHZxIXnmPSgWuzWOJq5t7vv+IGzf6rFeonCBZNEyAPUv8nXm0ibVpBLMGLmDMgZuLICY6IFbhjR7qz6v+eWyHDMPo6xrtRchs//eibhttQY4sHJkPXefJ91P8xlKUARSJtavxs63DmqMvPVz8pNd4ZBL6KCB6/f7p0j+Svt0622Z4hR6CRiOLS+Pqby8nVK9fUb5jBYeRxZvBkNk+DwqUnQ6fdEHfwg57Qbkx4IksVHW/nSDQ9d/8c2ExDsM4j8L8NIxzWLJIdn8xedUNa87NMPhNn966VvB6/I3yrjV/g11XjtVszxlZdXE5d898MhAURCvizkPOZERbAWbkQJGh0ESQMR/FPSAIiCFeV9O1YCmyvgvjxYqnp8FgevMN0yzsImuxVcWvk2cu3PvvoIylV3PU6Jp7E56bwfDRUqIB/OD25TLN1uCfEsgtaeqYMMc0M/VVsThKsGz4rZ3gaCYiPYsBB8nKhcWxmohDfzAU1uPeNtaVo5Xdh/d5YZrD5ksJpR47vop7QjseJW2k7RrRaciyThRSrIAy7HX4cJdN8NW6HNco37avLXjYhwDMtIJqt7HOZ1q2uC0CByu5LAizSDhj9jHG10uA1n4FYR1h+1FnLTk1gz3SBJoZC3hjZ3riQTRyr+SSIorZWl+rOFbDXobt2mfjrSgOM2ZE/erywOFmpwwr3LK0g3DYKLA3fwSKUBRYG7+CP12d+oVkBYU1NnMDbfW6Gx0+3iIVNJ5h5+xwqRiPV3pfIrlSChHd+GgMG1tqgWx9vr3fy+v0qtai8swATDjgB6zqEkkJGB22y9ipwt/sB4+dOK6JPLB1Zmd9mscVq3W7NSZjkPVRD2hBXmKyeJWfj1A+t4R5afQtkttkbhG5WLU83VJrmFHUGZb2YDdKzgEYjjdamVKJCEQT4rHz9MqA6X0My6VKUe3H8Z/B+zPIze2X34YQP88rasuUmKPHlSggT+bxQRRxfIisAeizB8fzxcjhp1vQ8uGgf/iPLhoH/4geWuBrVjhECc86SBSWnhnxhuQ/zY/X8nEG064Bju0kyujtFzpgCOCK+lsNCxYWIKg1smTXyrq0VsOok2kBp2cDMaVAhSjf9PaTjU20egPYlai8T3qiB1sEY+uev8AmGedRC1HACZNV2JC3VYdYu/hjWB/NekjH3UrNe2KMowqnw980rceDgx/l02syj7yBxcq8KUgpKuhfiUAlV99tKkrlsWRfkrXuBvsnCL+ZGaMwk6CoTlTPavMiWY73xVOGRJcdp1bmmD0t1l0bGb6Wgpy03TBDcXwBQRJlEvXgKpg//EeXDQP/xA8Xngq2YpSb+tIIDL2wseDBAogjCJ6flVL0serub9/ZEzihZbhmF35jXzOa8ZKxvinLBt4JxR6yB3VyUfhLob9uM5xsulqTHWfymmrganMSvv/pZQUOzJASDpVMOxIUQB5YMRgKDBaeGZ4SNNCfazF8PopXieNvX7hb6FowCuMSgPwFIKlfXahcd9hHNcklM2+xnj9rZnblaAEB3w41UXnVFo7maL/dxmbu0FGZ1a1oTzwbcXNkoVIpkdoKxBNI46+OGW4TmN3t4CqYP/xHlwDrIeRtjzeF6OhYwP790SltX+zYZMMrhZ+/z+pVc2mKEZtEoOke/1xE1sreQq7lEYxEeI2V0PbO2oO7sUpTT260IkXHnBLDnA1wnVFiRTRtsxiu/GDrESRrmMDI9zPi8LsPyX14rdnYJ7d8kl0uxLQ1nggXbErRhWpPwE/az2vQpt6GAJ91o/lo2QGU1fpdeufCi4eU2nX31COKrQD1ypcBX+dQiMnh6XiHMbvbwFUwf/iPLhoA/pqlYyBoSoum3SL64cjqfDCXULhyuhCc621lw0YU0genLcwqZxtflOk39O/J1XNugYK2fxUhIVDyhrYAk+EGf+mTGZOYz6wSV6eYjSFHmLxLnDE6SI8ma+yYA4aWd1kHFwisZ0GHkmFolqA7s2vXmQlbeYovdgXmOP4jy4aB/+I8uGgf/iPLgHnHc89IloeISPmSSstDp4mjNifCRb3B4Nqb0qgOSCv8NwR9CqDCN5N1dBkTj+P//llGfvcQ8wpo8ga72XZG6OHerarhQCz6B5uXFZHMbvbwFUwf/iPLhoH/4jy4aB/+I8uGgf/iO2ZkRgzrQ7ce/RS5Qv6X3tIcqZbUJ5bsaMo8PcrpBKha5NZPYUP8CycGV+4jWzD1Fi40oKuDgv4jy4aB/+I8uGgf/iPLhoH/4jy4aB/+I8uGgf/iFXnAIddSJqDu/iIJxQogb9RB3XLdlsrjyJHbCeWrHGve47j3X+8938Ee3SnJuc7toaqL+0skkrauEQP/zBFzF1KXGhSqqzTTDQpmLe1GQvsqzQLsHaICI2nQXE6760KZipDCIfuZ4ryUjpdv8Oa9WVtIZitdo916U5N1TTTDRL4ybLCxSO0rrDqqxik/MQ2vk5QlGlD2pRq5ddwGz0wAD+/2hP9LofvdinjM0dj3NVKbFJaVEpxzAJrILvCD7YKznNdxaQUV2jdPtLlcblEQBi4dG7fK+6kUzkqtPgdBrARew819JdwJ8iKiJRu92stlHYleIQvw85Kzsv/H4RDtEp8jLdyO270i4TY4XzOsuye/OdX3QRRfSYCE6swzon/k9tQLLOKFqp1GoIyYQ8L6GLkfTJFl4KV0baPcpcaVYjp9C6DEcnNO7WPY96Y/6Iki4MFi1MYwmDH1yWxduTdWFnQfFfTfnsKpYEPS5kB1KWoUNSD9wz6+R/a9XizzBq/obSPmwAAO7dDFaXZsZYPWvWbnDqGzaYRtSiQJ7/kVSxdgioJpr8JD9uCAFa4QF4IVKju60iT07Scmavphd34+PMYiLQ9/cqDeqbCUvuVTVucACZxnwPG2TS2LC6NxHS2ZC7fC/PSAlf2CtE9LyyoL+uQ32A+vOXWsr9c3U5Fp/qJxlO7JtzTvlfPdQTZLR3Xb8/ScFZ7l6iaL8VRyWw09pa5KWi/+YlqIuwBZEvIn5vnrEO4CjuMEAS/rbnXpgrz2kz7wi39KUcOLqB3/JbMmWPJ/YmSpexwJEr25BUapSr1D+Vs1WBzeU4tGjQl7gva6uwWAgUTA4+lH31i//kH3mtt+ez8PKx38UxHYUM2KzwBfantoKbn332KCglxSmMC2b6FG8V84IzIYkjZXeiWGg7T+EKh2b2j8RSFEFiZab5EjTWAZb1yOAOmr/Ka0bt2fgmuGayItmJxuU92zzT+nq4vVRaTrHxIKWNFAWsERsjx1R+KhMzpRG03TFOxmT01Hoql9Sh0HDLNkt9In5FSmwzOL8UIDn2RpZGaSApKitxK5JIkmfLm6+EMkIOEuwVXbCQgX1kxbLhCkAz+4VakTg/qf6VczumukdEnmB1t/ptNqzdhjTKAZYj4ZiZqXKJU8kYU6uCto93a9EZ2GJ+3qUWawpbmuiKeHH9pVAxtTnBEYLINzW2MdP25iHvxNKI01C1S20clnrH9Y9TAfDNRHAEHPcZoEBwsmNGacnbf60V9n1ym42HfEhNjDfwQELNZf/eIK7amzpiGG18b1cmM7d4iRVx518KHlCAmnALROynUG2QtgAAAAUPSOMBZztYmC98hBEKPFkaKA16HYkZc8PgOiDEwKpVp+OSU04OWxMwWmSgPhwiHRXksVtZbvlYPcLqtTpuOqbbOwawkbV0s40DPpLOujDvFOgc0Okyn4Ycbxdrz6eO3RouON9XajVTPCDbKlLal41SDEzbhEB0r8uEfvM+ov2B2GgTjFZ715W/InP4IOf7Uo65i10epyzKb2f0cwz1+1EIMW0p5IqL9Fyv5Gp7heVurUJ1ZT/+N1zofm6/tOU3jo9kLLSm0/cz5bdQtfkeapkJtVfnoB9bSp2REj1KBX85pQ1NdiuosyI77FbPfkdPZ15vdHuYoeAa+LdO3LsYJP7DIS55J8+OmC5k/RVJxyQdLPTErl+4uhaH6Jzfw5rEbwHpng1CkxMM7Zf5j8ufkn0Q3Dk4bkFDiMnSZTeba3ZuD8GY0vAn+7rTi5v7FC2GQbWtQyLs4eAmrCf0LopdzOzh6+RTtjbZ1tzb4WX0P7vKIzw+0r7SixrhSlxtx1KGI/KdcB5mZv7jMYQkBzxZz2Q/x2L8mm7B1mzXyyUxyi1UpFLfRT27gzFbAhD73wg99JblmE+IoCkteqUGyanWokQrFw1OYUD62QvB8wpI3esi4XvMFkzReAp2rgyC8SokQDQA3ahCUpbF7l9MJwTWCM3aLtYLT3w7iYpIFUviMEniC/KADSeCu9CGRWJeap3vpwWJb/YROZ+77q+PxlNd1u55k+C9ga9Y00XGzXKu7Mep/A0/dE8tRCwsYLnv1rQWxyDm3uOT2cOx99jC7FBbr3l4GfdnP8BK5ns7IgyZxoMNnQa75qYF2ahGyHLweyeyHZSqu19CjF9cCSeaPIGdiaypBSJjOXiyq5vhn8Dty5nn0+ZO7H+L+fyinsWe4LVWwLyNgRd+Iciyn8RSeqXYvRa4Yi368TR059bsTpspm4oRlu6+SIEO59dI7EUurHfHbfX/5+KSy9dfkS25fTESQG+vqt2Ea9ZMEc0c5FsCU79aoIP8bHCdadDPmwX9EAwqDeGAONiP3grvG5cWHZgf9kN75DrxC1eW3Pi5WyjII9L9WFJrV2hAH5iG4HogXaBLHy1yuKfNl6hsXMru4GGhqR8/p7Rn4XtyMkF2pwwfOWxS8duG4Ds/qgyBwiBzxTItmqdblqHge+yhTG4Y8uG5e1DrVRqAf+8gf81wSSrNhX12gVutEZ1pVrAgJAhP7UHGkPU5+VZaEeVg3aY1BnKkqNUgT4FaPx8sCTyL+9UjWTXtcXP+vgo07aqt7fU1zKCZZcJq7sCE98loL1KvWeL7F9K7E1sEH4wYuCoHMd0Ue9dEVao+mMEatSBQVz+wfUkcyg1oMjS6gLK+9aSamD6CS2eG4ObkfGCEtStyRsu0gZrBP+j+kQkwmQwyiMhL0g6rJ4FKRUhp6YGmefwjbLNE8Hy7W1UaO8If1+2cX5aH1nNpnAAJxJcQ2pYQNGwfASxsdUMbbJNrYVfON0e8g4wXDoD56nCy+EWj0r3xh+PMLKcv+4DIBBzK7T8HDmGZwjB2HlVdAaVusL/sGLrWvCOChrHtMoQn42bKtVFOq1XupdEipjc2Yc0K/zqeYo9XKU9jXdLj/jh4qs2/EPZnj/yes+k1C6bjgRD8qHlhO3T+I+wFScWprKlpb23GpN+2HS+ezOoQXwxlRpAK3QZEWoDcmq98bV08Pac/6G0QCgX4Gy20JM8Iq+nNJRdUCcgKRxdzHyyVDh5ygovpT4grhUrYZ5Zurs/hE4bQAWQ36fiQANI5cF8NYIy6/IWiBxaXEeqj0hBPXOUHi7TIgOvioTxDEsJh1vKhKV2OZ0FXluLEeNJ84oAAADWEO7XJMzXunpaSPoyqBIqz67X0mqgmc7w6kvUFeVxZc4naBBqbjFcAn0DPq7DYa4OuhDT4hz6x754ueIIoQuOv2aDeW1UWpCFDxilAt24uyOmGZfFSBaM2aoBZiwqueEKM46g0e7HV+cDCIQoa2W5yIYID4K97ynOFPow/x2x4R824jpp3hALaMLJFhEBOBP7WjD++WBL6UrLJKYa9/EoWzvVsIQ/WLVnEzNCdSbO1RFfw24dbLqno50kTVLdMGK63nnZ6Abzap6D3JPHiCSdgDjy+J2E/160Zjbntlqr0aHPpJdUbFdGE/UeDzWsxOYch6awfd1cow2kJBJuTfdKLa3Fh7PDS/HC3M/v6RvJUUSLrQF9w6JIs3JIn+2KhmlVtH5AJhhRvjqyPL/tZ8j7hkcYmu1wGg5eWZF4Esh5VdqVT/GknRMzz87A4DQxbr0dvBYCl5uPbnEbMPUxF0apRPvikGMXy/p1mQP04gG66KmcSnP1pUmsr27Cx1WZZNXUw+EeObJsCFcP7iSG1jb/AIYpXJVvQtmRt15HZ0t4/rbpDASExtfT+erunMqGV2oDl99Q6dFzwbFPfNnLY8ve0KgAWv6HuIVII2cvfT9WEss/nbFY0dEhBHfn6rGpDkd5th+qqsqHTHcx2t9/YntaOrv8SPNvctJW/jhDKrODIo7uvZGWN5Z+76sDekM+DKjUQ179gV0v3zPLrH/to/aqBofTr5Ga4NxiOoRGbsHR9GASaTQf79g88TtiSujJNF5y+VlBHoDWGY6saJ8CSyixN/TgmbbvgrnZufoXnnI34yAD/hxNNL1VL/CwAOml6DnR8j5Od366NvUL7PbRwlDgV3CL2bsab3ZVcjk46jdgig6Fvpa9dytet311cJtNVG98cpgz93s56ZLmqt9LUEh473xqIsEWqE+HX45jFIOcyHGPwl4dX7uzD8jDW1IIbq5xiQVmViU2OZCtiWATaGFI/+8n8L8YMefUzAr5cmpucxhCFLnJm6TilrbfkrPD00Usxunmv0svMvJocg2z8iO556pLRvdIrH2Hbf2SBCzS9rW8vOBLfLQ0/n3cx2JixaIAaf5luasYdQrhb5EvhN8FGLSX3FnNIiBeAbPjhqUcysztLEDtSfsJKgGnBkLvZ3EKMijbVt7T6a94C2Y7+6J3eWaADT4ZB+ympOoGLWGEIv3O70aSfmRdnRqXD/VbWTqff0BIW5Oe8LY5VA9oPRADsq5oQa/6C4z6vREIlYNURBeIl7BfSOcLrQG1X4+77iNyA3LKZUwOOHqvTCMXsXZ33B3FWXpbYMRsKeIJKbf/gu0wxuc0dALr06ESf+ID8esr4o56dWkOYvH+u5+OS9s9vPvc1dtoXAAdmMdQ8jtOg1SCtZV8b9lWiW3LKGlFB6F1xOtUd6yVeinkJyNKkokNlB9TWnYOhIE1btAsa149dYbEulLtl9jTK9A1mRB+joXW0no7rafNXr2Rn5qmDjsPkE+p6ciTFTlmmAPQcnJ5z6IRDLV2ESHZTcaf5LLXobUnAWkWy/ylDyDtP63XP6Lcea0UL7eWyfx/XW7XG+z6axf2GeAxcHAKE5J+j/8i0Rw+HO8i9t0aQ6WuxOFQeSAYr5Qwv4rDZvB4RGicvGOR8Vkm+GUF8YBTQxqGa1tn7ruXQ0FHg7eiqzrVYq41QQbhFrwhW5xBqNEN+g4QZaV55Y1Q16+uFIC4TehMO8yvpH9XOM6PNSTxisyjFHPAt7Fvyo5BgzasyFCpNuzYeMxYjP5RyWR5TXYAmxXe0Y2PsZOfsgiuQHBamdBYQb1tAaaxVMAPB2PgTBh27JiovyV0Zarv/GZnaRQwTuyVSL6ziqI6EKxNyYlFIzaK9pEw7jm4yrcoaYvgngMubne7bKq5LBssCbh+vVAcmFHJPbsb7dr2M4c9NUR5N7JoWgDOw3dpN75ZKE454/KE/BxIWP44JmNd6rIzNtnPfSbqORQT7Rdb6+MwdjhKq6NzE2acgf6K4UVssc3tEFUPx51tO7/AfuLioSBUOtTa0ze6Tj0tkyW4OqoJ5MdFNhMGNBnDKHvCNgyNRTxLvh+mAALom1p7yR1D/Eu6ayM/KmBAcb+EmFR7+qzxI/zK1Mdm/hF/ADlaWX78a4hIupxGvHJETVX0ySURpR5V7SyyS9sYFNPsFsX8KlKH0CdE74BUMZUoZ1PS9kX7FgoBwLprOyWBmbLXgeLf4oobOtQPhLZP65j6OpiacMQh+YL/dPh4I9HVgcCniTXhbmYNTva+Jwvbdujq3QK8dD+UrIP70ZGaFjQpDMjycohxXfDV3f2b16oX7sxRu0cLOINj3ct6Dyy0AAApSn1L7+Z8rxrRxh5eRbKxIw3H1ysM4PRgN8jPrk4+NpkIfZfNMAvvIbYbG7mj9YRAhMndBKfMA5MEnqn/DhPGnUEKNmgomqoPywhZvu/6TgRoLxneWTfdYmpGo4fWLAiG67B3vLgptPfnbwYIOYFW6e4cdmj4bWbh8du055b8nUFa/5GDecOYE9SEScqedE4mvAklWQn5Wh3E6RVdyUGQ2a7NIOrUCKAijjecD2yHJoi6siol3hSixSVt8TRhy48Q9yfC7JBCcqb3YTMMu4YJRBsk5mboFlvcv/TVPnyIbTMhWMEUzuJA4h1TrH1J5rBZ+jU071wcVSLlk9zZ3UFM/gBKmAoCLoBkkI76sHA6y8PdFCzhLoEdTmBlpbL4g1HRjUGBsZ/IdIieBQqm5/ChH8o4U5fOIGzZa+FG+WvDl2ODK1YY5FbQUmT4AQA4ftcxYaQM95iQrrjYRERQxrY0HD9dg1XcW3e0mlpLYTPM+cf6xJgNvv6oLmnAIoyCQqY4nvddMK1EDRlF4z1zJCdQU3BovTgaDooPJHnF/8yLzDIQuXur/FCXLp5zk5KeoQvM5BSTACGzkfN8VTka9bvd0EOiLIOAM/ViBrM7k1pVyqSEfX4HX//wFXzeeh4YXarDst7g5yaSXLRKIc8RHMlj0ckfbEUSxXM7C/U4BwAPFCNMob1LpuDwTrPi4W7UG17Q9U+pOvS7NfJu2x0AvkPs3RvcCm47IwVjGi5LlSpVOXbOzj/jaekmr+SuLVfmQ73YBtGnv/2KjEPrDb2UHascarMseXKKHueUigtNT7HP6nAB0ro0Q/GfLWFhCFsF5c7PIiCotkORo+k2F432IT8PT41gP7Vluij3/fwAZeLt2lMl1M2lHB/kkPuOVOVdu79+hccPgcWIfIn9JgM42LDpZAEAaY8WzXwp6r3jHSfz0PNNVcUS/Lxcp6GNr20nJDJ/okKvldHIgpUTLeAnlmP38K4OAVsOmNkF9j1vJ8kodQcTX+fxFL30fkcfByTgWpd4I28ScQegW/zh2Mgai1HIS33MdrMrucx/sElKPggaoRRPEYp2TuXTLy274R1kszsQrBtZZlDZniUX7Soe4a2KlR0oD2vEv4gwlDh+gqRUCKEucgKo06TygDIUhocT7XjhtnG30LOsnjBQKCD0ALgcWwvb6ZBdQGO9NPPq9CMRKvd9em0LZFLclOZBISZNEQwMUIuD9jaRZ0RBaUsm5xwzHzHr9bUphSt7aqnlMLUVsAR74RWuXcdW8DLC/BHdiF+Bqiz3C/2R9KkfwWoHZkcqWEa2kMCXfrl7nNi4miXFm5pljZKFpSPqT1lJHOVquIYnGX3o62cUY/ZKEOT0MoPZGFzhnlQZOii4zglSpqcp+BYCT2HZjye2gJQLAAww9XwZeQgyscd1drJLIvvcxrNiVifT09tPX4W7vXFHXBXbcJooDhoK+H+eixfTmn0OpDA/gQrtryVTpi5bedrmVqMS9p/PZj54RBPr0DsUiChgQdY1EkQq4nvM2WeyWTPn/fK+/f2CIGhqKjNQIHaYR7laY+re43/eKLjp0jg34Hb1ZaZ6NcOXbElOkQLeKGcAWM1EMREV7ttKQgK+jQrxcRFqFQ4x3EIlaRILYBpH+p+bd6+CJw2cfwmgLD8PDOSYRIlRg+SQVPUveoy4LwbquSzdhzre/GaF8HxSzpOYGVjhJE77fYcsaNb1rSZ++Ad5ejtjhvfKfJb2GKOPxTgxKxqGrJLelb5BX6OEODuoz7FaaV4WMYfBuaBqPcm3vSf8HSrd/j3pYGd7eIiEZ6rOmQ65mJA6GwdB5suz6mfOH4he661bZoS2JTvOWNjO7Ma51HBZreHZrE5rc4nab4fgtCoJIMyvaGjXS+8vmx2ilsl5YGa4EQpvvrJ4twzhXppKQ4yyNJkwkZs4AWwajtR044c8iE7taLfwaJas3Q9zIwe1Y7W2Db7Or4EGPYn9kT/TGj9QfskAokhGwpYiBtpeS6j+lGDMhCP2mOrgel887kIqtnCOg93S29B+TYBtG2mZyDLB77WXvSr0iWIQKndfLHaoZNiyeUEOByRLFFwhBDsbrqf8AIQbtxsgSbzw7RReoZ3DJd5zAcLG9Mj0h+J6Pxegulwnpzo81kQhuA64uKXpR+6TaDh/7RqnALErnnTmiYUE0PXsqOPKG2AAAY3UobNzgMCvdOoRuWqAk87rSlPCII9C7/kvg3vqzg1Hkr1FUbMAEpOuGc6JQZ/9+wyTaxz47zRJpyNcuGKSlT4E+M4CODPJzTdIIfrwQDYF46WKCirGIaXlSJY+mppMVHgw3WaYcpOaZTJLT02ijCFUc0S6XGXhq0EZFkV8v4CErW5bGkU6oPvRW0gZV4uoGBMlwVc1Wo1pwO/+1TUWPNzGq00afzkCuajotJCM9Wm+gT1ziGpYU26+pzlohhFtSJMr/3I8QPKpL0qc6izCIUcpR0dL9z6w8NGAZCTVYxWf1DnuUSMRP5BwFf8l5gnHmyAwaOOeSuuDEaRk3QpvbQuawZ0cCIKeAwscMUQtFQBZ9O3uOZMIJpf8qdurJl6PeYmXKHkdopfRSLfrR9SJFkEP31ZbKBMXxlzFcncl2T9wgDf+IRqyKqcjeZVbTkW8RU9dwUGu8y18UjQEM9u6t4DoQMofqMU5N9SLWVP5lYYSl9QReXQ12NxXqgwkbOri5ogG/vYe0opM7HiL+e9nLhOop9TtWAlX2pHrwMy9yuut3O8SgrdeE9UfvNL4eCGqeHMKvMpXgQ/KNhka3yMH4yWvVcuNbt2dBf9EgsLq6/y++8gOmkbc4GUrXBQYe/A2BRpbGx7oU6QN0KTvpXc9SBpqpMrKATrVb8YS5qVUb2wko4A8KeczANqXnKnCFR37ILqPP7ohkJkZFQHR/6Y3pV4/UowRhIkfN4fa9XPPAlGS9oP/MmRd9FPg7k2xkE1F1Fz68eIqZ9TZGahrlRfKMyHrsiUs8THuCzjFsS7D2NALC9kylAor4uM8dQzZ7QWa1mgx+VjMQj6JVg7thOazwzLb7Z1mWGHyfQweer0oQBfSYjp3P3G+Vwpt4GrnbQbA8TyJokjk+Sz/KZaTdqUjnnLr9HQqlYOuaowcpgqua6V8kTeQK4jg4e0KYRrf4CZX9guTrYKbCEE0rYf3HRIL+GUp8jBq4UbltWuxTgXgADvnpagbEfDjMPG1e6lEEToHGYsFCGwyiNj+daQKhnNszACl3FeuLGc8SPKG8zy10YjMWjDnMj4XwNKHwAPNQ7jI0UoxQVpajVI4GWAa7UVxg5fSSiQ5s51B8JXEV5eG8zInRcQQUE0Iwq2QzBXbe71XfbwHIh2zp18WTdv1+/jW30mIiHNQx1q3Av7FTugqH/0Ivvm1aFSasftLtanKwm8YOitz40gw0hMS9PXAUKEDTOtYEtLaBzgWNkKcOhKRk0bFPMMrJzfYi+CocSD5KQtmvxZOyNVvJ9HibIKmxj4xMi8062gsReFc/0g/8+Mkf/GQ2Nxt9yBBEPmxYh1RQ4w1LqDizaI1fT1FDd6upxYKJzG3FLm6gLudwc21VpbWIVyMNNpD0P63KDPzHyitv+r7m1Q8bvCO0jlPrO/i5wjsjxcc0TZJX1JWNBJk8ckMD67VHUqn2un44LbkYR6hxqvU4NeaCrflNFFM1ZUOVk2BoAco5WRNXyM4f09EbaLhHJgo2/CDZTjjdD70l0PG5nao9Ys7g6ZnSvN8QTJZuaGvsOZHWqF0XBrYCXTX0zqsWPoK6x9zqGS1nyceJLd7pRDCVSRSwDsSAk4hVUVrMcRgWlmGD6XkgKNSAGbyF/7Izyh9HqSj08eJ/6Es70oUfc4y+LLv7ZSL44s+jAdSVkguF2uz1EXT6ueM4svWDKbBhSA1a2xzn+Vwjr9XRUZkZI/R/ySQ7svzPepO9ibaYpg3vb0S6l5xufPbQ/uNJQkeDy9RuyQTi40HKRhmr6L5myoAWLfM6dt3CnJPGD9EFrpZRmhxpZl6UXNqYKA1Rdt05rAKnG9BW55gqNrt/eZTt/CeXcYjmfF+72hmaNkLdezQ8QMz1e/0nGJOs1r2ebHRJqlWlYODqz0TdtSDdlLA1MvH9a5PN6tP1GnwMSWVFKGr1K1SB6IGm9w3T9e8VDCw87s3yHO6Cyx2wvCr506naVnd7qB2aSywu1rMwQ3tg5p1Cg6EbzIylRl9Cgkk8Ji9cAiuiIerImmTIFqgr0rqIpnctW/4RZ+yEbwQ7yrFohujyD4rp5gf0EeoRtAhPbW01f1/PgaZhwAAAX4///7819pR/fRIsPpobu712yAbmnrEnwVu6RJjK/1sRw6MAev1vgf6cQVtumG8P5ZinhQFfs2AEjpwBeAExwa18fdtUHKFR8L5rG/Uw6kAU67yTmdSGdj2U13QUIBgVQYpRdlacXcIzS2jowKQRLlQeNqG01VWzaPT8q2yMVgk5pxa4EYqyKY9FZ/JddCd5gD3r/lDuDtoxK/iYniulC79SWVO4qqQ/Zbb86rEfxz5lQNlGW1Tr2G7NKWwml7Vg5pWAsIZedxlT487Zj4NbUuau2wk/Cy/6w+Ret5MyayfGNJ2u2hRLrC7wW5Ps2Szv24+3Iv9U2jiU56rFy3gZAOY2YLHywYcBFoytXkRfqz/gQZCck8Psqcumtyxu46ARL5N54ygcRnSPvtNYLrAxXby7x7st+7HI8BoPUEEqqQVcjGG/R2098ht9msRR9YoX6zb6AazizPkiJnluMovD6npDitiQiXLbRYg2dQZltifZTGHZ/3cwgp6cn+V2AIJBJnym6f4m4jMM/IBivwiz/S/Bx5rAXxNJT9Zctkg6+r9Lg78nnDm7r3mWEHRQpuWmOcM7gcho4p9+wPeWvZE116AgWUkpzhfWv9yweC/gyJls7JuW9wzAUzYr3bB9nAg9PYDqNDNKmCt2YbktwBx6X7rFp51fu0jyUCQCahdkDLRyVJxQLdggpdTbOArOSNBjFUmukk1A8X7rXRhZwsPgVuwQRfu9Si1/P8o8t6ZHZFtQke2GRBr3v/bLXJIMmzKx5wS+N6LtSLfrEfqzNbzb9UJEGicFbhaSXJcSDfpt1X+MnAoLW15gjRWEJnWkbfDo7wbj0MpVuOWcFU6urwTCTj0gF4JNCjJBU/dbNK1upkQNIYyLZM++tT5px7siz3dqCD9kYCegIUn5URUAwXnJ/gt87EOENbi+NMO/0PuUb4BNX6WR22OHHapB2xBG+K/cT/dGsm6Z520xFNB6OZ7ja439jFcWI7AGjs7SOCWHtWd2DIRi5npcl6vXzSTRL0gHzxWCCdfu0qX58tIoYfqJrdnuFfxf0dTQ0AnhSR0fqF9alP2dscCQhw24EqsC6GRv7n9Bq9/xK0Vy701HzbvNZQlZC5r4peKdxyOlASseI/jq/yjlxuzaSpm4hoDGWhnPzUy65INpejjxsjc89w09Og+5Eo6AZfQotg6OQViO+5Zrm6lIvReazazqDsWtYZbGRFD3/4P7amKboj/POc9YXGgi1nafjNcMh570y6R/tD85EEjJONSa4LXX+cgOfau7R4ZDK1qqtedP7HvLgpSpnAuwc4ZHCP15SixuQ0f39Ymaj0zNPyNYigsstV9R+c6/aIB31W5hnDCdArOWL91GR7tiXplHVFWsB0Et14rLk3Tiyqac7tuiEtu5531Z/0YNutwKgnfxWDPyBNbtFdyCDfyWgwP25D8ySGVUo1/3yl8Ro0qbAlfJQPBeOPR4Blx9xzJonBJHAEAQ9giB4qi6oZ4KQiaM98bptENSN5OxLIgz/TMaciMZpwp5i8jwsLggMA74/Y7enTrC5rjzgNndzLh03zuEM1/9fw5kMycswVDrELZf+ZsG1ArdUMz8dYLhgNGKSrT6F6RMPls62vxNg9hUM1z73Suc4CrIiWRXyzz9bMsRrOzDrfIlUkQh3Rk+bmTnsBKzpbPNTrbitFOeDWxa2ZuQCmppNN1xMRl8neaKBg+i8khYN9rVwm2cnU4tCDyp+WGJCWmxjMj5HN+qqTYNTHnu503keEnb3fwhgiK0yZWxPsatpVvt4hUqc98KBDWmcRlN2rSaMMZrL89Tmji9+O7XUeaPWMYZ3X7GYJJwlOUylWizBhmepmCdkFjRaAooMFkHN7IBMKYN3lfyaPaH/U824t3CsYKW4er5wGs+2iJd+h37bNzBz4ad/hl8fxRC66SCaHcyuCJAtht3AJVv2D/j5GsxfUq9V7vaQYABp+vXiBB/FqEWDmKwxMOvSdTCYGtFaYkiSPw04F4VKN2nI9ce8ZlfnmbICF4znqb9utuz3NajeKv9f0NbFIKMDbkPathhmzMM+/HWhH8/ATYT0uO1lmiUOCqm8zBLIsMPjmhiI1AjWSeILxevxAGcmItmSBIi4/Uoa0lKHS3a3pn5VaaIHgP2xy7Hpakr1z8thfC49Zug0T/pPK4xfrFDNEOMrQvwcT8CZc6dUWvn4mNAtR3KCTD26uYNNvoyL2+jXXYR3f+hF2LnflDzxQ7v8VuAsegMwZ2oRveibdwYcx0hvV17DA7qGMuN/B7hd+1FUIntW4X/bxaA3MpvuKSwl6fOwJq3JvTFF/X8hN2s/c1xAnU/PH/sjM8Nlrk53iyeiPvHRYm8n3L39A6CkIJha0xRDlY1ZNUMI3kGDqAlcx/bOKT+e2pgrCyAQOzFzXaB0DwbwnUxxcckt6oiis3Hc+UfBsx7wIq/UWYce5RhtrfC58OECHRdX6FXqI3QzYI1cLO1mKlkI5DHMFCX6uuyypYQQQ33s+9uO554FjiFTlhhe3Tes+O9ROJ/WTkxO9rwuogUM+HQ5LNharpG5a6hJatBc/XHxDDLUrYkED/2gi5kowwTg324LF2/dfKPBkHg8aXDZ/B/CpSq0JkDUziNGTldxdyJXUNB2+t0mDlFDhpQzbmuPEuyunGDqc7yclwjtI10SjgcfUs4A89gdcm7Kzamc2Vx2LWXEpfZGQT5r5b5MARS8jYhp322AaeMD/NfDhDnGh1L2eC14ZGmHIMETVjDfNI+q+Bi4n0kR7r686lZeDhyhC891Tcoxtvu5t8onSpniU/QjI5uDB8wfyBIvOfdcukANZAet/Boa1UvcWhx0x5HRzlynfJ+hH95ai+Z8VpBAugam1IeTy74QcGYSh57IB5sESNOEq1O6TFAnWiWCoPqoTkMpJtgCF3Xoq59XPgswq9BtuieiUHT7mM6i+Ppsr+ExUYS6oy+xam3mE7yM8o53/84Z0bPIWWlbUSceQqet6yC4lWxQXLciSy2ryVNJYp6trkIKGaGajh/4PToA3+f5Gv8JUOWOUIZBZf9uXdI9+PVPCNaDExmxBPHtdyCgTaeKCXXAV3sb4Di/Sfmfv8Qk9KVId8ppuuDn+Bg1sOIRgUC+NjU0FZTrTb6xan9NS9M0B4IM6lnaoVHOTGeAjjHsOqjNI8fuzspFpSVMmKKHVjZ2vdq+AhRpH8meDS/IrEefaRGsR/JTTCvDxvgsBWVqo9BSzs0Bcf2rsKFnUAZQ1jJ2X60luCRDms2H+5uYYqpKu9BKyliu//On1bR+hFFXrOwymeK2wuWIXjZdKo7YJyURLmPwvdOVPN/6263i8YCV3wu37Z47UHvCM3IpF18Z5SiROpfIFh8QDlyJKvMOsUrA8RYVR3RgKRTGf9Vv5C90n2oCL+4NgoAxWUzWoQckOWNDfs8beTEuPj10nQp9n1EG6Bc+GU+C26JvJfJjxhGSq9fVWNLQbmGNEFlkP0x/3qKNULcuevrRwYzqOyiIinh/N+6l/w4DsF9Jv5DE2aiJ9W+9zsSPu2dpR52e5dBOI9ZJRC+dCdekb3gnb8u5BWMWsMuigXx28ohxCTwC7vTU97P8GF5krlh01ZQj6PDSPvAvt2PRyoCk3OKo/+L49FZEzrNM66KnDn7TCMLUYG1gzUONeR/Wir4SmnwZEhA7GvRzB3IslJSrHhGT3mj6mcEEpvqFURwN/m2Rq+BQ9NTM13wSaNfqF4QEI0LePpzyyPGikUXWPx19dyg0XW2Jb6PnlpQM4JXZ7DoxRtMYEXLmWLRYwTTrNhjUTdOlmLoBRXFHX54FlylKkVHbEiyqC/EsbdvNYcBnxX+g7FBxuTAkASvZWcGrcZ17XkZ3OqDyC/G06cFuDPg0xxutnXZgS7qvK9485xpve/1Eglxbia/vqGKmZVYiwVO5lRUBQmVC2U3ia5W9dKd3csirM80ra1Z6CDtPzI8Ie5Hc87rbyTtzGMRTkCMmIPjdlVnM+hb84y3zupxGo2EdFVIXR2q+6/TLIAAisLK41Eg3abInngKZpx5OEXPIjuTjLuiMhzkMOheazrByaskqExnR4A+nA5lZhD5tqn0sLSw9XJ2Y1F4NrDedzb+dg3S8j4fjN3Ozzyb3zeHwS1T204XbD16u1jw8aBLSpwx63gzg15XYrA4R5S3DON5SPeXkMLw3MgnHOQr6NZJ+V/e+niEq4jaRSAHnNUtU/9iLhHlgLLoBHPadlqGXvSZ1UYyWiavQfMBfWEWmbnG9qxpi1ED0C6L1fYnjPbKACBcj4kcYGnv+os5oDa+cqrO2SU9l18OnlEILw5AY6cG7JKbMNIR806fwBHMw6AcC6dcqgL2Wy2L6o4pHLWnTYuxHKyAi3Xr4KV6iV8dxz/qI3uvEp6b2Y4agMoLpCK8oJKRPmFv0dfu61mjGno1qqiyT2ejYgZnpjy1d6TfiOFp8v/Vzx+yzKSxAoiLeRAaLh1ARR+GJaxBBXSAlqumbYZlZaCqvlhWKtG8dwgLns2ch0iCbkytD4PpH0Pp3sDHEJEAMGOpqD/1pj+Q1Nfgv5FcCYalaNldtX0ami3ebHZx9lpOGcPJUlCnCJkdbaZQsjG0DYb4CEHGseQ2Md78Uh4u1QN8wsLqRkgQbCEY+ZKljLZMAjpO4ZhYUvA6miVq0MQDX8uuJ7MgZOtK++b8VM34Px4r5CdOLakqEoh3ed8JjEnWK95mrxrEQhhC4YyQnXKGLmznWkFK9d11fb4th+Utrl3q3aShlillWWtkRSMSRfSE811Necw4Qrs39IaSP+6vsf71k65UWvQG5631RyWQoCMZ0+omgmWnWWeDeaJgQRqsj9OscBKrh6Lwqpq51U8DwO2e47C+o8rUL0Lm0F1xpxiJ5YXjp5h1S3/Nxa+iQH/Ow6DEjuWWMVjEgZDRKImuzb0pyw2oTENWkKuY2gWiymINXXSCv2Zk0C+qHd8TLDVPrl6O08ADknImNjZ251es+Yz/lTfuz7KXXbXKeUBipWtrdXOfBw0bqI9Z9N0W4bjk6wbfhoCHhFhmxmy+Yyf2HBuCGR09qYsqQEnXI4BIug+rQN22jay/ZEjybpsNlwaQpwbpXBKqNWZFSxYCnxMu/wA1gMyZhFvXv4Lb1P3N/bTuX35VmONNTJflhqds6EDWmtz3y3fGM2QYskCL6vxZFjNnD54gt2QhormmFAzOxScnwDzlHn6b328CTjYYJlvnXo9bx7BhGT/jJWO0VLVipdk+NAFmrkw8QslUhWJZJ/mselWnO84qTs3V0IUekvsEJtX8ncTJrKsC8JOq0/boNo3GWoteiq7KM0xEouirIIejbDYTcZqjGR5F3jWLleQxOAoXmdmsotzApWbNcO+r6V9UsP/MIsl8rb1tpm/QAlEEcDQFt2VQU7NBcHgjSCnL4fNDq4hbvYU8su26PfigSnAWIjE8hCObfLJkhUzP4i0RtwA1beiDJzqmeiwVHF+YcIK/b7rX7h5tMQ4PCQROOPeMubEq1o/EPXKdJ+8InRZkMphitSrOw+iztmz7rqoPa4L4/DFzmG4zM6uDJ9UbNl/UzyGrNzAniwxdIL0BbBDfgocY1B4Gg8rSAcFB8nzHUiyrCPggUCYvRURJjq7cL9Ug6fKmbYdIvsEwzS9XMyyKyp0xqhUfi7BqMP05WLkIWGtuoRiHysakOuN9xEBqPHwgNo1AR+iN90Nrhmt7CoHV/bQyZGv4+Ev0Jmkl3J47IWxfVUGLzjE6DPxlcUMkrmhjsk/rGsnNRJbj6lqiY8sy/KpM01GSM/05Rho7Bcb3EYuzftsvqRj5R5wZrKlG4OgG8GBqTVYca1U6RjC6ncH3MORKVskBfldAaNnKOzrkxBYSlQf04vSP5GLSJaNiOG3M2MPkh6yeMPkZblfCQIRPIyMN4Y2gLLNnALl1iVE4HRnWtKCOrvO8FGarp++d1uCXpzWqvH4vO4sDB/5Jiqk1cr5SQq/cmjc6mqYJ9MLaByqhnk8CUChBKHn8j4eUSRvj+1BOiWFGBQ1BLTseNR4i4m1kGvgkWln2Kq74emecdZEUFnT6VDL4b+brbjww4lTY9hxLPSzOzW4Yd5/s79olbQ0B1Q+7HhZowYARqzvU5FwztbjVN69am9I4AqkKE95AAzgyJBLSVVPXVa+mBnqrSLzRhFb1ON0Konmime8cEyI2HJeApbhoztPz8sTmk5r9H1u0AXrh+My/kXTQGwMH/7NiK4GZ+OhbV85d0P3PX94d9unTtEJ+PkeZcgMWyphT7pAoe3zy3CuDWKEhfAACnVSOcLCuJvK1TcussbKo+pglE8ZHfF/bIqDWc1d6zJki5Zc26g4TMLzcN8xdWJ/MobvPpBPxwAv7eH/Ll8DQTrlgK2+1SNfbcCdll/PyvBlAYv9UIjeTHivKanmOTKaUPHox9ha2y2J2SUY5anm8r+a4TpcBdAi/WWDbmELKV6HmZpLJPrDDMNrKhXDRg8lxntqSawyh23B5GKpoimceuKnU5ZEqsPv7zodMopU2AEdKRq/2f+uFUu0LTfb21krqZtcozIQKs3L0pK1E2tDzY+pxSKKWRJQLzSF8deMDRksmAJyhm6aM5j63uip7FGht/rk4ovUtV8sW12gFpPvQegODstiucGnNWP5nkBLUJJyic/FppVVRQSO33c4TE1bwZcP1yEmSAR14MKIYH7MBee6azNVhiDhwB7oHzSzdfmGpZR8z7CpOFqXUPsWOXmFmH0cmyuFK6LFu6caOWvzoIx/BuChtZpJ4o1ecToVLGI2iP8JA61VSRj8yfbW99oxqCS+BGTOj4YeKzIWCL9gbFQ3nsKFefG89VgjaQIRUK1YoIUCZUSkEOZtE/XVzH2a2o4P4WRSSP0eATnssa6FZ28FxLvxUs+uwrPYwm6ppoTDkmEUv9Fc3n9jvUqLHZU2Llj5pksfA7SBRQs7xCq9s/m8H9iob6rPNTPWZMbZrRDIMVWOHKXi0bb1mXQqXgNA2rdYeEOWXKOdIITs2nvK99b19Z48XZX4JrbhgzkX39zJJaXdSOW7ePDMQu4PO1Xnr9lpV/apQ7SOFPeiKNhXb9qcH6KhZiif45TnYT8qPUBMHH9RBFzcRIccQdHNq8syKk6mrq99LJxX2F6EZhUKoj9XTugglkZo2aKMtTzCkJqskwmzDPTKA5OZ94fz24SxA2Vh6vAjcSaN4CFUXj0Cl7snHc8t9oIltZCZ4PbBjPGTIZkJDFi4Ep0DNVRHLBGwfZ57MPutsxNhbeoAglerkeWrC1p9BgXvhSF94q4b5iIOFjPt/pSDYm0IM9gcJbMffzTv0BAwkf7lT6Ch6eb06gDQzWHIVMb6r29xnt4ezwu2J5BJ9/WNGfol4RPub1ZG/Xtw+5/Bh4A09Nzun9Bv2ouy96HTSSvlw79ZAVwe7bYS4RWvnLnDj7dTzQS4x723tvrqvHaSUEsXDQJOgE9pJP093euAP1put0hk778EuUbrAA6BEcmcctltHxA2Sw3mhTk60Q1ivrDiaEXdT6/69eM3/Ys3c68DFxH6LqaW5HPStIKWLj6WndseaqiccPMPVLoVdp0l7y4lYETalCnfXYSP+IQVnQTj14SrUfwcrvf6oVAaGixZazzSh/8r6hY1PkS+fpziHdOv0lRFYVvkg1U/cHkndr0OqIlxAevcyKW3jRc18zHMLQ1668k71PQSpX9Em1GH3bCWYc7gwK8ZnF+komrPP4GGgsvY4dSJ/2vRNPHJt7tL0OlXFiHihJ9vp/Wli3YpuLS1JL4Gen98G+pkjcyIhUFijV82GWw01R7UykkC5SbN4WWc9VhBcoWI5NNuyn+3lKGQbJ0u91IRRTUSDiOlVRfM+jDSQl499pCAdSueB8GtyIs9PH7Kv//0w77N7oEK8Jo3y7UuK5Aqzpf68vS89lwtxwASArGe22uj/RKjDzFDG6Xy7E6HpqmsGYjQddSJdmA/3tKUvix7t3opYloYi/+vKKcTT4dkekVJGU16ufKQxEKVmbvfdrYASlhC7tFecF8GS81+BoYJaCkZmavct86whDsRCSjJGsQ0Vo3Vb7f+ygmAeU+JoU6mBuHtQ3zgUy8wu7nQcSD9FpT+ElBrf8AI2NBBXpPHIciVfW/t7IlR28/PwZ1T8nCnt1RG2PNik0SGoFjomEVQ3tKHbqPYO6s1SQMONjxWN2cBHqstROG/ujj6y0cWc8nH/jH+It7UhhTmmZkbDRFxt9quhlWc095ZQSEk7DldgNbk8M9qCstrICBN5jJqFZhPluVvTrg3rILtkCB05SnFm/2mkLWz+mz5IIzOmQNkkenQlsdUn+NDBnvh7lRWLp1Wp7fy0I5sQA5eMbRdkm3vf+f/V+HXwppDJDvtzT5TZnRdPk4HB27XhIn7Z9YUBkRhLQWV8wE7am4FJOhDIG0nVc3i9Ah3M0mlMwK7J6Ij0GtgUJ1HkeguwAan3oaEkjw40kDYIHKwwfkmAMlOo9e9wnQGTb41+mqRhQ+e/AKv/2KzoH7sNKfcJTwtbZ9D6r/TmOINjkpU9fz4h/8cZTK6QP8lDQq0CIxf8Gv9uObxovWw/89I6wFLcf3YfXe/jZ9FsKetZFmppLwobnyDekQ+tN29dRKf2jIP/vBgBSsGwy5Bu6z1UaqFIviB+SoTqZ75P4YSV+xxqXb3iJoC4W3OFy2fmpe+d59VAs+MaDBquYrZ/+6LazeJyvNh7llk2MbYWAyz66bhivsg4DhTuvnv7iEaKkmIt9+WbcqrXwr+Y+3tGuIz4XiZGVM0e0UmrIalShVw9KQsbRHnMWo5VOT8LUmo5gYkcsC+QNZtXIdvMyTS6cdao9UeN3g8Gb47pq+1IWTasFo9L3qDTmY2lDRl+baCV830xrcpIlUw24p/7g3YLyukXQQuuyHTGK5haS/24dQVT9OaE04fXvYiENbMgxjmOznM6gpuQNDsKDYjpNpFbXnK8EOiPBF7QCL3+yQq+qR6WTJtIWjNyXVyMv0YNksYJzFfCqE46ZTpahtPpy5K0m+oEXhYmhtVQGY2dzlrwnj6AEBnjA8/3LQKKD2SerTtww6oeob7WpuRiWh3qgp8Sh54AJAM66QMZj8A/4mbavlcDmtgfB2Wk7P44t3oaytGWqaBvSUX7i8tq3Kd7k11sbzkNud1XU378UAfIxnGfBDZokeo9om47wumoWAajSIykfwPknz0SgNzYfjP98PMGJ7sk9wtwzlRuf4omEHEEjFcpiSmH783KE2GscF1X5Z1vKnOHzOp9ofnCiNUKrxtht8PjHZdgY783077iEvXMEYwtVSCipVHuFZI8AQmlCrpHR8NwHHBVaAasRSRqlnxItAW2qZSJxp4fqE7ZJKnDI4i/p2tQlMV5Zu3FTMKMfmlmlnJ5FKaKIdUkocbTmrggbdWbseFIjU16KGDvJZ0D2bQgzOwkf5sqpXSnaOhIx5/++5u+EXOh5i3PmmLg+us2O/6mtxuGf6Crp1EuZcKdLYOUVTh5xEeDT3rKZ+HJT/DgSc3ONMFBXK4nbsLIB+CUVm5Ly5uv4OeE1Fm7MRzrpYxMFHwwLtRahRbbA+H4oJ1msFmiYp9/O4OuNPcu2BX3EPokUEI8YxGWv4EaqjtyeYJpZZY/ZLFZQRu2I1iLYZOjAOUctF/qoAjUDwZtVKCsM8D58giahBjJ/X/Em03FNVXilW0+tzYq8YDVOoe7EUHbn6NtuwA91yp7DHuLtVHvOw+Wy7jjAuUDuKbWdO6i46Uh7kKBF5GQb9MSVk6bCNUFGuddSBssRF8/yPDeCmVhITNV7A1t/oFtkW2kJav695DonYbMI3pxl8UkUwLVqqbEybaZtO6NokayYStWVoqK5ABHre7Ns6InARt+DPH1qcqxkkGclih4tm8wDOw8XODg2ARy3WoPwyfL/R2jehusQalFTDKhHGbh/VOD0K1vtYUIRCw+zGbgBtrgO72mVJOA4xC723dMcPbVLDN8v7J8Y47p7S0291moHh/VOIEsm+2nshvNWZqitw7qbVINjBboGszWoile7TpH8uwn4P9EFVy4pgvmFPiVumuUE53zyUKF8JJB2DdXj5Qabd4IvjDzR60O87BBd+W+Qi/tptjFkGaGhrbpyYuU+gr2KCJBWbaBZqyL1wkcT79G/ZVsN7by1tht+tqlP2jC31vjNyJ/HHvNtOtt1YO6/0kHt5XB7LUIuHu7fnQK7OaDNa4rC6SDaLwCcFrUV/tSXsnztjcsF6QEjoS3ipvVe4IBrlMgSWg/Xr7pDamOPsNHzovBXhhy5ZrgpgdnRFZDLfLZdAV0QPbcTidOZANmFXctY7vxNGIqwgpao2tkB5X0PrPNZfbL1hmnKlyfQ8SoZBt+KX5Lp7+h+xI9yLSQdCEnpG3ImEmd8F5xFTZ4Uh1M4rcsneQgMfQWErE/YbUGbmwTPZlFlLAQOC1h1BZRs2ENKp9bfZfdRUoIuOzZnW8My074BmDYMUY8aRKvx8iBD15URVFwJVGtlwbuibnitdkAi+rLeUKrj/mwQQy9XjiMSOM/4VvBA9jEwJGR6aHXKUu4glqwbWx/BB4V8gWnBA962KT+hroolp5gaBt7H+utfpKFJCJfXm1VQ8XaHhl1Vk+Tbaqx4IDQtEhII0a+tNZNEhlGagdXUq5n/g7ZeRl9Lu65Fa4A7wUI45ZmWxP+yM5fEy9QlLuPF8ZgNKjhBWWxo/fVGc5EhF3qfwJ+LBLjzL8NOkDCGGHfjb6XXX/Iz43ysbbbG966/J0C3QKa3efxC6oyrY0NA3CRJSy2S3oXyNXce+5MIJkQCOM0smvNCY30jccrdaLfEL7mL8dD5ymtV9layFv4VPFQ97BZAhxpZFTC1qCu6IsCk6kPgVF0YKWwbiayRM83QYuiJAo/vMOawXOAWcMJUUx7xO02dMZgbi5dau/7J5kA1wE64E0jP+2LE1qLAcYOLLt5Bn3tmalXMrvCEN+V/b0XR3d4NRmPETuW76UiM712b0bbwarc704K3OCg+OBIRqeOzSYLjn+hh+zZDjwqNOv4frw/o6WlH4oIsp1mbx7y8mtEbvg3vYfngE/qBBIQUhM0zTpthkYqkEi+mCb2h1V1VYilYuophVP0hDWxu44fdLfwJgSR6VXy7zP1xhLiyROaA4IvsZhPnFFxcnLtUBQ2K+LzZ4SBMNPZhihHEHXlNsqBqbyRRc/JjTBAgZ2yUk/SQ/TGbi/lYNLLODB/jZ6PW1n0wxM9XvD9BQW7zNuSt8Q038EE0NxqUnYxHb+QathewxGGs1x3kNwZU5uBlgk1lPwHBANuNCs1BvAPBeX9RVIyeTOqkenqtDkMrpoEK1OHLAuPyhmDTOJc83OtKpnIjcf/PMgpQNCGs8TO42o7gPPAYevXiuvTxwVA+Sp+B0tWN+Sh4XLiufW7aLqJu9MyCcJWKk1AplFGYE+6+8XsFe2MCDu6Wm13xbQ+aIiwtZxO/wY6g4tpEUtofhdFFvRfm3YACXfBfGIj8Od8c0oPRKK0Ew62EGxxyxULxhgboPFZrx8np485TJ089Gep7VhStaOiQ+UnJWQpMUK7KXdhJEHGPmMXSXpJdjt83DzqoMU5Vaw7wkSt2XSaumiQN4Bz4DM8GdtXAIiwxBTbkTskoQzDfjxXPJbCRzImCeEmi6wFwmKiBlvu44ojsLTcRWbdhWxo4X8c0kSBvWuEByJfpyGtX57H1N10guoCeVNwIrjGLOiOnfTkx1vSWQb3YkGgIN/nfvX4xmjOx5UC9rvwF1S5jcjovF/KAjtTnr7XElA2usTPPu/IPMG8Ui/xPGNs3J1FsC4Akx8H25z6UXAPXm/2O38trm8qyf/tkrWzt3YVMfwpWeOcg2VLc4jv5E0VLSsSsOZsnU04YeVmkSb4HY/NXtDzm/v28AOuBnb4801Zuwq7I5NpFi8c32jOvyZxdIiMM1k9klrDSD81q7LsD5SeD+DFoSZ0CiM8B4nNZUtFMqc+UVhY+qABeb/vlEnm79L+fjhmjdwajMFW8BSN37MvXb/outLVL5zGFLFt8bybR11uX/XCI969hnKsZQczz5MZV7YqxNDe88PpIatKhAu3Yw/mcf0Iga39bBDS78J8a21CPD2b879ZcNmS5H5DF6WDheDdiEMmcN3qWB1c6pZMa7E4RzWPfZf+3TlhZUIMbZx0VAh02Zqp9wlZvWuoDjZLK4u5PYWLzAfg3UKeA8ZyHA8K3ruat1G91ycS4Sa5G8jN0A9zGUJFgRpbgsgU+YqShiX8qkVFHaiJQdQ+K3W9drjtxk3+TyiIRzEZSx36KPOw0HYeOJYnRnYm/zjKX1wIxI0a1gvDrOOL6E/KaxY0MFrj0NaCBu7lYOLmLpUg3Zox/hzIZx14akeO0b8ZgKMkAStI0vkyiRVAakODLpfkypvRCrwpgfGyCNdpLARR9WkfKpxNBo5HVcy+PIXTl2H43F7KW9L5t4hpqXEbNAcYqhfclIkJ8KWrtVviNnKjEV1+OP02Izax6SB17AawvFzHwpLzWhxHaas0M9XQbupRJ1xAq7aX9fr9jhACt10DuQLO5cvsYWQlrfht06E2evhT5bJp8fWcMfCrKW2BFG4SdU4Lcia3FC+aG2lovAmmrWcP96nDO2JTnYunGagCt5I4xhgPOUIjVYWAdbshVI1vs7DdPEDnn9CtaiFSQqqF/WnG02g9ujB+W+jM7lL6K3MHCilk95GAP44Du8uuUkIxNDEpAZlwwYoDo1D/tF+hjnPzKSuVgWaOiE+c34hcFYk7simDh7Y0wweq7jdslZ5b9gnuUCujEzIBOPf7KnojxRfmnycVYu+BGT8DBnx1Z6Tp0h4QoPSQiaeevXCMTqXdaxQTnI/+m1I/jW9uACjrS97YdNg5duJ7ShAb7FEw75wUIRM8R2NwfxtLfDEmXFP/CemYodOvUWQJKEXaKY2BGQXc7TzBs1VjNPLeoW5kiHPxASp8143H31cLfZsdwpCTA0jJam4Wg6p2GecLw6WIOPBJa6E6Gy6VbmJBNNr4P63YPxR+/hUOXXBogFHmlRtdbNVr1/HSG7GSsP9o99OADqIPlhvcKvdnhDiEVWRdqRSRlhHfTwlqbJiTKdGc3GhrmGhiBUki7PwQg8XrcLP5zhXu05ccXVdHQEfkaab6yd7IJ0PeNXbfLxLJYc3vw115amhrjUMUWUUBjBqJW3gOMcoksBX2n06NnIGX6zC9huNkNN14AkSOi+IAq4GfSBUhkHmpXBwS+UY+ML4Nvx9tiFl786m4DZVQEFD5A9mPJsNBQhZL9vfZJIObj4Jv/NEUK7FayxDLPWSQ+sF77lN+ldSPXCnOJaxvwNC2jepapBPhmWFUNU6Z5BNECn7KlJniFrHvwodLjb+fO1LbQrP9y+g/VlELJHNS97fZ9WH7TKcsLVtWF1Fjv2+XIffjFTQ5E1ih7LesW3USEsjIV0HXf4nmNOTEUDkgwWFHkuB5hoZ7ahUMjRDLH/CZKm+0Vj6qsyPE9/g9hBfMRSgBbx3xjTxoyKz1qiYoiqX40gLCBPtWCB848MjoJK5Tzu/M2H64o05Ero8K6LelSKdOD0yDkNLExb7YUIZxsMlhk5F9+WU8nPx+HJqpZk1eNfjgLdPJaZ6A44RorGjEBqgDSnAiESrvamgyWloW66CXFI6bEsXkUoIgmsR8Qwp3KrD0edsILxbzZCq8iw8oCQkZBvxdSeykQdrqSGTLURStv0fhP/tiHcYuUbfaZXgqloq/ONO1xszTNqTQ/mowW4wR1hvebQWQM9FV+wNnm29XUDLgu2UlW9/ud6fl+dacYolz0NUUtUw8/mZdijQodGUUMTkBtToXseDlsi/fS3KwM0+ZzTBo+wbfAeYu+5nc3Bm+dAdXkONP8f4WC5IicGld9Mc7YSWvv9apJNLEpwE53R7dpUux0hEwcolP+OvIAlsbenUUpf3J0rlOP9x7NepB7c9W+k/9bc2UWPsIFMqsEZL9N4u3op8EXlFaJbvEDWnYCPfwumlTabV0QnM1IInvX5uT5WLRKDf2hxQePB3aY2EEBh6g4qibTvc8l0IgUqIwIwBgPcyJlohYP7AAZDhEHykjq4jQqR5nYuc9ZNX6QZ9JVh4FVq208tiBYU+slh2OnxiTbaWJJS1iSA0Nb6TeDa1Oq5rryDTdLU+Pt11uxvoGbHFtR/6R9ORlrq9DebIDAJE0CSyXF1ektAHDn4cgqzzGVdedbWqJIDpNj3AZxuGhFXWFn8gMGT0IksNPMC5tnhcspuLodX52s+WhOg6t0gwirU+lzD+w22LeYxgm6wtb5kZkqX7ZlDPLnSgiYMKf7nmWKKp0OMxZcB4U5WTNBQHse4HutlJiblF/EM8s9VQCIMPU8MyiY4k1trXBaXkeMfaNYPgC8uUOPMOV4LV2pJa1eg+7OlxJjv1YiEpFfwXTfiWcl1Dqj3yjMnpSyZn6i2e/a1UfiwWbD3ON4Y2+YUlq7WUds8JUfyRavT7ZnBWxa/1yICM4iSoetlJF50OH553JXjHcI/014VzW2/jD7nvMlGsTLZRWxgidEoYdO825lcokm4hFGiG1SnzIGWN1kYeAAOhohpLGNCCYfxWI7pH/3V127yqfF2TG+hwdcMA3DLwCjjGqsYl1aQagU8tifq/4/pWwlGtWaM+RoygLfipGc5xEz4NRXMsyqWfReZDTwiAfxzgQai7+baHGhyegtbNz7WirGRgJQjVCreP3ySDHbOP+ebMOf14ZfBrm5YBt1oDGz/gyRHufy3QoUd11WWSG2kxJAVJSF3aN+9/FvcnmX3kpEL9rC45ShUwkxajPX2zJ9a0xT5BW/cNhV8cJuSv560bfhHPYCOMACjxXTTpc1UnD/nHFnol+cCVD5cpkUntP6zL1WSeJAWy+VK85cOq3Qllbdrtx4U0rnUeOhVBvKcW+MJRgzt+2OoFPYjn+ZXObAQbWC9Tz1hw8sxzpHC6hkMETQ6NIMKnEeIhcKNcbfV/yckUW51SNEOE+mXDdylPgAc9iVSMlqsbN9wffdTSCrGS4n8HwGJIlQf1v0EQiucGuqYFoYemz/RzRifiP2Dl81uyYRZYaayxvd7BQjbpEoZ4b4RORQK74W9xNLIaffK68IQu3M+pvanqMkGJqOeeASUOOhkDuA0EGcU+XaHYrZGn+fim3kHVDjiVWhtB/xJexZN3tJfsjyZUhqX8S0SGzAaC7fbI8v7cqnv2GEbHFGbdosNY/5YgQtlLcvqOfCahsHDcaZJKxPxFV43OfARr5XwqQM5Gh8ltI41xTrTG+eV1z9p2F5sdnz+VC45/8Rs5izZiCr0Pewo4bZpyr4boqSNMolORQfZYSi+YnvPZnUK66LQdBY/TvzWxJ9eqiaN0EEa4BB1ok1KQJf4YV5EhE1QaEqpa5kbq5TMDhDmr4JOXpp7FyQ0W2Ne1H0hl+El+ozn8d+fHiHizWqzvBzj6pjWXniPukkKZuc3NdjlfC6dErK2WFfWQw18sbzaegyYmSPdxdyxhpwOt9LoZTZDJcIKYs71IFbqA06Zt17t3RQe+bvizme+HhPT+rvam74IDlOvRJc68JxXQ5GXhaRdNqFryTon2aKaDNFEkkwVqJgotZyJP29PCkuE4rTJFGUxGAAz0ntcWbLNUgnzLd1LF3hhFgBAey88etykze500z4xamPpGS1VgCzG6DiHHb0jFxaOHpqSp+hPFNCQb6ltZaGbEQ9M70KEXSCYtT1nQXY/LlNzvirqnRaXgoyVknqWw53yHE2gPZj6Lcz8Wdjz+woCV99oaRjU9b49dkV4JV+8R7Bo0GtZKU0lW/YnqJnPzIhT+f6wp3O4BKSc/LlD25NI2FSsp7kCBOAMbSGbn+xsoMFX/o2c1CLnojrs4zwZJ9pt4TEOoaCmbvHSxn2uoEoeQuqneiMi4xXGmVR3dActWw8uJlzWn3LsWj6q3u4k43lw+yd8iugCnFqGEzwp4mdgHFqKC9U2RY8kZTCvkvKjtK9pY1RXGqaoJ20SfT0tUj1PNXT3mT5KL9Y7v2zBxBHbxd8YtC/4rYwfR5SMbGw60VtsDZ3VlPYOeEXDQkiMZuR4kuJmZwFTpVFrtuLqGo41H0u1U9lfatj5KjKeUAyjHJi3dUYr45ehLIDUT9zVML2bwC+OGlXyNcsbTjsYQ5BylhKrmG1+QftwdbKVxDeVodcnF+9ErBzj1g9WDkCNgSPnOF9die8xpo1sxcXFOLBwf1EXGbw7J58Rb4Equ9wMX+3BiW19iwZ13DLk0GnlruA/IdZ8+SmnwZMjUf8BTflkVLiBkPtDt4CzI3ynjzI/R6YDxBN7NtEZPOeWiRmF30DA0dYwAmW+CnrMySeJfuPnQoLhbrTYYS1h2iCFYfxNWo7DAf2zkwq9wMzbPQ/POywYTetBH8/TTKY0rnG1K7l2Qvdt6CPMB7wYuKWyqMKkLgBb+nxK3/jwRx4sthvrMjUGyhjmc+abYi9aNJ2uzjvvi1H+Zi8TQm+iRkNgR7A3wGYzT6zsslf39FLhLhSEUjnRawhI3ShaIUGMOUCRvaIBdOd3rorY/vGkWScURzBc8wlXatjPgEKLk+jf/WQJc/Uk4xUBdqoLHL8pem595NMKTPSe0wJP6O9w630gwT2wQ94R+Rrmt3t7XrptAcyc9vYqYK3yO1aZwd1FDZHf3TMJuvZMxwqF9/h3SKoIZrXjS70JY9Cb0fqcf0A0twlNNTFlpKvMyN3WB8wXwSsElxSVXuwka7x/JAb+SOx0cKoWeaoZeHZWQPfQPkFHtPr+F8RmOXD1vuNtHUctC/h22NMdshBVdPjbat99xrTGIO2+COkJ2nXw1cbZSy1pCM0RolDVdQKLydZnAYlu5J4TWQi18Us6S+9IBRXhiDWU3dINFNizfcP8nywNGYfDIG/rKr0gCF0JILM+j4zqI5XI83TSmX9aOJFp6bGTE/Taw5nqQRZV7Bg26X3JDdUfVhcAbHXyZrGb26GkQhs4xxktZASZhnbpC8HG1S74+f7Dm16OXepxezMbsdig6HlUJD6OIb2HMGKhHwWdqJ4rjU4N9DYmIsaxlJzK4FNq1/BJ5HjTfG7WKrhtqxC8XV10BY4HhI7ZuidPYBUsO2nzU1BnpHPFn3sge1yGxhE4ldodJ9uS+GAFMtX2ZUh+ZcOjcv/+6piddwZsDhvH8NDjaYDkxQSdJREo+u0qv2u6XnE4Ag0tSdI+xst+z2u1wgr7ZT1hBUZvOIYispUMMhyf1LudX/HWKyl05h/qjztv2Zaft6VuJbYdkwmfs9EQX6hmnGstE4LucouhRjrBQW5ld1ToFnvZ1oSuhqVWeq9fR8VlURXfh7O1ezXh2lmcKeOJEOiX09SgRCuaMnmGESSuX601TZcFZhxcGX645zm9EyVR9WwOT66+JcAQwxKQwY3/Bsbk5bSIi/wOchBGXASnBOiUTDMIkB0Uq179uTH1euI+ZDz6MNFWsWFsziMIaYducs/bAmZbUwzUhTmuO7n7YWSPw6oAaDzBHBWMlOnM/anpgOO/gplM4mCYZ/zHCaa1xL3Vk7lhUI0uWfY1T+ZNU+aXblGMHM8kl3FP3r/eMoj2qxpHJkLacbDYp7hZe0KmJFjGau5NkgLRMdsEpDYi+9qCbmhs9Jki7qJFihM8kdi0g+3CU0ndvEzYhmS00sF29HQuQ915WO4qP7OcZYMDNXsINXIXQlyzBCxS3sS/17/SZ6B0oMTIh16SILytjwCaa/xVCkdCqOFeK9rSALGMKhom6wq5EgZIldT74lOFSS/OQxRAcfhWopYgP9SVQ5XLmqDc45M0I+tQtDVCLldRTCWkK6umy5CFcKSmLr6N3hX18JyyWJiCdzirQab5UW+D8CiZ6mpSL/DWJLHBNTDvVF9ZdIvydSO6dm+uvdoZGctSvU8KEoJ/e85qzRmc5AqqbbOAl8f56VL1T6PDekGruelv7paKh6Y4hR0vK4de6mBQSKmqfDOHEmWTNU6Ed7sasTJjSPYtdzGT+ZYpm/7otlCcgqT1PWUrKNyOdjEuy0u517TITEDLIyiBgQbKOE40yibC7tQm74ER/W9ECPPVrqbpvimYLzRYnhaADtSr1913zz/OhXckz0lH3ff14jy1rKQhVhjY0WdDW80u09686yxd+sbnNjzIsXuQE/nIx4k0Smti2sNM1i8dPDqfuwkZC0OjU4NpoOq0nX2bIZVlJhmEIm2XxQQOuHrbmagpKdYw+9hZ7A+0ot/bNlygU7GnHBhnpsSbb0b/cwDF18h/5T6uvJyy7F6eVv9p8owAAFIP33+NDngSfgCUMz24XJR0ew/9bbkswCj4/7boIY0MPo63j7OFegJeeSAYNBYXAXYvuOwGrJuFW/dfkOx03hX99SvXQmJTT0Aj9V+ID6xF2LKmvmTHWjploNuCVdxXtCjiXxF2Sdo6ew/PCWUwiQTyH4JwDeZYkbSjlGmVx2NzokY8PG5CEl1EHIla9bcNlyFLsJNUO5wBWvBA6RKwR1fNHxUoPThk8fdn2ac6DjLQPAJByaCEpamhJenRnUyxCKWdwwVMvmj3CwR5AZMHSI68leKYsv/ig5DsUYeFPAh5mRaZDf+/vFvOZzGWKIznw+vuvS20E4H+0cSSxrSCmHMkceVfoe5r2HBnfjd0MO/ueX1sr1Hf52cDA7gf7Opa5O84ojdqZrq7CaiGIc8OQMV7+RpXqsKABzRDzmIMX5YHJd1fu8Cj64JXIE9Ec/JBm7Jeh+iuSUuYNAZ7ihUiJoZo50W+tfNoiFO7TEJpEQtmSliapHaqdR1Rj8lOwhf6SD1xtpT/VMlmUmfyVrJidfYXaO+Ie9SZUDo+YY4WL1Yqk7kiCav3jV3knM1Bye6JuJeSvNsPJL5acY0czL8pijjCBxPzCgGKR0uiATs8+xEBF8aVLktzFBx+qXTc/yKX+KtUvqwFMuwUgFuVAqSkIK5npAIyv22TpgS32olVxS7BEGv9eRGpL52n/v4oVMcoBUyk6Jkro42xoLWKn5lQvIMdDupjrvDRGQzlMnTRVLJKS4xztOJy7vjAFr3bOJSEScrzpOGOwZ6U1DwFKpWEUys+dAs0bHtLqaPW2x/VzZoPa5Hpvv+qwhjwnHwUzLdHGYuj62/vFPYX6fK/dDvv4sjqZLsgb6Dxkq6Z+AKcvLcxFr9KYwKEylmatMntDCuj07nGQJpZ2vI9Tm6MmprwgsGN4klL0+vyAOUHy1RygfkXOMTHrdd65UrUmj4VaUuo2WPif3kF6c73vrGcCvo8z0yo070F22MqQu9vmR8SImWzLGw6A6GWhxu1rdi68bgjY7cMYFFyPOKpkSMs5Aj5MLN39CifblQZvtDGy4OBtJfiGDLzMaIQY4xji+K2Hx31A9VXGtK1MGDfc1SN+d+UF1E8Kf9SiBURbu5tF6SFMvJ8t3QvJjThCXi8bSJotgvByolRNKWT+4BFlvPx27fDwLzf8bcuqv+HcGTz4vrQZeG4cKCpLZLZu2JhzVYsvW0ZJiLYdXZgwHYTOKyXlWCq/bh6AzP8gD/QtU7kfnQfo/BuHPQp81LvZxYG7WlV7iqalQycz+KOCIg9pT745QoVaoZ3Zr/OXRf4DakX64oO9VzzHp9FkNKO5qlVzGMuPAuCbsEVnUVU85/KTHqovFTNB7yd6s07jztKbTbXLlz/waFXpro14QDFr+uxheqsjBdFDQLDyp/+vCcmGPmK0u+uoJzuxqm/Fi7Nj7HrVaDDmXEsdCmpSaWO8XSyoacMXwRaf2rt69nkoiHjX3SHDVsWAEvwUf4F5VrAxeaBKPtlXYP2j1rTz0Ox/PcGLgMWpmx6E/M+zb5ObhCbLWpk2XtUf4ec29boq7s+9Z79zxsuNvP7B8ONzTnBu9+6ztwy6t7iJgSAKILyAwujPgHHSNbxEgOHynOChWq0UaEL4mECHmX6z2PdtDvV8q/Eyosp8q/sGmcegX7XVtOV7KPimD/Ry/WIBRzL0DJjYtAP6qrIIVNBI4MiHuK+k3yahYo0NmJKQNaA47Cvq36ezeSWLnWl/kWvC7Sy5OolSoT2ds9D2stuo2zp1w60ofMgleWOjBOsh7H0u1Bd0EJc35293wzp8aRmnyGnzQcEA/xMQUDn2ePNvf6+2UGxRFosEcx6lHmJXL3b5CKOakIOVXumjTOh44eiNGZyggxLxy6jf1zrLeRVnK1nTlcQyH9HytHrsESUEFFypxPMuCrc5iSxVgrAACF5Df4KtqNpvJGLFfgeJgHYq9lOq7Pomf92lxSRDInGTUn+Vmhm5Na9kxdFvZ5+3DUz53pmAyq84vbPg5LLtReZmRDDv5td3fZZhZGiziw8tJc4yNPlhBW/6jQilRxMT36U8y78att6RvCK4BtE0wYUALOI6mqB7FpWJ2oaKE34YuqcomS4SPH4Pkg/1FwTsZcWQko7lihDToZSYOivXwwgr+jm9A7xYR0MXZbngR1sI+v6aE0J4wganhDB+CoQ59R/ajH0vtd/rJICHYAYWkpWsVhZ9khC195xkItZofoELYPBt15T3Nd3pEg47xwMgjuTMBItESnE/qvsWeeo8/nSerRRqiJCjLRZnxXpQYyzFiIKYz0ceq0oeSH1wvOls/Mj40/3wqAq3l+tzEYIkVtxDZnHZflpMlcAjr3rEKc/J5FMleUgyigBbnDtpanOf59pxinqemx1FhWbCaQWam2NqoGzfsAa4Tqmp+Z1sqKvI1/41qSKu1YAaOIJOnovOMpREOLi2hT1anp0vLy7i6imuSEsylZNYcSeHYuM6TraIv+DZCLuSUyfp1JHU8p72NoB8ggUXk1Ukor9DkY1siZKqzmHt9ls0PTEqXRyOx1lN04kW5B6h4r+x7EjqHycrgqtNEsJtnuRhiMh6Vr5wTqKZWbe0MSqsrfbIgRU2j4M7WXkIexI9Ck6T2UpTyttslMnaVyAcKki6ynWws5JjbsuwuDC1bDBGu2SSLI1HkEg6tVyxU0CsDdcNMqo1SMK9NKS798Wa5Q8a60j1qf55dxlmmc1GNKjOqe9dUbbKJcmxRIBIHElhwWnlowvz0aGB7T2aE6F4HdWBuxK+EIdinmFyS2bhLhNfHsNTfb9HKzdro7KHGoJr118m8vPRzWpuDHAO4rAXvJVXC+M69AtOY000zdIcSC+7PEceWuF2jyxl0+O3iaF2ghBb8ShMxWqBUxYlcv4BZ7aJaHUlsv7VX6wf+pr4n4PQCSqwbuOE01e39pE1E0Y/6NRY/MpMz94v9apUzvvAtVccYL1wKmph+FKRzRyS8Z8oo2/CelqrfKmxwFRDAqf7vPw1urqsyd+rsBwHRfO3yCx4FPv9EOMtxvuvTQ7khzQAFylYpT484oeP2yAzFIOW1ldvgbhJfB28MbIN19FHkxHUq4SJpwm1kvpB9rs9Ewqg+KjLNm6znS9+9mzvQHXoavmxWaPBxiuEdQDtDoaNRGW2aEffWjMwtZYyIGN/DldvowIWqEX6Jgt3Nl9Ayl+kWs2bqmPwZs5ZiejErMua6VjpSTVnHGOcvOijlVZWRlwV0Xot8E3+C3iQKIgFlhHOtJgk0y5GBfoOgUoZ31nuchFwYMHe8WoglmZK8ACNY3wDaIRmVkPmG/6Ln4bzMiIMDtJmICvQsFeo5A526wIg5MeEzsoldM0OyBL2WUparFFbYT8l67Ao0L1R5GJnpnJ4xUirASG3dSU+Dfa0pltnhw6Zf4gaIau4I38MGGK6EvqFszTV2CuQJBNPvtwcaRDQCbr9Mp8zYk1ELXbXzS7wB5kgX3o64a9NZV7q6htTlbZfFXr3sIMSJKLhiDFT4/uY6fHDBr9Smvg5t+1ioszwaif7RheEUYZS/qyd4XxNrYHvzRfLhv/09UW7f96i2p5G0pyS5MpTQoBrbtFmRWJNK1jkJsMf/ieufUmnbnzE2xi1Tqd3R2A+lvoM3/x6M9+NQWUi33J1gTE61QZEP90edeabJIWZVRdOiqCYqBoI2D8yVh12WDK40oGwgcVjz5nUni+nDlnKyCdQ2ADBgD6nydvJl/ZbWOXcGDDQn2DIoDQBn32ARcnSF3WAqf42hg9jJCKKD6RQR7iBKdp9ye8SoQu1A1zvqCPlpRCP+Zk/3EFENwseJkBynv2w/1BK84RAIRdhr/HTaluLT+7hnSwyFRQMfSCdnGU1nQZfPvjtnfxJml0fsNAfy3fRZ7FF7vZpBIhWNoeV8qgkDLSwyJJQtPmga6OfyBrqXafOgxaJD52d3k4zBcAlt5Qzc3F7Wc9R1+o5jzlDh20r90X5zdbiPCFoXknIhXgT/PwZ2vp1DBqzwjUiEhdQqGLe7dcnkA247YBi/gWc8UfJ0fvZfiW2zmOHN6jfGDVOiMOSPF7zNadm5ahWg1YCTfrUL65ctQyIUlenT5268wA1/XvmdmuSK3wd/R9FK9y506ULoafNnboFSJqDTj56u8FNeudEMdzJa/GMcWp0VO61IKWpxQnSzEd8ptC+GP45G8BuidjnIJSHsrAQSdry8mXR1ObYvOuI0VyysZ4QYqW1ekDqUStYfoMtqIa7lYkSjDTwYX/SNHmMVNYf20JdUb89kIQ+xDKp4Nvp5THgJCe1NqtM0ZcZla9ASfPhMJ6Wj0tYHUcuEjlUlKarxIEaPa8+z6W+hKHz7d/8cVZejWGcvZvCUAZVE5dVUvvl/14Dty9SphJ85melpYesVD+ynAqBIkPHfqRZQ2J8CBTwS3y+wj8xroYu/fmG2JfHdGq7qsC9m+K14qr9bZ8WcMU+PVi+qJlFUMYQgjH2lS6TdfWmhyOOsewN13bqRrbLVwieqdZqqurXdybBfhSPxWJhr4QPVUuL/gv9QE29HnFDC94avqYjJK5KWyG35QDpNGpbnfQLMIMa/dc1r+gkU+psjksH3NxUkJJXFPoG4thlDu4NmEjkdmjEPmbwpFbY1sgM88rU7FZdMO2Bjw9i3urmMedbxuhkSwp5QQTTXrv0wS5/U+/wuKLJiVUST66e1NVWiV809BdL2NLHI57L+nKvLkSXZMFLVaSVjtNm884L80XUnv04jJDKVuoiVVSIgdH+aWkIUCswvbJ0DS8uY8RP0fjmsY2IjV3U82PCnF8BXOFJ18A5f2Q+Nz5huX0ueZxtvTeNmpoO8+R9o33LMKeNQp9/bhSDJDC9G03n99yaHLm5jg9KpOkJOeqBLJyzrDZ+YZ1CyXGKY8CLogjsKbAZwbhl5/lWIQmMjUA3iBXVrYccIYiJEFZrRhrI8MFKRcKqiEW1CkZNNYItKVdRwqjvaTmP20BZV6lGOiBrp4rz1vMqayO62IbXIYtg5FUxiksJHK0f7tXxme/4xpi0VdnoOJL6ZYmqeZeLNCYTBvGmkKgUrynTxzQiUPDfimfxtQgQ9eisIHNkyJ2VvP9bmr34ixHe8DcJhwMR0DzSoxNPIrhuNe7Su9zIz06B5mJTi/CLl2fnieks8X0qLlqghAqLS1d6Yfq1+8LCCJznAAX+Vnn76+ZlTLEsPTvijUV0Rw5/9E4JzVUfkBsRd3XjPcmCrliKDk5kA+zV29bxJW0vjGT/MA1pMl6+4yGXnU7x4y96XnGqtf0+SVcmbPV/fbaxQE+tHGgJq0oIJyD8qPSzp2GceFuXtZ4JoI3QVI25G5MmXMFX89878Nist3z5PYIs2ikbORNNeMBhHXwFCoL+P08cJn6Aki+YII4ht7cx3jK6vQjkuVvZyo9izi4IZCHhVFEXD2Iy+SKbYROU3GJNKXWDP1K14gKl6GKaBvjMYZJZJ7u7vFqO6UjgCWzp/r7fp592yrIXl4PkSkYos5pBS1EyHwopSVjs0hFuw2tPovTJUn5rhKJPfKtbzIQHtL4UalW4PQNTOE8Ea4XJ7rASeMvG9TpyQsowD5+h2r2gXpRW3kI1HHwpnDKmPzJTy26Wm7O/pBD4Z7mJL9J+Hj2I7flh5uLCYfoHi8xFVQR4eC4sFxFDIT1pAEgsigccltc/rku/kZUybt9TjiycVEbEOGKts1ywDk4FjyBHWPJceTIPy4OJngSBAdLRAGD/hF7aSIk20TVdIIB1jjel/yOTCdgBGu8Ac5ZB1Do6Xz+tk1PqO+4QxI/h23/hGcXOLKDTZRiDWFRjU1AaTiqF6kssXhlzcz27vSmHEXOn8fJdqOGA81UJQPvRZQ1xg/PJJcR9AZ4XxV/1g5ZEbkRruDdBi0PGu5z/udUTW3EKcv/Pcu88g1k1acMtPIRZnimNtKgyXVIoxlJuQzI8QKdFUmDw00HBE5JU50b9Lu7OJDvRXbQUeuhTtO749Txm9ZWpq17M8GB3c2ZsPUWeUc1Ft/IzM7gmVIpshiaJScO5fZFnhdIiNGQEjmugtTQCb+eKdVPWm9EylEMKXsxm+HaazMNbLf8MzD51AwNF71n6caB6JNER7cQwu2itWTJKWzgQaH6y07Y0dY4PoEpug0TEDmkAae6mnDCVSgScsbJFK0IMelBMBgIFMu9sUxb5NxsV05hf/p1rTd8AblrP2hfI8MitJhHg1qKpN5m0Ys8vVRD9hxvTet5bm22maFd9Ei9+UjQ5GKFhDpspO9C7e5zeHwU3Wy4shK9gelLuNF2oPVEpZqDWGNK4u3H7+oG1xiXM1yIOE8e9jSxCvqhdDhOjUUIt7IYA1KOHNieWI9keJu+TFfErYL5ccv4RExRQPrD40lh3pIiPh6LUn0+ik3TpwbGqk/5joTu+cgLS/q0fvtIPZVPV0cr6j3MlIemGivUx1xaVTBK35uONUQNw6xxdCKaTD8WtQaY26oFAnl/XJQAj5LtmI7ENJPeScUoXOLqerGHPz5E7gS5+yEFwMqIDXfo2w40nuVw7B+0Ml/me4JpPhOImQ8+2kSUE1VUdGJkAC+SNpf1ImqhhZhAc1TpHyuiAf0QVAAs9Ks+tZ9zbrbLJg1EteUkyfemqlsk4YQAZN+PmXUt65LEIzwPGPszkcXbRporph6+XY49clWbBrUDfcNXjS2YGuUqXuO4bkcJMfWUL07uYeL/aIlbHACKPGyOshn3PwYYcn/Ra2/vQltDIicOAbOeq07nHnAgIFQsUrXYfPKn7uKgyhhXUDLU6IFujOLmgvj5ZnU73ZOIlO2pIWTHTeR38Oif+8w1l/lyl2lWRol6v8Fv3dGJp/XXd47nI/U09TBWJCbnk+dyJiBVybAXxKD0cch3EsKWiYqw4CpR6DETg0FXsg/vp6LGql4M+z05LKortzizm8yQFDhE/WjpTnc6IpUOaB31ifbmxXfycqi/MvZgrT4S3C8eCtXMwMr01Ml6Z/Q5UqM+tpGhEDL9vUmbOq0JrMRmVeAxQkkVbmariLP2XmHQVojBMl4e14XGunQfVp5Wc5pER+kG933mdHb74kjt72qiie83tFMhjvtXzyFbhtxYHM+aZBk9BIjkwGfVCF0ugKCFCsTeHCemucc+z0TNkHg1gIQdKzrhRWGVg7ET2oTW6Ardy2SCp6ighHXexYqGMfp9Jb/EDoBSIfc9Ynlip3tvTlBrh8uNcEZ7cI+1ujMkgHVFX4lLCWCEIP4h8riPOgNrzyM88zaGM6dzpVj53xBVtg+K1YEdNLntyyCSdrZrGwbGFmg7itusQOWiS0Sf5fH0xl6NpkHfb5aiJ05YaFxECcoqOuYNL0sUHioNUqP7newYjsdZOURyICd7gqDLlTa9NaV/3ynZwqEoPb9ot1kLPQpdlc0ZvHYzx7FUbEOLB3b8LsJxIN4+43kUeYefqMWLR2mOvZRRJAJrUV20jBYEqNvufRxuumLa/mN1MlPjM+4nfCxU65qbzcny75YH6jDTfaJrzXFxF509d1/64qztIZrutuhPxdbO7WY+VK8dpT9lVF9s+NCn2knGNC1TqkoraR6u0cbr4DS9n3gt7f4LJZ53ZC9GsSgslV3gn6GSFqp6s8mRWdYdUiKaKH+xWAYMzHGcwn25zufSszWflIsZOnXkEZ/FY8B3/sJgIsYbw6Hxva73HmlRK4vipYcEtgdv+xgUX8BXvVxpi1cFv+VxX5mrbf7Xc6X3dFY/YhM5qiH1e7XDUXsVyUMEXIrIpS0xruxS3qxtdLiIM/XJq5wocLiUV4z7jSLSbqFAU4Ztdk0cxZ4+FkPKSJTUTMw7GMI2J0uvJ2v4LfacH2yQQxPYzjCj2TH4i+Go5kvpbnfVWgSRg3DL7Laq1sbrz3xtcWDYq2sX3G3Jnv5NdM1gi3cWKk3HRwnryhvCYCnLsJn+H4ACmUhq8yj774HTP0zZaJGZnA6YmNkFefuZ7x5emJi9iKE0s7FX+NlMBGTVyg1Rq9MrIf9hp0wAnsQS0ZhdNN6HDx9vnhiSz/DZHdPUXZkt2Vtg8N6ptSBdim2SIRDO6yPrtv1nWgycdWCzveD6U4pL3lln1fNiBt9OW1t6+XyZQzYYeX7dN8SijklI7EerXbJ0BunD4toALUwSkJkK1uNmGWPf2JLRQJvJzx+E8+8YsSrvQ+Mnu15Xki0bhSvpAh1Q+9MDMD03+gabR9ApZy0ho40yv4SOOngujKvyV4kELiYZK61WY97nyaawHjcXkMOZvo+aKN8/UZMv6lvbGyPi3+sIGsNMVPIedOB79QjsQvfY/gUVzZOTWQhKjU8VCLk2Qz3KEpM7WXbMImDu/T6LeyzjobAMJ95Y3yCXZac6h9LF6GOBj8lcmP7JoUsqacBLspQFu92TNQFIRw+TN8W10opOv8zYrqotjvS1n/+U1VO673lxq0x2PpYIx9zcWUzTC4ZrGz6zwF4BMDa++j9fVVflN4ILbT57blOhBwEbGPSdxts07E3SAI44sbjSmHRsS1t1hKrKrJ8Hcs0t79J1Y+zXuFW8TKAuPa2jaG4Qq4KaDB/KCsXdyp/Xmi83m0eoTFxRQaapdZlgZctX5tHfC96ep991k4Iq4Dxakh8G7Kvez3K/KYss6yWPIVZ6CRmi56XO4SSUii1F6JR1FMa4eUI2dlnF2/3aF1oQZUPRF7IR10q7L1UJjh+1W+qU2AvbPhFkYbvYWmu0zwMtMnDVbAsUtxwYCYeRjISHhsERGZ+HOuab0fi0+GFcfSxOCF9nJ4J8wnBHQXTSTyVCdBjTrUdZx23SP346wIRVxctJ1cMW8SkZdZLHXfGqzn9qGLy65y6MOpTB/IBI9dyYBEXQslMfnOO9Bxo/AHqsIlIo1UrjroIqX8sE3/bmezdlEGFnPsPaKO21Kl5hd4Qd2Sb1RWopNSbCDk0nx3UHf5wMwcMNLTQVHtOJyku9IS4T+m66XoPlQzWNJdFmm4IXccP+a0yg63L0EDK0ZnndeKTOfwLJqWowmLrFzRsYDRqg9ouzozzwLy6rDHz5qVaRUXCM/yx6H4tz6nff9LshW4dgTGCLRhjYHnZIpXUTnoqYuzY+2we5Lp2A0RSHtJYxUOCN/J1SSWzXgFTL2/FVMbfWlTgEY8+9ABCWmlrqlLqKYgJNSpb21IhMkQdkgZNYGh7N5beldfgULATeHqlR84k4ApSsSIPvbuOakfvVb6uaL/9cvOTivvpkpwcIrCXvKeh+MHeYlhBGffba6M9fW8hCWisDFDBARuPKpJEzlBpzxo+JaO2Lqyk9b+nUXN6Dc0nVgo186jsHuL/gjqq4uyaJ/vBxSnfaMPpQ1N2nStq64RugR64TsU151Pv/RvukQ00P5PwrvOskFECka2Jb4s8n+h6aFLNPL5VZeIRssbArs0IuNtyK0iZ/rVtEiU83tcKqwxHfemetD2Bk+yfmOwDWjLOi79IXPSUgtGw/r4ppOi/HrqEaXlyiNcyf18NaF4KCUDr+6zjjHdF70jrtLlX5bLnr98zzjwwYmqzXHyZTlF3srDvz5+nWcU2z0VTWABJgapfxuG3taFCmf8hRY4bHixRkXjVNEad00iASY8vZkBEItfCO+G44YjpLqcFkrsm7hoQQ5ATqRR/qeSD8qJZMLDNeUyZ4m8NQmiJ5j7ZNs0Bvryb6irsdE8a3L9kNqKY5mvLDg1rWyweKoTqzLFF/KF3aBlhCtkiVISJySnVJ6pu5mgsTmkURodfVz0p7pS2BuNU8sieA2Cr8XAvbjDAPZziALsiP1bwlGFmPXyGacYMZ68o7Ke22ZJ3WHypTMN4L14zkshymay+zCmPJDaH7Zhf6SYXx1+b3KovBE3ImYJ8mzQ9mLkN2TimtBhrYxiwf5V6wTExtsZekBeqrJPRYC/z6lbyTJa2ycZ90FuywcPWE7sisqLWVVorEdiEL7skiWPadgfDVOyi7flgkpzCs6s8JCoPIT8io7+p0+raQSxx1ywvNOucivoprmSZ5gLfsb4mFYkwYDiarSnrJq0rKxCogVfpx0PJhNE6PjB9qRPiYk/Q5YeCGIvgA33CGkEWcI8nebE1N8QluRqMdRdNZSOzyCVHuN3JSsP6u2vmizEqArlKRzLEw5ABuR9nKUELtzllLSobaho93/XDEDOKnWnONSWPXsR4JAGE9lT/f9fBr97we01K7HK4ZB76Vn+FyyPdKImk15O+H469vZTmiMlE4PXej4IJj27dJa/efEJK/RrnJWYC83lr7updGNQjRAuBxClNrUpmTN1R1QgZjhgltNjMPAqi+TpbI+oE1/vNKNTJPEJ29Ngy+F6oZQATWx1aP1svDA1nmExmYBqdEGxJrNuIupLDc5is29Og3Hlg1eUg/aGNIT/ep179xtE7kxEz7A0RY3OdbPdhzxNskmUnlKQfzRXsqsK5xmKhVjn+RPPqpkwNw8NeHi/fGJWN9AA9wD0+ZAo/zpRTlCEtFrqpITE1NjCcagThrH8lihGLPMUz4IXTMK33+ITwKmuPgF1oT8oNTlTXzw2OGxXM5HDHH3LycDUMIH5ibH2TQnJqOnc4iIErWvI6Pyydl4kw9pPJxkI7oETdMNmc/k8hOluDOQ4SA3abHP9VRPs+eyUGfYitQ7Qg1QOH7JkLAgNwsIliuoiH7hZepG+bRiOCO0UyosjTYpFPsbXR2kmhBLNTx510jYNSRKYgQRXUFwA+h652Vqy2cdT6ZfXi28QhiFyM5WAkl1PR1nPD+qcgbk0GtQRMctzXUtmGz/MclmGuRX3rI0NX1Yl4ZimYHd0i6aiNlDAedjxu/w05m4OrXCIk/1XOBtomBWSowrfhZf7OBqjdL4xh4m+kkuAVetmYUTbh9OcUrJWVd+lvyzhmMKg6YZGL9BLE1+aQb4pVELG661te3ulMY3edYs5wO1jHPGJqWYg9mmYlSbdxcC6GvBQJizFKpYvvT6xYCdSIQJ6QXlwqrfgz8FLD64XfNtPlYJ5+31yyZ1rZ5e+PZF6uOJMah3XP+hu8oSDEcPTlt+DBxcY/ZEHKMkekehcmg0crX0cFAg9KyBW+AI//MfAh/DEFPPJkkhXMDzVDQSxAOH5pOZAFcitDGbH5hC/MRNbbPFS/qnBZbBYdE7o+ccavIa5pFRvQw7TD+C90m0dTrEV6NG8X5AuDFt84Fnmxlhu2/mlg3QJY4GD6QPGPLCtizyyTdgkVramAbXNJDzDX7tWiXoXTu1R3zMTD9jmUE9MUzMPAttpsFgwGFSVUf53uncO3R/PBY4HEY0TgUI/pI7PxBxlhh8XOM9iwcx52FMqPGW1EvH/yfNFbEuF4KQY5bqt9RJfx6JzfwXjmFusf4oBIN8n7v3etNFDiGEtP+hv2qHsroi7R4+h06b9giljA+X1ivlikjs2cKw+uY1IHDsx6pf4U144Ix7oB+S3YnERgHQIsJT1D33dSVhXV0309urJk0505lt3+pqu2kJUpfAZami34JzT2wQvEzFALy1SgSEBqxisEy5lG+yRg0+exbmfYPXJ3pDf09sl10zH8Wh3dsJhdGcJJ6NLqlN/x9YIz66lBzXZ+kQXWpW/CH6KX18qbA4Cyxkknu9HHf9CeSMUuUXimOQqR1q3BTpRf+66sZ3JGEgaqhtrtmOYy/A+2f/a5i+RDk/9LxJ5aZ4O18gf/MamdR94nV/+6hKkzf6kH00CYaThQVvpsK3R0nr1sw+u/q4tDyMXFBZTAz2UUeLl9F2+cA2Wgt2N9KtNYmD0TESfXx718AOXMyixyZopeCQxj2ufzOMNdXRM+IHuX8Xd04Mv+Zg9R2Sn8h/M1qfXxd6TZ/aDsw0q2Bse6xrgXJpW9AaFznE4K05ox4cQ5+PAVsDGCFbURdqPNFRxiU+poX9z4di4Pu2oGm2NFstW9Aa2d/m0rP1Q4OEG7zMH7HQmUNIKq4MuXcLVLOkhKGbfo4CKMOnqZ++3BkcWg3/u7wodzy9Cgvy19Mf2xgNLxbh7Y5E2xC8GKkUyfITcd1Q/Kr/lPsgRLXwYYXHB2cQ7Qvnz38un0G+Wc65ksvwxZxnP0//cSIFnIb8aY3lIXYwMMWO2f+dCd5POBf9kfs5kIEYsUlbvCnG50C7Q94adaxkiBfdo4bFF8Rr49nglFEL04zYOmUeRUtskiTnXhLdp+mRYOCYbSS0GV1LkkrHPeEbcsBWi3KxuVZmJuDxawIpamPaqYRzygyIqNpaVn0r59giZml5y5Qn1Zw8MZpx13Ay9+9AfH8ypeejgQ10e9fOq/fxL29c5JeLNh5r4nzfmtm39j5Ly2EuH70AHbdKDberE++t5kwtkUm4pnUCafTdxI80LvLNakTQ0tBLMjPDXGPuDwNMLDICauVyCjJaEcEpUqlCSg0pOMf6BDunhCAVfj2iauYzbovhhwFdTkbJQ7/WuP2tgw52/kFJ7ybkL7rZwoNbstBwtAsLJQ6pjvUSXp0L+ZEFsj8ywIYNsWkdfw5NMVrJjxPK78bG1SnrODwZu5VBZWsHO1EY4VObWeA26c/aI2Az+6f84wM7yp6NRpDlTPGpHnKdaWSqwzSR62QnytZ22PhEYS9VyYLeJ14YdDGuAOwLjd/GU10+geTAAC+JyyCY+KAqXnPmGXTHz/5ld1rZ6Ci/U6LCpB5QAvSnFXdLkIJObXyJ9XvwcMRDOPf+k+daB5LyNs1GIsgtXYjQTnR47puPMcLU9+bxKWcD379bbe2Kc1jqb+VBiqrIylTrz3WtStKUbCNQRbyT0+qEUFo83LkEAY23SM6iG4cZeyt38/IL56Mz5pULB63TmNINlljI/EovGG7HgMJBdW+0IvAZuGnWEhRevRq0PYzaj5b7EX5jmrLB5+on/DXmNR/XxTfW6xv7//9Cxfu6GAqNVfI8PxZKAPoCKyicxw+s7BonLjNpncoAshjhVnXXnB60kK6I0xjZq+LM7h/muanIfk3DHN0sI3U5DJjGJwD0IWN6ASa7IPvKqRMMy1xaMNCGqxdU+6UWkI7SsiYfD5ST7n1Ip2fh0CUoidYFHlcZaP1G4XPfoJ+8LewI7CI0KnWcp5ElZlk5CnYxT6GlyVYE79/D/Q4e5gc0l6ufJ+pPvheL1T3DGwJnoN7NmrpOwMlpJ1XiIQGrDU4ltzUFksie9+Ui/zKDdnPk6x6G1yRwrgNaqKFXRgcrw04QbvAIrGQlstjiq28Forj5DYcnsUUVIptYVcFRt03HPXJGuIW3fVuSlLD4On8M2bxS6STQPrsP1eVfnLjoLYqQP2gzOuRggPsDLnGyWiRVJ6OdKCcvGIBNtrlHXsPI07NlcuMIeek/FdnIJZnQcXKRl8Mtw8AC3snwB8J4dHTb2jN0/ft2cuxHNX3lmrYug2xncgG9BYee49HPXFPHBU18P1mM0hWjAo8k6BeNYhdHZHtpvEV4uS3o2S2kIFIoLjuZjzzYNZl2PbhTQGxK0d6ftShfQWm8J+h70ss+lisWhqOe1HeVmh6OZ5fkS0rXuQvfISPYZzl5BrVnXmHFxLdE+LUa9La6BV+4Ev2MFGHaLSVz18FHbsLUd8YN/x1q8YYbyjjzddA8XAST3nqqvarx5jOHd11EkFGZ+JOsZNK+2So2wV7951rbtbXzYJXftJVBSFxh3Af8asZj9IjjHPH++5jNhXu5N+j9Wn9TZSrWHXjtJd+3Tk9mWbM3mxL90FL/IMgsLX7w5VVjfXsDTR1l1g9MCm08HC43Q8mYQ2NNiKHEf+urp48vXEl9rR2yHaojk9keHQ8/waqDflzhe8b6P8ac346C7Jq9uDiTxai/lFxp23wHY2U9MOD+1LwqjVg+s2POKRiJqB30VCCGI7MQjsCW+X56CNp4FZN6zl59h/v7cgyx9krg8UVz2l9DTMs1qnuzfQN30gG8W/6jG7d4yMQ96WXcR9i921t9W9HAYLHaGoYob/Pf1nFWvM4Cyjyz4nVjZKB945p5s9B1um8iCEFGKL/NUGIw4jKsnvNY0eJ6rku7/CoTIvl883g7lvaKnEWZpD3hyoty14kBZxWB5Dwbobom1DejKFTM8qVqpODSmOgbj7gC9R3/DiT9JFI+M1Ji4/1kq7wHhxdu9w+uqFm6pcZgx1FnCg3VCFhWmvC2M5DjGJe3dAjL8rr45pCfqXcimQsS6vz4b4yFGFl8JPGA5saMwQl643VqAyixLXVBhcA/QR33mZ8xAdDYxY0ZqvrhHoyL2suCyNnaTC3rlOmuRIBT01Yz2EI/Jjdzpk8W61Nn4Wzw5y2L6XfEo0ukl834lGnOvccZnGN87UwX7jJm3mYnSzjyIOsEIfZRT55gD3WpLxpvCbUVlvbmLqKTiGaCe9jnzksbHeuqb7cGFp2L5pBNX//qvsI2jZGjZp27/2YE4kwth0hdJDL29EZFQEQohuCftMQyrUQjxtRaLg1NvLMYQCVrVfZaFEoditZNsYyIHVU8VkY9qvZyOjJ1YkFfGj3pVz77fNouBKn1bAzgSWSWVZnhwAAO25HIVFEfz/0V8Ow582ESi2qPAIFIf/f61FZ3eCWVmrV+CjpI3KEeBM2HurD305I5LMS+Kqto+EuTg/Z0yjrW1nnKQYF/hk1hmci0S06NOHgmu2fkpwR8E1eECB21qohNzQD0FoXMFiQUpLbQhv64ABuBZmOAaiyf05Pb7SIDYNTJkxrnW2haTiBL4pSVeCBc+zH/mXnP1VLHOBe4mzFIv4g3eSb4PrJFr3yHq2rcN/13/o+lVWNeQQ/cfto3YH9amVAmt+7pxtg/z1Gj7LxzsuxnThm0p/HJjMfrQEH6dngEejoDs4v2G2l2A9C8qF+2WqXq83kxyuscwOzZOiBUT1qWQgx4LWl5yjWenX1dVRfVdmJ0JWdDLw9hJ/HVlFbNg8iuVjYnEjP6ze9ZxB0ZMsoh5eLFzEwapRckPeL5nFgpr+QO+JwYL8DpLobxOpZAFbdnt+4amUCJXY4W4mt6J/0M45eHf+jjldYeWuTmu8uUJE8t0p/CXIoacAV88+alL3A6YK/Gan4zWLJJcvRRNtBKlVm0yokxwARMapguKMEPV3CnENCxE6ao8OzF5SBLqbUJsPwtJHGcsX6m3ALx2gz9TroGv+c1MHfrJJsenq24AnTyFiYOq3uUj1w94MKHj1S31ruoznSdt6RRRkIWX2mtnhGAvck101TUu5nf2yuzurT5U3MvFR7UVWNKlZeZzJve9viBI6V5t/v5HL0OlldNtZV2oCRDiW8Lz9pO2KmfP5o22tW53xTOvfpOWo4hPg0Dup+Q6duDezBuhvnmF78kXqPEIIgG8HKSpvfp0ubCYLPDMHaSmw/E0mCO8WOtvPUlJUa0VXJxaNFx73uu+KBbKXiLifRTq33WKkgAP66X9Bm8LwAsPt7PLpIK4Vy2CXmuXx9YljuIyrPJpd8LL2PHG9zsGfPObrXaJYcU9K7eUOnK/y99WP4I7LZXXpB8nimMJ1sY8m02n7yVBeJ8TjhwJXP4275VUjSICAkGuodRmjeZZg/VPHKEb2j+CNRkT7N8fEw4ehR1j8nX2N5qjfaxQBUlYvzD3QyVCQ4nygQI6kdzR2VZsz9QVCyx9nfYCeljOgxx4qxu0HWSeiKnCK0qeDe8rP7TCR4CUiP0St4ktOGh3jPQyrF5pVwZpJFnTDuUmEEngWBn64cZU0CV89r4ce0xw+sHBjmYrME/E/RUDGlMu5Mi3IfW37IezfDHIQiGiUGSFu/xLCa4U7h5DdXwdWDLwwYlDpdcKkOGTssPGRIZXaL4P7qkXR7/ZtIK52Os+nu9dxPlYI84aB2xW0wlBkmcrY/dWtzT6gQfbT1m9+abtZTGcnIvsoO0WZU8XBGkXz5ZEbLS624vnLXljLq7rlulDtcRQPPQOIy5s/VB4wCdjBG7ttQ8HMuWEojxt6f2CyXy6YCRTkRssid2kV/cqOH8lX0l9TmLViGTpVzW08ka4wG3XuPEXe6HxVlRry7gX/5pUq/idPzf2vJnBzdNa44SoibhleuH0zaCE4BvZqXvnctvZcVr9oNvd8iyQ3LAJd7nHChg5pNEaJ8SVJVtq7PNvg4MMHM8+Y64fzPiGw8psvATRf2btUF2DwjEKXeyOG6BmP+7enLEk5lDp0aoN0rBulVfqXfY0skrx/jOAXf4sDYH1UGicbMrCxfRaDHKAaG0eOiZE9iOmfzxU4Ivi4kGyHgkGmk8S5mc0B9c18OAHQ4Ro8ccSHnMzN4hhn80CuoXw9O0mLt/jCoJhrrqavr1mg2RrVZ0uvfn0gy/uS7FvzOXJdq4rRNNlv53i3WMLWyJBiBhR37s1pDmmf9l1ootIEvbTcn8f8sBYLbFb4L/3YpuoHKGHbsK05Iq0eJdcGy2oeuSBc+cXT86NcP2qjAa1ngAKTRu4VR8BSEkWQOcJVYzie5Sv973txtufaDNozGCkHKb/I2hE4CuGE1IP6monKnC/Jl056Zjw4GN8O1Q+h1EjY1kiSc2A7bqsQ1JineHmkNEwT3NZvlcVGRKqqr5hYh0Y5BKUR51mwuC/pHky07bVP7dPeXnhZEFrmCKBP5rbylkucl2pZpl3FXSCi5+KxxrCILCgBwoZucARXbhEdWDjpccIZ2JS+3L5+tXm7/yLFr6MS9Hl4vei/yk1ETvUh7XCDg99UZpKu0k6YoX9TV99UooVhm9POd5KNSo5rk+6s4XpUFrfkyqaV6GH3uMo1eduu8pX8TvZ+Els/vix+1shujPnb1Mcqa28JyrvbtPOacQGeLcwTzHhD6P4CsCyvhJs00y7nrCpgTyhMXWjnDl+EHr9mS6Te71gZuK0blj00Q8/nIdoxIxfdTFQDMTqbj6hMiFG17oswWw8Iu6U6c28kLkIuX9bD/mCpzysv5Ai90/tYNa02k3cKOnxrWFFy7X8NXSHJaW6unadNzggapxYRPWL2/3u4yKUdjd5sQLyRAF3sQDQPb6+qCyvJtiCcMbWMQvDebAmp9OUP19cTB3jkHi5uV+Ski4zeaxbOMSQ7hc0vruuSUjzYFRHueuouBcDncpDxr/7L9g79fKhAsRASMAYQe0UBRSpqFwLo2evndeETamTDilNQiYJUJMwYI0JOmX6haZe48EGI9bvVhCLWQ9X6yty3/FtOpNrqrNfNC4nsQ2WqKM23i19+Qa3UDOTUXFqlMIrb5iKr71LYoVvsnJraafYyTHg0DCWmTK6khaBGuxFuE3PPhHNhDUmJCneAGDcjgFDww8ZTdl5bMxLnxkoMHXm/5NQeUyHdae6HwwiuSvXuyiKqbOLGIjdmkN4DFNinAi6If2VKQxG1WwRwEDDT4B0o5BqzBJZgAAAAAAEIMVV6VF2uu5iVASce2cXLk2EshcBTyiUsA9IFYwq5JYlsMo3dzeaU8IMYx2+Yy4M3mCGpRQIJ7luJC+ri34y2ZZXUU5YyW/9dzjV6X5Pxu+MXRS5zaug3RvUMJ8ZXs/2fpofFE+3zOqot5T2AtMCS1I2OXFSvWTdP2L3xQBe0HNmuTox65G65zYXVRtZa8CkpvnOhZTmUf7XTLQXtYd99ADRMsioDppMy6VGhm4NvmHpXxylqNh1wFiM4/5XeE49KHhCoBVJdLBR11fltULXWuPVfe8LkiVXuJHXVN1Cm/fQ9Wi2Y198LdAq7yR/pZt3KfU91uBi+iTZBA8Dp4lwP+h/D9/wBypRen1cyGRdrYvtQZQdB0s9D5LE78NIXcIPXxF6wKlxL1fyR++J7GN5JsqEm2lWUskrh0nds2uoG31zYGu/h0R7gvfvdnW8ch8e9RmX3rRwDSxfyJ+1G4m7Y+UMIoyY3cfD7ab/jCg8RbZEEqTTPG8EpJEnDVWB2oSbiQP8gyu1HJ0x/ZepQr0k3YrLXat1cQFcr/6Qie+PkT8iTCkiFKMLxd/XP1iZvXIYWtmyKgvz0oa1mVoQ/sEje/azYJH14IBXv03z8ZozXBaX2EOn4lZLi9p8B7nC4jqUdWlP4mhmKx7zP44CcM29FGNP+ZB/8B3J6Nh+vduXsrWrLWUlXfH1wNb4phP/BTedEOub9aJ3ixwMg/aP/ugahJMWynd8GdjCdRRoPOrdJqOnFp4etTVok/zN83BcnPCGOtij6eq9N6824QZrOuBlzKT9KR7McLcH3gzMkOQT3NELIqsZURcnag55oYDx8KNay9N71/gTWbmv+wRohvV3xgVlgf7DMlsN6mjtTVn1viFWmUP530nZVcoA4QGt7NTOjMQVp3KktOGuDORShJlpwW9sUgUWDbpjTmpa9UOhyKCTWeD6YuJoT4WizlUqelhFzgDIWLRvorR/IBK7rcQqZwzlQBy7xUqd3VGZh9CsaE1NAjNN7iph/RvaPKePrAK8aY3Zwq9dXf+fAjbQwArvZex9hQ0VDdJ8hri6/7Y0ikRmQmaSCcPilN8Nl80+Ocb08YWrBPkHhAY3SiH6/zN3Iaom0ryC4d23di4xFPglSeOWkpf3hgFfP6o9xHRgQaYGeMhh9Phd2ZZl5wLaShVBm74BWoOg0YtZ9GgyD0vG9dXtXpezD9Wn1nexVS1JYLQ7CPq5q7SVtUft38kJkek8wiy/fdDKc0xY0Xxr8SMHU1HVkbsgPS0J/ZGduRoVBgD40+AW6XBgdX8RaA2QvX1LefEoxlzKy4N+qKu4xfHMNoz2B/4Q4V2RZwDUotffDpXSHij1C4eW7bQtMsjEli9xIql0TD9VkkFtW1hGJwTpJ1kCRBofCQDWSOdqkmtG+WxX0gQ9iHGOWm4ZFpH1A6rj0zlIKi7bMoW67ZSczaRD8qqJUNiYkCTTLG9+gVxyaMwYzdGmBO7KjVjm8mAEUX0JgglmNz096qmrRTSjOPaMMNnWl/KhNz3QJkiRpcagmJPFdBTQNzf9gamlR11CMb8/Jyblkl10EYvLHV9R2a0DeQOBcEjQWBkL86al7JJAjOEaoZSt8/g6mambx+zvl9auZds2ZqnIN5yVg8DiNZKgWvPAR69mJ9Ug/vhnlE4Pfmppc64o2F6Xz13ZOlZ3u7LdOY0HxdElG+hnR2tUkQbPedh/p9YqhuZqMlzdgKspu2MxKefejOZJ6nrvLYry3NoI3QeUliXhvRsVvSpsgz/bBe0A+illZm7fi6Yom7scPWRhXWmSVs50wvT0cxClO05t/XmjFCjhRxHqsImaWF0OIsldRc+bH62qZ0k+FVU+g5o4Ac3V7VxtpiqKtFiCKr90VagdNX1gJZs2yinYtR1alK7WW3bFxTVaOhBr9mmfVlo/5VxvRcvEVwBkmhGPNa7jIh+I8+QtCOtp/sIs44yCtekb8J4FjH1Be9qgTbj9z9LIIWb4RJIEV3YJGs3HXFvFdvxjUm0/86dEl6/3zMj6cqp666PuN2Ju/ivHGYoMht3i7IvmrLnOSVacYSrNsXWN0wokiaAsUclHu82ZpMwzvudRTzpYozcwkr9r4cfXVp8TZEkAvZ7o7IbfwqaOdRBSwhAbLDr3vcuOLqAz+ctL/DNtNez0BYHyk7jgNw0HdzQdpiCdmmL1Fc/yL6Uy2PYnraBxunWdb4KP7z9UQFKt3Oz0W2zLRx+uqPrIMciucOon/zUYGK86QiFrHUAy2Gc0niAY05g7bAYx9/2EbAPdn3PF/noHbjYj1KFoDSCAIO5tx7K4zSmtZkHlgoqd9rN79NRRwOiyLFN6KSWVG2qFW8Il9ke4GzytvbztsRgc0FAQER7GrktfUoTY2sa5ylUwQC6eOEWP3yWVtZoiGlnARxps52UzDnyxb9KnMzxqih1dGiFNyDZG5//QeKtBv+43iVjLDkUIm9P5aydP3hwMZTrdS4GklDwSekw5uE31K7/h0wE5yaf9qLd68beKn37t9PGxpra/f0YIzbG0aVKJmgs5CvCRByNF6zctGvngdr7rUuzWxIxjuIIQI/1kGKqgcQgBnq3AQRI016cbjTXpxuEvihFNOYLoY01CXdAMcBj/Io7IM9Cf5FfP+xRQGvGU2CusRn+z61C7nWeriU2pLXb9GGnKxTeB2bHx8R/Tp1+qzp5xQKuGJ+5TbIUejPdG93VwYFbGoFJwVALqRUyeleRn9Tgbx4SQsJTpr0+Y5vQ3vi+fSXiNcMhekl4YnbcDJQrXkOgY5r8jRo9yLEs6aFcJ4yyjvVypkg1Tu082aTPE5rkFGQYoYOoY7HKMCeek+Ep2JvwDr1jkGuz81f5F2iP0GnWwFmVR0bW5SHJdFOmQyMBHryfUuFXHsFFW0y5NqmvQUKq8u6oq3ETlN/cjIeeK0GSo/+hH621B+Wv16zCkYig3TZmq3g5kQQfc5vNEy1reyvqHIMeFuWW2bRXTX1wBMngJjJZybAp+ZXBIXyK8mLgIcDjarbWQwBueqde7Hvp+d2jOGOHkEwsxiYMPolAogJc8nzUh+s7cCLCV8cDcXgJxVImA5dDtjkPQserWVb9IhpgKBrAda3e59a7Cg7Irg2+3Pqnh6+IKAfuKICXBKrXv2zbeeFoeUwWnSDbX8AUXTbgN8ws9skR3Qvs1JijwM1YQ2618WTq3dyUhvsiJ1jhA2qS19lMmb5KN6ZC5D1NcN3QSIBpEijIQt98J55bFqm3Fa72xTKd3tMFjqM4ienwKozZpy/aabvgqhZtPF+rIiL8VeguC92B/G0s877lQd9w8j6nEk2iV8JZMcaN3mkq93ktSek4ONGYRBLQkKzclEZ1z1kSHJHf/6M215fIFmvofPd7u12dw3TEwZ85dg53S1dBJBKFjT2G8F7ryt6nFDDdOm0fGm1OLue6Z41J7A9goaTyTqlYPKj68fHW4pv/PMxtH3C9aZANgRx51Msapp7XY1c0a8HuiCzqv9izBUrb+MsKkvFeb3RO7DM4unEBdqrKzXq9Pc30CZyb9kAyBhRt81imKpdi7ebvrN2wFMSv0nyoWinjMqpYFvh62qAXRz4Xs/9iKCrXghyu49aIODHsjwbNvD1yvo/F4Alk6FrVsJW/Q2yown3jk4rCkeNa0oPpGLO51WC4Tp7OyTTRA2Efc1/Tt4pOtzbb6qI/op68eTLXWESWb6g4sDh1/eNjoMjBra3RVmfSQWB0WZ9WymQeaEiqpEAHETVEszuCurVT9TRDh9OrCFSTWK4mcY9GoC0MyscSlK5/2UWNoslJDu7UuVL43cFos0rQep5CVNcmv3bmjG41ocT3rIs8uYKBbWTaN6SQ6plhC2o9bPx1IiFaiEx2Yi3TF/HE1ERkXTjS6k5a95PdXvtfAQzxfgJSq1jgdPKgV0Z05wmn4WuyAR4mVF0HaSR2h0LZ5WhyoL+f74Bwz+lVzlpdMD1VJxsxB3U7SmVemCBmliQi5het+nA27jBprLopqRU6AjOZSqyt/wdqKMZuQpz1VykbpqPTfBUjEuk3SbHF3wfy9y4+1hjMPMapQdMbywSP6H44Z3HNgvXZwqtIviprjAW8bZWfnz+GfzZDIyT6iGBSmiEYrrzyE14F/zEqUdgMUVPtyS1tX2nul+sJvXQ6Q+TtGs0T610K+MCpJjrLZES5wbpD+9pjX5Hp5UEob/Bu1fu1Ea10NdzBo70HYL7DNZPT+j6NuEt3AQ2/M0CugaFJTnByRT5/sNIDcTTtFwZ0/1269zMTuQzQyflqH3WkiKnwPSzNQK0tZW3umHDps1Nl4N/k6qtnc/wMnwVN77N1TR+c64sif8xyrLTXD31uTYGpDlhaMfM8PTMv3ajNR5PcATN0KeJSQdiwkOyFcTMiwSfmK1rh9xDC7nsyby3bEJFXMx7lN6Tyf45llzlKPaHOlycU53I4kZFaPuCDWYF0VekVeJxsaB/6NcvPRDIrJIOlMkSygB0MFAB8TY4amMcKQllq0u+LgzUOuVrW4jgTMxSl25FrBpmbmRc1ycj7HnHNyATnVbdrWsM+0j0cuXd/c8tAkaG3kzsHT82LuGyr2s2BbJS5aPdBMq1+RXw8JQgTJq5UuLUXQ5TY3MdT8tXkN+1m3C9FDLqtJ0rb6U9URzAJ1NJyQz1ikAQDuKdl/nZiBdxmIbiLaY8ppIJ07S/LGCC8c7Drj7x7Yk5AtJImIXdhPIoreJlPNoTjIJAqmiNLkneI5QBL7fOlyxBg3jR5kUzzKRWtHFCAcEno8V4bdL1np9fhntOUwd+kWQiWtHpVnwwKvSz15t4oik54sDmZwXNmYkFrEaYZyqYTuiIaC7NjqBRnwl6M3j6EYfW4hD02Phv0Sy0Ko+sd6avy9Gr7sqXmktAjiM+xgqQf5tEW7Xd3KOAoXw7Y/zenYXyot+qmJgBPFqvc3VFwRwQQeCwwl1mZnV7xtfEHX5aiiLbJjU7lMk/KlGYcsMHH8gFrG5nHFT0p/8Jx+PZv8sEtf9RbXsvNZzhumZvQB2oyGXn12mLqT0wAAAAM9gjBKentOnhcYy+BpwiXvzKTAynQq8ncYV07i0Qk2Mtz+AvrJ8w2L6twgtzsepE8FsjDVLi2te06Pew85P33vrvsDT+HLg3xhgx+a0yCMXNGg+SEXealTD/RxC2PaqpWT9vSFugKOhzuOVCLklSH5I2M5NyebNZDY3TFYen+Puu/UOMXxUN8LFdljTjHx/qkPK4PixHJcgFEt7eOW58AuO1BF61vD7x009V+9NymnIyfMumSd6pdnl3SWgmubdi7NF+rBzn7FqqZRje4WS0XiS1owFG5ibL5WWcdDzIeW3/QoU59lqCLMzZPNoEBc8aQtTShDn7hdrdbDNRSBQElH4UBjVK+ZhvxHwA2W4LvT5RjUeWr5PetpvU5Bbv3xtQT2SgT3oLimaQVFJxunMLGhwaug+lh2RaaSqvp0rJKGt8UJYtoZYqSxzhQGHyAg5ixzUzgGV0gzHMFx2TyJiKwU05g8tdniBDSv70gSZngDQDmyjtupcSbgmv4kfOCC3D/cUFlrYf4lT4eKW26A0K+K1DTJiiUVHlrVF0bhzBz6OhW+gqCtpa8RvlrRCs95hPJ2E0jhmF1vuu9h8EyCstJBQtnjuL56Tm9eu3/FaXgswKSCr622J/MpWeCUiMGSgfGfVZdM0S4VZbNDXyY+gcStCkr1GR8fcIdlH/Ord1L60tfgF94CyMD6pwIHg18j8C3nUpCH80JCz8nG/3bUxpwxF7HKCPuv105DxIpjVamB/nKr18hweD2ihAbgbCvYU794OgMMM5K39PJuKVDkh6UklNvMLExKvlZtKKofghACk0F7unpM3tJfCRgxDClYyGI9xE3LP7YCimRcfh6he8BnTmzsM6TLtLVXTIvyUXvMHbCuDs4G5t1K07mghHNbWEdvIVW4D5EBgpvMZKeDECBRfm533GotnmTgLWk9eztRVbiy4a9+PPJEgMKCoJy/zeROyNC6mcvVZVnhjNWVfJITgKF7sMIkg6Y+9oDk6FJAFh/9XagLqHcESJFg4KKo2Korg3lRiHCCX4pAIMpOg4byj+T/6CjcZlX5DgorjtVrbYX+iUwTqYJeHdGb7KmhXJjrtK6J9/b/htuPuDuMHqMS5bODCnYDhzwsQ6njKK0uHzUOrZ+sZia7KRyCm7f02ZqLMvYKBHyPynKuUg4MrHtDXI7d2QVBaOS+EEabX5KJ8lF9vYpMcHeUCxa2fV9I/+pf4fGsg7BuGGjMLzvSawBPX4vD5LPLH9X+Na5eCFMef/aDX7wcKTZeWw5nFAm06M9OQXSAH94g1ANIeVhVCIDs+4bjysTC7qRnNMy1d+emVeN9IHFwlrb5z2RvUqxvgZhHjzPIrGjTX+8h6zLgL0zmiBjFSoNOblbW5ugCAZFCG4OWo5sMFM7Ph4o2o+uTvrJL4e8QthbE/b0uBNkmmJYT1Ihr3Dv3mJOU6me9OYPZ/DjydXSkx7z29ai4CPr2z9HhtNTKwClXVtsFOBlpSuPoqNtth3DvHRizkeC7P+tEJlvqFRLPt4CsNqAXI1W4jlDJ55CknaPEf4q+Tjac4C66vHjJ5cQZbTAMPT4RWNKhLKMn313eU02V/2Gxl35IY3ph8+sTKnWsqCY37/9VTcQhtchVK42dh9ab9eSB7CjddqiawroX4hQY0NAG734Vm7CiSHwbMCKFVtEHqb8axjJuXFBns26funKmMBYuRVE28w+M9rI16eo1zK8Hk0bxeuuDedN1bGOBaHPOxIcXu/MYUZn4vdNx5iTlYbx7ryGpWn+ZcWKVzuIr5GvNX4GjWbKFazKsBQR9A9Nt/UWTTHBmUiv4lHRzqFIOcavLpGk83jL92ZyjsLy7SSr0sW7WbDYa7GLnJE72yQAJVsP2hpaFOWIvfLqTKulcF7Y0XUNiuwtr757A/GO7yKLNA5sJtiBy944fe8G9X8ibyg0Psv72bCXiVH00yHxluCWJi5FmGCNjhC9aWLHbqofNjWmBem0Bc7RGThAHM4LcsHzHeUZ3qKPF0TPfgczkhtGAnYhE6kPZPXc2mUJLp0I/SK20aUzTkiDZw1XvA6eA4qkdNaygAMNdU7wAmkwjmulXcvypPTWFhjYDcVQymC2VSYyPOGNGR8YiMtS3i3qMzciWPxOrg3Yp2LnmIe6lsG6bfUVlXxSRh857Oqln68HIK9sOgFJY1/AwmV4o88bUsR5ztpFX3XR5TmhVEfbDQk0FjAHkpd6rdJHDHvgY17Y9CUquROLuUBCEJsfjHCveW50msg2NpGBybRyLoMC2FUYan/uQRBGK1CTL/L+41xipo0NheSmrvzuyRL6ovCRieA3oLMqwM7p2h1x/WymycvHRlOGmNOSRBvUDn0t1r80lKQST4GbXFvX5XLrCRmRgF21Z3gLgKpXd9UBZQWp4wEJRATpWMZYbOe/ykhxUuGeHkARQOg7X/uk4M0g8N2NOXESQQoBtrnOdCrzh4DgV99mQTlFCFCqrhwc6gBEcDDflsQPWgzsvRjR9ACfEPn7isNJV2PYN6Z5NoWe7TBod4gKgaW1MV0eji3prRFG87BLnRmtJfnuiQWH7EBOczYlSJS0NDhIL2DwbzcxyQWy9CvQKUWiH5mYwV+fJtEjykQZaDHprtABQ/wqukhKu4BX4lq6QFewEmQR/8FVO6Hs8D0ESPwqfxEsD925CRaTFtP3Pb79WTMxqSweKq9K3G+Cw2swaa+hWeqV3i339nG6Qx/eqA5Nr9eRAHX9FhpSe/QP5jkwgx8iiz7Xd7+EaSsLEOZCwiL3S/mCCNDdZ4ORuJasRg3sEXHjTptHFFa022ufw3JnpPpLdrD6eFbw18RqWntcjfEBDzUE/qNZZBZkbgUzUndgbTwFN11QO43nHVg8VNhpYzeNpC5HHWXmH3UKWJG9HZFVCWsvE4Iyj8U/IaC7dADLEEWak9jBIEBQjws68FWgl1C9pcfWnfi8T6kFnXVzEMqNB2baE7d5ruzUWKapbaJ9ufIitPo+XsyC8M5Cyvf93/O7h3N8h1eRg3iPuLxff8R6CLpszs1KmDP2TPFzCf+ShuX5KHo880TFMxF8xpKbGjJsSY/B7va2+nu7VNjbshg6GwzS9zKdQN5vizuRD5M+jZoabDz2xAccbQdlapR08wnOap8Fx6a98/U2d4l1tV3/wKr1g7CHoNBfkSSgbsP3Q51gHpzVje/LcRiiiSNZewuX1SGGJIiyClhD534VwW9hbt87HyVvFstIcfzAJdhX8st43Fa8dip4Fmbwi0li9neECBoZLMm3i5oUjhxxj4Z9wAHUCUKI0rlPqk4c5+gf53MzgEi+/Zis0nKC0usYZT36MeF0PAk42s53wrR5AoHe7P8tpHVgfeycNhdBJhdco+QkZyt+9nMstMv+oCRUjRFkJ33T6Yz54m5BuM7ZoA8whpBTsJw49747zcJ6s5ftjMdJSTIKnLVMJD9w5STHOkZ6hx7fTGkB0C0tWe4QRPqvb+XwVfKdL1FG6QKdZlqG+xn4HE/Bb00KBp1ndIT9KPiMjk+cXN0gq4/jcv+A1OcVNLGqtfvwGP8KRdbdKLpABZ7WVZQLHwG+pyKXD3gWs9npItqXzXL08qaWrwsu0ZoVTdGpCuH3HjqmR7fBvgnEQBFnyviJT2KPwnQvSYOugSx8oxeu/RBA5LecDx2SN8SHp+CTA+L12U+SpPCGUzYpTxv5dHyUcuDCJhx8Xiy+6kiX5aQIy3tOOyScAyJfIVmMfJLKrFDpXHrrR6yHrMyrRjN3swr5PHhzpVbR5Unp7KwYfNJlQjv+JZEbS13MgeE4zsqUZzWvlqq08+Fev9+d/5SLdSNofdoPh06cPBL7MM/YnWhh2oB1T1ttlMPF+CiPTyTVqeAVtnOeTxTFruOpmT7cb20V+oWT7/Tmhktvq21IkxUce5gj+T+4PTSxU4u+OfbKebPmqjo9PcOW506LE7/GZ+K99gblVRRFk/vdwNb6xkBBszHaN9KVz/6gCanez/EmU5YWZcI/4jMrK/ESqWzU5v7+KjSukzfLdZOnZ2eHrJS7opYItXs0CJ8pymWuOJlGQVZmyewkoMDjoQEt4L3fYOvrKQ1GCi9TREOXJ2yJz0NaFqQ4hMBaIG00ei3SA+GlXYx8DuRnSYMfbRyzxfmpu8VVOW3fEkOvIZRRx1eBdvEiIpLGzA2nMRYelvt7JAB6WoF10hgs0yeIwywWk3UV/L5wUFB+BncQIv2l5fj8I9bYoKl29/KGuFYvyMZFt4dSESdHfp8EC5UVpjFRxnkFUrVCpeKQxXj0Yw5lsALjlmVYqC0T9r+fAJpBzjVU4PX+dIbgwGE8rctCJrtwem24iXhMxr4Jm366bj5Sh4goyorpCfZCu5S+3EEkT0xi6lZ8RBg/Y8OEIW5MtPXsqXl1m12kQpBKL/4jxdRk6ZnL8P8gZ+SKYS5pNUYf+imyxJsl2KAdYmBHUz4XtGrZ3LW+7pV4WyLw9/HORo2AInvUoMy98Dou160csx2EHgQ/9qIcK52PMiDOVY4sslTYUkv7WLnXMx5moOX1ebQjdWWlzWwLVFop6JknH1Zrb5Rp/wOpigxTB1FJKsMaYmlD1hPuRrPyw/jCiPvQ1SEvjrreYLjgcFp7utvEoVgvCP5EPeCaTJnk7B5rd9DV+EBFGLKniCslltuCRCMrVHBd33payWXZF4NnZpjC9bU1LDAlbCJKMCbYu0AZii/Dj1VWUiSNcigSWN2fsffMZaZwSHWMMrOO5Pj6shOTFCpziUcFv9acPsU6KMNYBa3DaSCzxKmAP3/BRgHMY2oNOuGt6IEnUNeykfOXobMFmE+GZPFptdNv+igNXXbYulTGe+46XrWaIL3reQmeIFJlC4c6kmrDEluJKQJFAT0lO9dzhQXBXghv8qFI5roxRE+fCXzWfDVR9Da635hqYbor8zz9IYAErPOTab3LNPuRK1OvZCk80nGf68dPjJ+HnlHXyWPWzK/xfzTtMlt7K5NzNub8HI6tOZF5DvdN5TY2i714/1GmWew5iVjXckCqrkiI+nlgZIXSTwJjJdf3EaDY7/eSNtmgm/FfZSa7SDy711o6L9f828r/Nsm+gncvbLDNwi4ISReFcyxU3mBncbrjfQgoD7hmYhIwilzhgUlLt3qTe+3yMtL9nZMIEEfsRwFzE6+dLFgxx8mLR9oOaxagSsFbywdxXWrNaem3az+H3kc4UiLOBDmS4lvsfYdO65EobzgKUv47DzsAGJHPWa3/fhfgGj2G5AEq3LFTY9HRpUHUosanR9BvEKw/SqH0jdbBHHE8GGpYiLVJNxBM/PAR/7LOD6/3rj6/93nDCtNHxjo9RVg6i/GUVFEMsvBKKTIzq5QKYBAEmLRoj7wGTSstGkhTbWrdSshQ6aca23H+hT0UubVeLE6+FwUW9j2vIvx7JwDpsjvlkZjFjCOjUNBs2PhTQuUfE+n4WLydFjSWzikTI8sI5Cuyp8zZ8f6nwg27t7i8WUKL/p2I6qnNUcGa7laj33SFS8WDiSyCuCY0LTj2LY6RrKoh6yYGN/5xa9VV8Ncj77m1q0xyb/Mnd/gpQB1ShaYKbl5BvR2GvGjWNd2h+M6O7hW8duWzcUItkoBMNP4DSC5F9l0HXtyECs1IOskDv9McS+wFl4bR/Mgukq1g8oMNHXM3A8+4tZt+aUEKNyvIfgrLDR9YhkY4iaPNViE81f8Lh429r5oG9OhaBW+P9Tjm2467+k73NOwU2+yEEz3OKCVRIyDy+Lo2q9ZHyZnsPS1pgxtT5SwhZzHJ32emLcNzwx8DJeDm69Kje1GOJYJLIeMl78HZo6q78LsE1O7+TNk0AV0DgUHtLLtTjnbHoms0ria3426CSA0bCW8RLxkbO8jSW3pW0FNogHpZS4afH0qLcwl+i5C6+1vpU5V3sCFfHSIpFyhiluI5gW75u9eoGrH9ejIJLDPpsSsFaiaohQeuoVT9tGKRTdRSvLUCiNZ6s3alL1kOVyuYvmFo6YE2jemGb02z4a6e/vJLEFdraUfCfkkQLIqGIz2dgZW/JWHcZTGwbDxZrLtO2e83pdjjUw03wVVLz1eNMg8rvZQxfd0SmT7FARrZXFJGpDWuCnXWm6F+Oi5ZbN7n5ukRSFHjRtzNhKb9B4VvbM1QzqCCDSSufE+rZjhyVxrfPCK61UAdUttSoPIt4x5ONp/cd36HADFYOL66DFtNn+9UmJ7QNzKV7k/yRRjjNUBxJdDZTmg2eCZlvF5FSeSohhrJsFvcLHUCOmOSUtpNNZtrAzedz4SdOYcOo0ZAPyF8ZyBmVrFQsZCBoDYGXuAY9kS2Ms3ikwdIo8Ql7Q46b6wlCJHkDPk0v+G5/pPQp14HotZ84pdx7XGKVnq8d6F+kc8uR+ofMMaxPKNXDujCSP7iws2Tlzhg+vhAMvX1XA+5I8WlO6GuML0homl5TYi3LWkaVM12J/+7QCyZgtq0hrWS/ajWMR11sgZoEAVAJPpzoG3ykdeCpKGUL6Haca9o4tbcPnAlm3z0X2n38beGiJhs3k2hiy5YxOMtlLShaGSoGaRHvKFtmgtLjtqL07pTL3UGAqM/aQYqOsUHZrEqKVeRGMOhrz2kTQeKhROJCyqIHOfYtEg+A+aTRHTieOO+o8osARtgKm6kCBrgwuivxWPpGVBT7sSgVLQsWL37EzTaWbdBiMd64GOBxvIj3/Pj0BXPrHoAbUJECllSwzzWdSvNAuvpvpugoU2x7loEhPef6TVvhsDpBNIAAIn+2qXkMtCzjm6DzIUaHfnC9A5ZKUvuIFzBUl3ISneYiNuDxoe8H3icefwV6PZHqSoC+IRKchPU3cz/9FKfGu1aSQ+W2PaVbxGXik+7t2LbGUme8+gbsqgrEvBx6asFtEmRmRt81P5AMsLcxKtnbC4KGGcYvGvP7T8JmPgz56o971MXFRS3FjdDuPcb1fDjBahhdW09hNE1rv6aNVpZmTyOCWaskhEKVCnQ6YZHhnMXrP5uj0SmRTlx5booD2GmV7SJe8ugnKhBFUmgYZila/0xV3C6fOkgnqmd0wPFoDGMQzwRGBlUPa1nEBNEQZ2Rut0colVazgtO0hqBISDOJC/e9rr91H83mhuJVyskiiH47ceySTtlcq0INdjZi9B011+EA2XwBBIEEGCwYghn2th3IVPB634LQENmxfHylqxIgmZXRnHOtxBEhQduX0a24GfsTDr5Ys9V7ucM4ZTF40K5tOSFlHE952vEjLS+7tDc+ZdtOKxW3ywmW1NmtZm+/XoL1o88toyB5iD52grmH4g0DoQnJFoe9Z+zWyoYPbDg92aNo8/N271WGunWy1FU+di+DyjPwBy+QNgmdIIKwFNsDQ/ohmvRBqLUpct50B7OCI4vbrLYSrK2jENUyKc/B8qZ4NWyNGmm+hJ+QUAGvoogeDMbhjUuxi7JR9Uza2bYl4zOErLgychVwI3hNho54OIqNxauqnzCr5eG6+bxj28fFTbh4dRWrVlwe4umRiq+gPrBuiw+c/fp/o72bni8nsT3LMTlPxXXkAFPb5xdIHwVVzHc1UCl8zMW6ZWULIurSAePu6HaDy9Q88NI+d8MdQAC+DBrWt1awHBG7AuGycjkV+oFD67ULc6ol4sxmSgSgrBbhMm29yInu12/65xM9ZQv5IKYceMa5moqU84Bcg8dUyu//E7upQw8hnVJ8/861+M0QJ3U8mj4zJlh6gclpoL9IzyBOusVZXywJFjTfARsBXHnZZNrpsWXIvjMd7ZLxdOdx7oCYTek6yKtbym+lAB/04MBpl1oARawiuILhL/p6jMttrZqpCqI/9HrBVH/fntvyc77t8TiMbHEp/6FWWEbNyZPl2zAPK1lMTc6YDREVjr0ktkv9kFR6rjeMB8511tRlvgK4jBhfKL3VGQpbCxWhvkDibb52nShMdvwlpIyQP6Ri14CF7qKxV7A0xeqnyNnPaIQJXZ9+unGQ5cxsaLp4nsoFFz0HGbI7WNd7Gcg26NOPRx3/ZaXU3MmweonPJLNzkBje6TsBT5qbzsEgOucYEe/mjJIPlqoJH+xppjMOTVxH39+787wkfExeFBYFPwqxTxAeLR/ivxuVjGhapAC/Xm9yALBNrCItU5VG6+/mHITtoIu/2myHTghjVf0Pfy+WYxBJbbXnHHjWBLZPzEyIHEGUFAbx+gNnK8/OELa21moNvOre2eAmvMj9YT6h2Vqu6Mi2zSnj74AQfwYynVUlNPZT2/f0YaYQ2sfbrHAzgS5FLt4rNR7jPEx0/xDta9a/TN8h65Ej59GkviQ6OoKFhYOZy50FtlfKdUTu+QVm0YGzUdkdvjnEAATNbqhlBNI16lCwnyshcpaqx8fYTOaSdTrQZ4LMClBzAnQNXTHBOV9djlkM5ivAVofwuXd4CZtlEaUo2E7ypi26zvpBvaHOvLBv39Y0RJmTxucmCq3TSgo1L4cBbomM85MwAMpGa/gZPAAAEyAAvrGpdlkNfNG74yic/ZUkR0AHzZXcrBUOvoqpJNcaZt+Zv5UY0nsmG4espm+Rzp6pScbbgBFwhTeej/8FJyEIZYet9znauWXOnIXVEtW1qAdQruk37WyVFcy1OJ8sXcsJcPQRwzqmRg8rxU4WoBWm79AB5LAGEn1ygucfy2yRznFwfIjQI4h25vkbXW4yW1YQ8IkpgnEgvpMo0r45cihC2kY+B6uU0CJ5yjPt/MhVmjQK7onRPc2Mrva+m3EDllkE6+HuRWwQAiGiImgcsZnE8I9iOeDWMTAMgvlHI8o0YCNYeJPgAAAByEhVfVD78Djc43MIarL7p5wcnQoqxdRIchl0DHhDWtN4y9RGnaj7TfNyAxnuhoSAMyLxQOUiY/Pzcr7nsyiW+/7kVb8Ya1B0hjs2M9C/rW8z0kyAM0agR7h5nnvFWZaMArOm9dF5aVFlp3755yzih0uAzJcot01Rv30Uzghr3s7EPRiljpLpkqoPmypuQKMPr8OlfhQ/YDks1w2cuyi2nAXAr675G0Xx1IORq7gKLM++dNPLCJk+Fp1BdbukD1iqJL5Zud+GbNZf2Xf7zRi6Rs5RtgQVzTMLblyGsDWoodONjQIVd5Sj/bjQ6wscLe9uR0Lf0visc72v5wccrYMwj+y4C9mUg+oFzGVdXAwg1GsWBwmuhPTnCRuuKEIlB99bmH397hvc6ldWL2blvUYHv5nDEchFpm4JalPbwSj6JbfQnjAmaovgbgAFJYAAAAAAAAAANIUFUlnpBn9b4muz25rWhIdaZyxH2183XRotSvHaD4mLqyD5pyLGtP9H1FVZ4rqYSwiDQkSWT00/brK0/5yTTc38sLE7yroj8goTrMFRsBXgNwcT0YYjKWhwUfDk/b/jvQ2jbG2YlizZR2EI9SEvUtgYXGg7P67m1GDNhqKMTq5EtKaOpIeS7gnxZ8ATcmbDNIHFwIOoIPrE2ImPElzvhF41KeCWpa6BpP+W1aQbZtFl6BgyVPI4WzjDTtX1Y4r3fvQmtOOVj7AI8+nkUcCYreY3IBppbSj4xAQKVAdGfJ7ukabwAB5d0sJ21/kd4rwccl7NcCNmUJp2sU0e7obLQDFkUj5sAAAAAADTBNnNtsuYh/InZe4Xxe0TyCHgYr8lQ1CGgDjBPss82KTyWWdfY7fALCTs567Qj8GZl99cbcoP3Wk29nJzRbH3HUsdWNvcfQLqRROaVWR7AZIDNNCqQlFseOIeuupC2bzG0c/f/KWGkfpEZx1oNAcInL/dBWvl/kYD+ZkxjrfOYli9TIrpGtFRHCNtN2PGFCOYI0az/z4hSjIpSSYywel8SLrN0X9EX8c3okpJqDu2U1qI/gY/lN/4N5XPYmkioVzxYI72zNVblgj9+V2Aqxz0iccLxSHLqNOyOvfisOQXh2+jsKFTHFv+iYM6X1fViq+pQAAAAAAADkBBZcaVzRIKcPUGaf09jLdmuhf545HYcWtqnEmWMAIpAo74rM5GYuvQj6vhpbqqkt2b9K9UeHShAx4fTAwxw1CFKQXG4EVIo/iBTpJ4iG4coqUYKsjVw/xHkWh3A85z9MwWmrKx9F0QYWnZqGkVkxS1gUh2Qa7hk7xyGdNUDpZQngtlaFaskYWzOM/+J//8Ot7/2I7/7lY/68f50f54SqSfY7oJpGkqPkx+lXRkL2ptjouUiOVPOi+SFuRd2/xVH0WSQXdy0BRMYbwBaVqWAWKx7C45XOAPmb6q7xdr8b+5MtnUu63Lv1fYPs76JzRQGX1EDWbM1Hknr/4DcD+aglYpDaYCg2ax598Z9X1five8xkZzCiCgpzv9E53YqdFUNgc+YG3WSWnHwXueYP1o6LHpy/mClJyLPnhLtrsP5j5ck4Ulig+0UUsP+m/HbvPY92hbGIsjBvsH53XTh9nl2rroNzSb2hXwb+y19G3Srrm5IDgygUwmduTd1TJDTgi2kV2qPduG3qST0tm2LfhNQDWnYdjcH1YuLKEzbi1ZugtNbHQtRVjccrT10Z/P/E3StyNtBCUf2TEZKHguvgY/Zq3ovB+Z3Y0H9KlXJrNG+nBneeFkdmJCuvM3Hqd5Tnz+C6/IXWJJ0RUNIiuy1aS+cwwiVM3hxP34UNfc6+3iylWMbWAa4EPghQWZX5zPX87LsNWQeWkuh+YOTdqMErqXr+XNDjHA0MI8fsN5Vg9kml+5cJDtpwdwkYv2/WWJelsJJzjWdKAJxi1ECIgkWMBV6f9DcY6tVSsNga48wVIxZymFBJg+3nvEWnSN/Hzx5o3A8ZpUeqzCymX2WAVCOdS7TpuxY0sU8bF01AadTNYslzZapnt1ZlkqwvQtlYRkCdg/rQAAWE1QIPI5AAA8P3hwYWNrZXQgYmVnaW49Iu+7vyIgaWQ9Ilc1TTBNcENlaGlIenJlU3pOVGN6a2M5ZCI/Pgo8eDp4bXBtZXRhIHhtbG5zOng9ImFkb2JlOm5zOm1ldGEvIiB4OnhtcHRrPSJBZG9iZSBYTVAgQ29yZSA1LjUtYzAyMSA3OS4xNTQ5MTEsIDIwMTMvMTAvMjktMTE6NDc6MTYgICAgICAgICI+CiAgIDxyZGY6UkRGIHhtbG5zOnJkZj0iaHR0cDovL3d3dy53My5vcmcvMTk5OS8wMi8yMi1yZGYtc3ludGF4LW5zIyI+CiAgICAgIDxyZGY6RGVzY3JpcHRpb24gcmRmOmFib3V0PSIiCiAgICAgICAgICAgIHhtbG5zOnhtcD0iaHR0cDovL25zLmFkb2JlLmNvbS94YXAvMS4wLyIKICAgICAgICAgICAgeG1sbnM6eG1wTU09Imh0dHA6Ly9ucy5hZG9iZS5jb20veGFwLzEuMC9tbS8iCiAgICAgICAgICAgIHhtbG5zOnN0RXZ0PSJodHRwOi8vbnMuYWRvYmUuY29tL3hhcC8xLjAvc1R5cGUvUmVzb3VyY2VFdmVudCMiCiAgICAgICAgICAgIHhtbG5zOmRjPSJodHRwOi8vcHVybC5vcmcvZGMvZWxlbWVudHMvMS4xLyIKICAgICAgICAgICAgeG1sbnM6cGhvdG9zaG9wPSJodHRwOi8vbnMuYWRvYmUuY29tL3Bob3Rvc2hvcC8xLjAvIgogICAgICAgICAgICB4bWxuczp0aWZmPSJodHRwOi8vbnMuYWRvYmUuY29tL3RpZmYvMS4wLyIKICAgICAgICAgICAgeG1sbnM6ZXhpZj0iaHR0cDovL25zLmFkb2JlLmNvbS9leGlmLzEuMC8iPgogICAgICAgICA8eG1wOkNyZWF0b3JUb29sPkFkb2JlIFBob3Rvc2hvcCBDQyAoV2luZG93cyk8L3htcDpDcmVhdG9yVG9vbD4KICAgICAgICAgPHhtcDpDcmVhdGVEYXRlPjIwMTctMDItMjRUMTk6MDc6NDUtMDM6MDA8L3htcDpDcmVhdGVEYXRlPgogICAgICAgICA8eG1wOk1ldGFkYXRhRGF0ZT4yMDE3LTAyLTI0VDE5OjA3OjQ1LTAzOjAwPC94bXA6TWV0YWRhdGFEYXRlPgogICAgICAgICA8eG1wOk1vZGlmeURhdGU+MjAxNy0wMi0yNFQxOTowNzo0NS0wMzowMDwveG1wOk1vZGlmeURhdGU+CiAgICAgICAgIDx4bXBNTTpJbnN0YW5jZUlEPnhtcC5paWQ6NTMxMGUzZjUtNGQzMC1mNDQwLWFmOWQtYjgzMjI2NjJkMzNjPC94bXBNTTpJbnN0YW5jZUlEPgogICAgICAgICA8eG1wTU06RG9jdW1lbnRJRD54bXAuZGlkOmE0ODhkNjk2LWNlZjktYjc0Ni05ZTQxLTg2NTBmMDg5MDc2YzwveG1wTU06RG9jdW1lbnRJRD4KICAgICAgICAgPHhtcE1NOk9yaWdpbmFsRG9jdW1lbnRJRD54bXAuZGlkOmE0ODhkNjk2LWNlZjktYjc0Ni05ZTQxLTg2NTBmMDg5MDc2YzwveG1wTU06T3JpZ2luYWxEb2N1bWVudElEPgogICAgICAgICA8eG1wTU06SGlzdG9yeT4KICAgICAgICAgICAgPHJkZjpTZXE+CiAgICAgICAgICAgICAgIDxyZGY6bGkgcmRmOnBhcnNlVHlwZT0iUmVzb3VyY2UiPgogICAgICAgICAgICAgICAgICA8c3RFdnQ6YWN0aW9uPmNyZWF0ZWQ8L3N0RXZ0OmFjdGlvbj4KICAgICAgICAgICAgICAgICAgPHN0RXZ0Omluc3RhbmNlSUQ+eG1wLmlpZDphNDg4ZDY5Ni1jZWY5LWI3NDYtOWU0MS04NjUwZjA4OTA3NmM8L3N0RXZ0Omluc3RhbmNlSUQ+CiAgICAgICAgICAgICAgICAgIDxzdEV2dDp3aGVuPjIwMTctMDItMjRUMTk6MDc6NDUtMDM6MDA8L3N0RXZ0OndoZW4+CiAgICAgICAgICAgICAgICAgIDxzdEV2dDpzb2Z0d2FyZUFnZW50PkFkb2JlIFBob3Rvc2hvcCBDQyAoV2luZG93cyk8L3N0RXZ0OnNvZnR3YXJlQWdlbnQ+CiAgICAgICAgICAgICAgIDwvcmRmOmxpPgogICAgICAgICAgICAgICA8cmRmOmxpIHJkZjpwYXJzZVR5cGU9IlJlc291cmNlIj4KICAgICAgICAgICAgICAgICAgPHN0RXZ0OmFjdGlvbj5zYXZlZDwvc3RFdnQ6YWN0aW9uPgogICAgICAgICAgICAgICAgICA8c3RFdnQ6aW5zdGFuY2VJRD54bXAuaWlkOjUzMTBlM2Y1LTRkMzAtZjQ0MC1hZjlkLWI4MzIyNjYyZDMzYzwvc3RFdnQ6aW5zdGFuY2VJRD4KICAgICAgICAgICAgICAgICAgPHN0RXZ0OndoZW4+MjAxNy0wMi0yNFQxOTowNzo0NS0wMzowMDwvc3RFdnQ6d2hlbj4KICAgICAgICAgICAgICAgICAgPHN0RXZ0OnNvZnR3YXJlQWdlbnQ+QWRvYmUgUGhvdG9zaG9wIENDIChXaW5kb3dzKTwvc3RFdnQ6c29mdHdhcmVBZ2VudD4KICAgICAgICAgICAgICAgICAgPHN0RXZ0OmNoYW5nZWQ+Lzwvc3RFdnQ6Y2hhbmdlZD4KICAgICAgICAgICAgICAgPC9yZGY6bGk+CiAgICAgICAgICAgIDwvcmRmOlNlcT4KICAgICAgICAgPC94bXBNTTpIaXN0b3J5PgogICAgICAgICA8ZGM6Zm9ybWF0PmltYWdlL3BuZzwvZGM6Zm9ybWF0PgogICAgICAgICA8cGhvdG9zaG9wOkNvbG9yTW9kZT4zPC9waG90b3Nob3A6Q29sb3JNb2RlPgogICAgICAgICA8cGhvdG9zaG9wOklDQ1Byb2ZpbGU+QWRvYmUgUkdCICgxOTk4KTwvcGhvdG9zaG9wOklDQ1Byb2ZpbGU+CiAgICAgICAgIDx0aWZmOk9yaWVudGF0aW9uPjE8L3RpZmY6T3JpZW50YXRpb24+CiAgICAgICAgIDx0aWZmOlhSZXNvbHV0aW9uPjcyLzE8L3RpZmY6WFJlc29sdXRpb24+CiAgICAgICAgIDx0aWZmOllSZXNvbHV0aW9uPjcyLzE8L3RpZmY6WVJlc29sdXRpb24+CiAgICAgICAgIDx0aWZmOlJlc29sdXRpb25Vbml0PjI8L3RpZmY6UmVzb2x1dGlvblVuaXQ+CiAgICAgICAgIDxleGlmOkNvbG9yU3BhY2U+NjU1MzU8L2V4aWY6Q29sb3JTcGFjZT4KICAgICAgICAgPGV4aWY6UGl4ZWxYRGltZW5zaW9uPjk0MzwvZXhpZjpQaXhlbFhEaW1lbnNpb24+CiAgICAgICAgIDxleGlmOlBpeGVsWURpbWVuc2lvbj40NDE8L2V4aWY6UGl4ZWxZRGltZW5zaW9uPgogICAgICA8L3JkZjpEZXNjcmlwdGlvbj4KICAgPC9yZGY6UkRGPgo8L3g6eG1wbWV0YT4KICAgICAgICAgICAgICAgICAgICAgICAgICAgICAgICAgICAgICAgICAgICAgICAgICAgICAgICAgICAgICAgICAgICAgICAgICAgICAgICAgICAgICAgICAgICAgICAgICAgIAogICAgICAgICAgICAgICAgICAgICAgICAgICAgICAgICAgICAgICAgICAgICAgICAgICAgICAgICAgICAgICAgICAgICAgICAgICAgICAgICAgICAgICAgICAgICAgICAgICAgCiAgICAgICAgICAgICAgICAgICAgICAgICAgICAgICAgICAgICAgICAgICAgICAgICAgICAgICAgICAgICAgICAgICAgICAgICAgICAgICAgICAgICAgICAgICAgICAgICAgICAKICAgICAgICAgICAgICAgICAgICAgICAgICAgICAgICAgICAgICAgICAgICAgICAgICAgICAgICAgICAgICAgICAgICAgICAgICAgICAgICAgICAgICAgICAgICAgICAgICAgIAogICAgICAgICAgICAgICAgICAgICAgICAgICAgICAgICAgICAgICAgICAgICAgICAgICAgICAgICAgICAgICAgICAgICAgICAgICAgICAgICAgICAgICAgICAgICAgICAgICAgCiAgICAgICAgICAgICAgICAgICAgICAgICAgICAgICAgICAgICAgICAgICAgICAgICAgICAgICAgICAgICAgICAgICAgICAgICAgICAgICAgICAgICAgICAgICAgICAgICAgICAKICAgICAgICAgICAgICAgICAgICAgICAgICAgICAgICAgICAgICAgICAgICAgICAgICAgICAgICAgICAgICAgICAgICAgICAgICAgICAgICAgICAgICAgICAgICAgICAgICAgIAogICAgICAgICAgICAgICAgICAgICAgICAgICAgICAgICAgICAgICAgICAgICAgICAgICAgICAgICAgICAgICAgICAgICAgICAgICAgICAgICAgICAgICAgICAgICAgICAgICAgCiAgICAgICAgICAgICAgICAgICAgICAgICAgICAgICAgICAgICAgICAgICAgICAgICAgICAgICAgICAgICAgICAgICAgICAgICAgICAgICAgICAgICAgICAgICAgICAgICAgICAKICAgICAgICAgICAgICAgICAgICAgICAgICAgICAgICAgICAgICAgICAgICAgICAgICAgICAgICAgICAgICAgICAgICAgICAgICAgICAgICAgICAgICAgICAgICAgICAgICAgIAogICAgICAgICAgICAgICAgICAgICAgICAgICAgICAgICAgICAgICAgICAgICAgICAgICAgICAgICAgICAgICAgICAgICAgICAgICAgICAgICAgICAgICAgICAgICAgICAgICAgCiAgICAgICAgICAgICAgICAgICAgICAgICAgICAgICAgICAgICAgICAgICAgICAgICAgICAgICAgICAgICAgICAgICAgICAgICAgICAgICAgICAgICAgICAgICAgICAgICAgICAKICAgICAgICAgICAgICAgICAgICAgICAgICAgICAgICAgICAgICAgICAgICAgICAgICAgICAgICAgICAgICAgICAgICAgICAgICAgICAgICAgICAgICAgICAgICAgICAgICAgIAogICAgICAgICAgICAgICAgICAgICAgICAgICAgICAgICAgICAgICAgICAgICAgICAgICAgICAgICAgICAgICAgICAgICAgICAgICAgICAgICAgICAgICAgICAgICAgICAgICAgCiAgICAgICAgICAgICAgICAgICAgICAgICAgICAgICAgICAgICAgICAgICAgICAgICAgICAgICAgICAgICAgICAgICAgICAgICAgICAgICAgICAgICAgICAgICAgICAgICAgICAKICAgICAgICAgICAgICAgICAgICAgICAgICAgICAgICAgICAgICAgICAgICAgICAgICAgICAgICAgICAgICAgICAgICAgICAgICAgICAgICAgICAgICAgICAgICAgICAgICAgIAogICAgICAgICAgICAgICAgICAgICAgICAgICAgICAgICAgICAgICAgICAgICAgICAgICAgICAgICAgICAgICAgICAgICAgICAgICAgICAgICAgICAgICAgICAgICAgICAgICAgCiAgICAgICAgICAgICAgICAgICAgICAgICAgICAgICAgICAgICAgICAgICAgICAgICAgICAgICAgICAgICAgICAgICAgICAgICAgICAgICAgICAgICAgICAgICAgICAgICAgICAKICAgICAgICAgICAgICAgICAgICAgICAgICAgICAgICAgICAgICAgICAgICAgICAgICAgICAgICAgICAgICAgICAgICAgICAgICAgICAgICAgICAgICAgICAgICAgICAgICAgIAogICAgICAgICAgICAgICAgICAgICAgICAgICAgICAgICAgICAgICAgICAgICAgICAgICAgICAgICAgICAgICAgICAgICAgICAgICAgICAgICAgICAgICAgICAgICAgICAgICAgCiAgICAgICAgICAgICAgICAgICAgICAgICAgICAgICAgICAgICAgICAgICAgICAgICAgICAgICAgICAgICAgICAgICAgICAgICAgICAgICAgICAgICAgICAgICAgICAgICAgICAKICAgICAgICAgICAgICAgICAgICAgICAgICAgICAgICAgICAgICAgICAgICAgICAgICAgICAgICAgICAgICAgICAgICAgICAgICAgICAgICAgICAgICAgICAgICAgICAgICAgIAogICAgICAgICAgICAgICAgICAgICAgICAgICAgICAgICAgICAgICAgICAgICAgICAgICAgICAgICAgICAgICAgICAgICAgICAgICAgICAgICAgICAgICAgICAgICAgICAgICAgCiAgICAgICAgICAgICAgICAgICAgICAgICAgICAgICAgICAgICAgICAgICAgICAgICAgICAgICAgICAgICAgICAgICAgICAgICAgICAgICAgICAgICAgICAgICAgICAgICAgICAKICAgICAgICAgICAgICAgICAgICAgICAgICAgICAgICAgICAgICAgICAgICAgICAgICAgICAgICAgICAgICAgICAgICAgICAgICAgICAgICAgICAgICAgICAgICAgICAgICAgIAogICAgICAgICAgICAgICAgICAgICAgICAgICAgICAgICAgICAgICAgICAgICAgICAgICAgICAgICAgICAgICAgICAgICAgICAgICAgICAgICAgICAgICAgICAgICAgICAgICAgCiAgICAgICAgICAgICAgICAgICAgICAgICAgICAgICAgICAgICAgICAgICAgICAgICAgICAgICAgICAgICAgICAgICAgICAgICAgICAgICAgICAgICAgICAgICAgICAgICAgICAKICAgICAgICAgICAgICAgICAgICAgICAgICAgICAgICAgICAgICAgICAgICAgICAgICAgICAgICAgICAgICAgICAgICAgICAgICAgICAgICAgICAgICAgICAgICAgICAgICAgIAogICAgICAgICAgICAgICAgICAgICAgICAgICAgICAgICAgICAgICAgICAgICAgICAgICAgICAgICAgICAgICAgICAgICAgICAgICAgICAgICAgICAgICAgICAgICAgICAgICAgCiAgICAgICAgICAgICAgICAgICAgICAgICAgICAgICAgICAgICAgICAgICAgICAgICAgICAgICAgICAgICAgICAgICAgICAgICAgICAgICAgICAgICAgICAgICAgICAgICAgICAKICAgICAgICAgICAgICAgICAgICAgICAgICAgICAgICAgICAgICAgICAgICAgICAgICAgICAgICAgICAgICAgICAgICAgICAgICAgICAgICAgICAgICAgICAgICAgICAgICAgIAogICAgICAgICAgICAgICAgICAgICAgICAgICAgICAgICAgICAgICAgICAgICAgICAgICAgICAgICAgICAgICAgICAgICAgICAgICAgICAgICAgICAgICAgICAgICAgICAgICAgCiAgICAgICAgICAgICAgICAgICAgICAgICAgICAgICAgICAgICAgICAgICAgICAgICAgICAgICAgICAgICAgICAgICAgICAgICAgICAgICAgICAgICAgICAgICAgICAgICAgICAKICAgICAgICAgICAgICAgICAgICAgICAgICAgICAgICAgICAgICAgICAgICAgICAgICAgICAgICAgICAgICAgICAgICAgICAgICAgICAgICAgICAgICAgICAgICAgICAgICAgIAogICAgICAgICAgICAgICAgICAgICAgICAgICAgICAgICAgICAgICAgICAgICAgICAgICAgICAgICAgICAgICAgICAgICAgICAgICAgICAgICAgICAgICAgICAgICAgICAgICAgCiAgICAgICAgICAgICAgICAgICAgICAgICAgICAgICAgICAgICAgICAgICAgICAgICAgICAgICAgICAgICAgICAgICAgICAgICAgICAgICAgICAgICAgICAgICAgICAgICAgICAKICAgICAgICAgICAgICAgICAgICAgICAgICAgICAgICAgICAgICAgICAgICAgICAgICAgICAgICAgICAgICAgICAgICAgICAgICAgICAgICAgICAgICAgICAgICAgICAgICAgIAogICAgICAgICAgICAgICAgICAgICAgICAgICAgICAgICAgICAgICAgICAgICAgICAgICAgICAgICAgICAgICAgICAgICAgICAgICAgICAgICAgICAgICAgICAgICAgICAgICAgCiAgICAgICAgICAgICAgICAgICAgICAgICAgICAgICAgICAgICAgICAgICAgICAgICAgICAgICAgICAgICAgICAgICAgICAgICAgICAgICAgICAgICAgICAgICAgICAgICAgICAKICAgICAgICAgICAgICAgICAgICAgICAgICAgICAgICAgICAgICAgICAgICAgICAgICAgICAgICAgICAgICAgICAgICAgICAgICAgICAgICAgICAgICAgICAgICAgICAgICAgIAogICAgICAgICAgICAgICAgICAgICAgICAgICAgICAgICAgICAgICAgICAgICAgICAgICAgICAgICAgICAgICAgICAgICAgICAgICAgICAgICAgICAgICAgICAgICAgICAgICAgCiAgICAgICAgICAgICAgICAgICAgICAgICAgICAgICAgICAgICAgICAgICAgICAgICAgICAgICAgICAgICAgICAgICAgICAgICAgICAgICAgICAgICAgICAgICAgICAgICAgICAKICAgICAgICAgICAgICAgICAgICAgICAgICAgICAgICAgICAgICAgICAgICAgICAgICAgICAgICAgICAgICAgICAgICAgICAgICAgICAgICAgICAgICAgICAgICAgICAgICAgIAogICAgICAgICAgICAgICAgICAgICAgICAgICAgICAgICAgICAgICAgICAgICAgICAgICAgICAgICAgICAgICAgICAgICAgICAgICAgICAgICAgICAgICAgICAgICAgICAgICAgCiAgICAgICAgICAgICAgICAgICAgICAgICAgICAgICAgICAgICAgICAgICAgICAgICAgICAgICAgICAgICAgICAgICAgICAgICAgICAgICAgICAgICAgICAgICAgICAgICAgICAKICAgICAgICAgICAgICAgICAgICAgICAgICAgICAgICAgICAgICAgICAgICAgICAgICAgICAgICAgICAgICAgICAgICAgICAgICAgICAgICAgICAgICAgICAgICAgICAgICAgIAogICAgICAgICAgICAgICAgICAgICAgICAgICAgICAgICAgICAgICAgICAgICAgICAgICAgICAgICAgICAgICAgICAgICAgICAgICAgICAgICAgICAgICAgICAgICAgICAgICAgCiAgICAgICAgICAgICAgICAgICAgICAgICAgICAgICAgICAgICAgICAgICAgICAgICAgICAgICAgICAgICAgICAgICAgICAgICAgICAgICAgICAgICAgICAgICAgICAgICAgICAKICAgICAgICAgICAgICAgICAgICAgICAgICAgICAgICAgICAgICAgICAgICAgICAgICAgICAgICAgICAgICAgICAgICAgICAgICAgICAgICAgICAgICAgICAgICAgICAgICAgIAogICAgICAgICAgICAgICAgICAgICAgICAgICAgICAgICAgICAgICAgICAgICAgICAgICAgICAgICAgICAgICAgICAgICAgICAgICAgICAgICAgICAgICAgICAgICAgICAgICAgCiAgICAgICAgICAgICAgICAgICAgICAgICAgICAgICAgICAgICAgICAgICAgICAgICAgICAgICAgICAgICAgICAgICAgICAgICAgICAgICAgICAgICAgICAgICAgICAgICAgICAKICAgICAgICAgICAgICAgICAgICAgICAgICAgICAgICAgICAgICAgICAgICAgICAgICAgICAgICAgICAgICAgICAgICAgICAgICAgICAgICAgICAgICAgICAgICAgICAgICAgIAogICAgICAgICAgICAgICAgICAgICAgICAgICAgICAgICAgICAgICAgICAgICAgICAgICAgICAgICAgICAgICAgICAgICAgICAgICAgICAgICAgICAgICAgICAgICAgICAgICAgCiAgICAgICAgICAgICAgICAgICAgICAgICAgICAgICAgICAgICAgICAgICAgICAgICAgICAgICAgICAgICAgICAgICAgICAgICAgICAgICAgICAgICAgICAgICAgICAgICAgICAKICAgICAgICAgICAgICAgICAgICAgICAgICAgICAgICAgICAgICAgICAgICAgICAgICAgICAgICAgICAgICAgICAgICAgICAgICAgICAgICAgICAgICAgICAgICAgICAgICAgIAogICAgICAgICAgICAgICAgICAgICAgICAgICAgICAgICAgICAgICAgICAgICAgICAgICAgICAgICAgICAgICAgICAgICAgICAgICAgICAgICAgICAgICAgICAgICAgICAgICAgCiAgICAgICAgICAgICAgICAgICAgICAgICAgICAgICAgICAgICAgICAgICAgICAgICAgICAgICAgICAgICAgICAgICAgICAgICAgICAgICAgICAgICAgICAgICAgICAgICAgICAKICAgICAgICAgICAgICAgICAgICAgICAgICAgICAgICAgICAgICAgICAgICAgICAgICAgICAgICAgICAgICAgICAgICAgICAgICAgICAgICAgICAgICAgICAgICAgICAgICAgIAogICAgICAgICAgICAgICAgICAgICAgICAgICAgICAgICAgICAgICAgICAgICAgICAgICAgICAgICAgICAgICAgICAgICAgICAgICAgICAgICAgICAgICAgICAgICAgICAgICAgCiAgICAgICAgICAgICAgICAgICAgICAgICAgICAgICAgICAgICAgICAgICAgICAgICAgICAgICAgICAgICAgICAgICAgICAgICAgICAgICAgICAgICAgICAgICAgICAgICAgICAKICAgICAgICAgICAgICAgICAgICAgICAgICAgICAgICAgICAgICAgICAgICAgICAgICAgICAgICAgICAgICAgICAgICAgICAgICAgICAgICAgICAgICAgICAgICAgICAgICAgIAogICAgICAgICAgICAgICAgICAgICAgICAgICAgICAgICAgICAgICAgICAgICAgICAgICAgICAgICAgICAgICAgICAgICAgICAgICAgICAgICAgICAgICAgICAgICAgICAgICAgCiAgICAgICAgICAgICAgICAgICAgICAgICAgICAgICAgICAgICAgICAgICAgICAgICAgICAgICAgICAgICAgICAgICAgICAgICAgICAgICAgICAgICAgICAgICAgICAgICAgICAKICAgICAgICAgICAgICAgICAgICAgICAgICAgICAgICAgICAgICAgICAgICAgICAgICAgICAgICAgICAgICAgICAgICAgICAgICAgICAgICAgICAgICAgICAgICAgICAgICAgIAogICAgICAgICAgICAgICAgICAgICAgICAgICAgICAgICAgICAgICAgICAgICAgICAgICAgICAgICAgICAgICAgICAgICAgICAgICAgICAgICAgICAgICAgICAgICAgICAgICAgCiAgICAgICAgICAgICAgICAgICAgICAgICAgICAgICAgICAgICAgICAgICAgICAgICAgICAgICAgICAgICAgICAgICAgICAgICAgICAgICAgICAgICAgICAgICAgICAgICAgICAKICAgICAgICAgICAgICAgICAgICAgICAgICAgICAgICAgICAgICAgICAgICAgICAgICAgICAgICAgICAgICAgICAgICAgICAgICAgICAgICAgICAgICAgICAgICAgICAgICAgIAogICAgICAgICAgICAgICAgICAgICAgICAgICAgICAgICAgICAgICAgICAgICAgICAgICAgICAgICAgICAgICAgICAgICAgICAgICAgICAgICAgICAgICAgICAgICAgICAgICAgCiAgICAgICAgICAgICAgICAgICAgICAgICAgICAgICAgICAgICAgICAgICAgICAgICAgICAgICAgICAgICAgICAgICAgICAgICAgICAgICAgICAgICAgICAgICAgICAgICAgICAKICAgICAgICAgICAgICAgICAgICAgICAgICAgICAgICAgICAgICAgICAgICAgICAgICAgICAgICAgICAgICAgICAgICAgICAgICAgICAgICAgICAgICAgICAgICAgICAgICAgIAogICAgICAgICAgICAgICAgICAgICAgICAgICAgICAgICAgICAgICAgICAgICAgICAgICAgICAgICAgICAgICAgICAgICAgICAgICAgICAgICAgICAgICAgICAgICAgICAgICAgCiAgICAgICAgICAgICAgICAgICAgICAgICAgICAgICAgICAgICAgICAgICAgICAgICAgICAgICAgICAgICAgICAgICAgICAgICAgICAgICAgICAgICAgICAgICAgICAgICAgICAKICAgICAgICAgICAgICAgICAgICAgICAgICAgICAgICAgICAgICAgICAgICAgICAgICAgICAgICAgICAgICAgICAgICAgICAgICAgICAgICAgICAgICAgICAgICAgICAgICAgIAogICAgICAgICAgICAgICAgICAgICAgICAgICAgICAgICAgICAgICAgICAgICAgICAgICAgICAgICAgICAgICAgICAgICAgICAgICAgICAgICAgICAgICAgICAgICAgICAgICAgCiAgICAgICAgICAgICAgICAgICAgICAgICAgICAgICAgICAgICAgICAgICAgICAgICAgICAgICAgICAgICAgICAgICAgICAgICAgICAgICAgICAgICAgICAgICAgICAgICAgICAKICAgICAgICAgICAgICAgICAgICAgICAgICAgICAgICAgICAgICAgICAgICAgICAgICAgICAgICAgICAgICAgICAgICAgICAgICAgICAgICAgICAgICAgICAgICAgICAgICAgIAogICAgICAgICAgICAgICAgICAgICAgICAgICAgICAgICAgICAgICAgICAgICAgICAgICAgICAgICAgICAgICAgICAgICAgICAgICAgICAgICAgICAgICAgICAgICAgICAgICAgCiAgICAgICAgICAgICAgICAgICAgICAgICAgICAgICAgICAgICAgICAgICAgICAgICAgICAgICAgICAgICAgICAgICAgICAgICAgICAgICAgICAgICAgICAgICAgICAgICAgICAKICAgICAgICAgICAgICAgICAgICAgICAgICAgICAgICAgICAgICAgICAgICAgICAgICAgICAgICAgICAgICAgICAgICAgICAgICAgICAgICAgICAgICAgICAgICAgICAgICAgIAogICAgICAgICAgICAgICAgICAgICAgICAgICAgICAgICAgICAgICAgICAgICAgICAgICAgICAgICAgICAgICAgICAgICAgICAgICAgICAgICAgICAgICAgICAgICAgICAgICAgCiAgICAgICAgICAgICAgICAgICAgICAgICAgICAgICAgICAgICAgICAgICAgICAgICAgICAgICAgICAgICAgICAgICAgICAgICAgICAgICAgICAgICAgICAgICAgICAgICAgICAKICAgICAgICAgICAgICAgICAgICAgICAgICAgICAgICAgICAgICAgICAgICAgICAgICAgICAgICAgICAgICAgICAgICAgICAgICAgICAgICAgICAgICAgICAgICAgICAgICAgIAogICAgICAgICAgICAgICAgICAgICAgICAgICAgICAgICAgICAgICAgICAgICAgICAgICAgICAgICAgICAgICAgICAgICAgICAgICAgICAgICAgICAgICAgICAgICAgICAgICAgCiAgICAgICAgICAgICAgICAgICAgICAgICAgICAgICAgICAgICAgICAgICAgICAgICAgICAgICAgICAgICAgICAgICAgICAgICAgICAgICAgICAgICAgICAgICAgICAgICAgICAKICAgICAgICAgICAgICAgICAgICAgICAgICAgICAgICAgICAgICAgICAgICAgICAgICAgICAgICAgICAgICAgICAgICAgICAgICAgICAgICAgICAgICAgICAgICAgICAgICAgIAogICAgICAgICAgICAgICAgICAgICAgICAgICAgICAgICAgICAgICAgICAgICAgICAgICAgICAgICAgICAgICAgICAgICAgICAgICAgICAgICAgICAgICAgICAgICAgICAgICAgCiAgICAgICAgICAgICAgICAgICAgICAgICAgICAgICAgICAgICAgICAgICAgICAgICAgICAgICAgICAgICAgICAgICAgICAgICAgICAgICAgICAgICAgICAgICAgICAgICAgICAKICAgICAgICAgICAgICAgICAgICAgICAgICAgICAgICAgICAgICAgICAgICAgICAgICAgICAgICAgICAgICAgICAgICAgICAgICAgICAgICAgICAgICAgICAgICAgICAgICAgIAogICAgICAgICAgICAgICAgICAgICAgICAgICAgICAgICAgICAgICAgICAgICAgICAgICAgICAgICAgICAgICAgICAgICAgICAgICAgICAgICAgICAgICAgICAgICAgICAgICAgCiAgICAgICAgICAgICAgICAgICAgICAgICAgICAgICAgICAgICAgICAgICAgICAgICAgICAgICAgICAgICAgICAgICAgICAgICAgICAgICAgICAgICAgICAgICAgICAgICAgICAKICAgICAgICAgICAgICAgICAgICAgICAgICAgICAgICAgICAgICAgICAgICAgICAgICAgICAgICAgICAgICAgICAgICAgICAgICAgICAgICAgICAgICAgICAgICAgICAgICAgIAogICAgICAgICAgICAgICAgICAgICAgICAgICAgICAgICAgICAgICAgICAgICAgICAgICAgICAgICAgICAgICAgICAgICAgICAgICAgICAgICAgICAgICAgICAgICAgICAgICAgCiAgICAgICAgICAgICAgICAgICAgICAgICAgICAgICAgICAgICAgICAgICAgICAgICAgICAgICAgICAgICAgICAgICAgICAgICAgICAgICAgICAgICAgICAgICAgICAgICAgICAKICAgICAgICAgICAgICAgICAgICAgICAgICAgICAgICAgICAgICAgICAgICAgICAgICAgICAgICAgICAgICAgICAgICAgICAgICAgICAgICAgICAgICAgICAgICAgICAgICAgIAogICAgICAgICAgICAgICAgICAgICAgICAgICAgICAgICAgICAgICAgICAgICAgICAgICAgICAgICAgICAgICAgICAgICAgICAgICAgICAgICAgICAgICAgICAgICAgICAgICAgCiAgICAgICAgICAgICAgICAgICAgICAgICAgICAgICAgICAgICAgICAgICAgICAgICAgICAgICAgICAgICAgICAgICAgICAgICAgICAgICAgICAgICAgICAgICAgICAgICAgICAKICAgICAgICAgICAgICAgICAgICAgICAgICAgICAgICAgICAgICAgICAgICAgICAgICAgICAgICAgICAgICAgICAgICAgICAgICAgICAgICAgICAgICAgICAgICAgICAgICAgIAogICAgICAgICAgICAgICAgICAgICAgICAgICAgICAgICAgICAgICAgICAgICAgICAgICAgICAgICAgICAgICAgICAgICAgICAgICAgICAgICAgICAgICAgICAgICAgICAgICAgCiAgICAgICAgICAgICAgICAgICAgICAgICAgICAgICAgICAgICAgICAgICAgICAgICAgICAgICAgICAgICAgICAgICAgICAgICAgICAgICAgICAgICAgICAgICAgICAgICAgICAKICAgICAgICAgICAgICAgICAgICAgICAgICAgICAgICAgICAgICAgICAgICAgICAgICAgICAgICAgICAgICAgICAgICAgICAgICAgICAgICAgICAgICAgICAgICAgICAgICAgIAogICAgICAgICAgICAgICAgICAgICAgICAgICAgICAgICAgICAgICAgICAgICAgICAgICAgICAgICAgICAgICAgICAgICAgICAgICAgICAgICAgICAgICAgICAgICAgICAgICAgCiAgICAgICAgICAgICAgICAgICAgICAgICAgICAgICAgICAgICAgICAgICAgICAgICAgICAgICAgICAgICAgICAgICAgICAgICAgICAgICAgICAgICAgICAgICAgICAgICAgICAKICAgICAgICAgICAgICAgICAgICAgICAgICAgICAgICAgICAgICAgICAgICAgICAgICAgICAgICAgICAgICAgICAgICAgICAgICAgICAgICAgICAgICAgICAgICAgICAgICAgIAogICAgICAgICAgICAgICAgICAgICAgICAgICAgICAgICAgICAgICAgICAgICAgICAgICAgICAgICAgICAgICAgICAgICAgICAgICAgICAgICAgICAgICAgICAgICAgICAgICAgCiAgICAgICAgICAgICAgICAgICAgICAgICAgICAgICAgICAgICAgICAgICAgICAgICAgICAgICAgICAgICAgICAgICAgICAgICAgICAgICAgICAgICAgICAgICAgICAgICAgICAKICAgICAgICAgICAgICAgICAgICAgICAgICAgICAgICAgICAgICAgICAgICAgICAgICAgICAgICAgICAgICAgICAgICAgICAgICAgICAgICAgICAgICAgICAgICAgICAgICAgIAogICAgICAgICAgICAgICAgICAgICAgICAgICAgICAgICAgICAgICAgICAgICAgICAgICAgICAgICAgICAgICAgICAgICAgICAgICAgICAgICAgICAgICAgICAgICAgICAgICAgCiAgICAgICAgICAgICAgICAgICAgICAgICAgICAgICAgICAgICAgICAgICAgICAgICAgICAgICAgICAgICAgICAgICAgICAgICAgICAgICAgICAgICAgICAgICAgICAgICAgICAKICAgICAgICAgICAgICAgICAgICAgICAgICAgICAgICAgICAgICAgICAgICAgICAgICAgICAgICAgICAgICAgICAgICAgICAgICAgICAgICAgICAgICAgICAgICAgICAgICAgIAogICAgICAgICAgICAgICAgICAgICAgICAgICAgICAgICAgICAgICAgICAgICAgICAgICAgICAgICAgICAgICAgICAgICAgICAgICAgICAgICAgICAgICAgICAgICAgICAgICAgCiAgICAgICAgICAgICAgICAgICAgICAgICAgICAgICAgICAgICAgICAgICAgICAgICAgICAgICAgICAgICAgICAgICAgICAgICAgICAgICAgICAgICAgICAgICAgICAgICAgICAKICAgICAgICAgICAgICAgICAgICAgICAgICAgICAgICAgICAgICAgICAgICAgICAgICAgICAgICAgICAgICAgICAgICAgICAgICAgICAgICAgICAgICAgICAgICAgICAgICAgIAogICAgICAgICAgICAgICAgICAgICAgICAgICAgICAgICAgICAgICAgICAgICAgICAgICAgICAgICAgICAgICAgICAgICAgICAgICAgICAgICAgICAgICAgICAgICAgICAgICAgCiAgICAgICAgICAgICAgICAgICAgICAgICAgICAgICAgICAgICAgICAgICAgICAgICAgICAgICAgICAgICAgICAgICAgICAgICAgICAgICAgICAgICAgICAgICAgICAgICAgICAKICAgICAgICAgICAgICAgICAgICAgICAgICAgICAgICAgICAgICAgICAgICAgICAgICAgICAgICAgICAgICAgICAgICAgICAgICAgICAgICAgICAgICAgICAgICAgICAgICAgIAogICAgICAgICAgICAgICAgICAgICAgICAgICAgICAgICAgICAgICAgICAgICAgICAgICAgICAgICAgICAgICAgICAgICAgICAgICAgICAgICAgICAgICAgICAgICAgICAgICAgCiAgICAgICAgICAgICAgICAgICAgICAgICAgICAgICAgICAgICAgICAgICAgICAgICAgICAgICAgICAgICAgICAgICAgICAgICAgICAgICAgICAgICAgICAgICAgICAgICAgICAKICAgICAgICAgICAgICAgICAgICAgICAgICAgICAgICAgICAgICAgICAgICAgICAgICAgICAgICAgICAgICAgICAgICAgICAgICAgICAgICAgICAgICAgICAgICAgICAgICAgIAogICAgICAgICAgICAgICAgICAgICAgICAgICAgICAgICAgICAgICAgICAgICAgICAgICAgICAgICAgICAgICAgICAgICAgICAgICAgICAgICAgICAgICAgICAgICAgICAgICAgCiAgICAgICAgICAgICAgICAgICAgICAgICAgICAKPD94cGFja2V0IGVuZD0idyI/Pg==;movable=0;resizable=0;rotatable=0;deletable=0;editable=0;locked=1;connectable=0;" parent="1" vertex="1">
          <mxGeometry x="336.28" y="-20" width="192.45" height="90" as="geometry" />
        </mxCell>
        <mxCell id="8hDpkD0ROf5ho9m0ZVhs-1" value="re" style="text;html=1;align=center;verticalAlign=middle;whiteSpace=wrap;rounded=0;" vertex="1" parent="1">
          <mxGeometry x="360" y="160" width="60" height="30" as="geometry" />
        </mxCell>
        <mxCell id="8hDpkD0ROf5ho9m0ZVhs-2" value="re" style="text;html=1;align=center;verticalAlign=middle;whiteSpace=wrap;rounded=0;" vertex="1" parent="1">
          <mxGeometry x="360" y="200" width="60" height="30" as="geometry" />
        </mxCell>
        <mxCell id="8hDpkD0ROf5ho9m0ZVhs-3" value="re" style="text;html=1;align=center;verticalAlign=middle;whiteSpace=wrap;rounded=0;" vertex="1" parent="1">
          <mxGeometry x="360" y="240" width="60" height="30" as="geometry" />
        </mxCell>
        <mxCell id="8hDpkD0ROf5ho9m0ZVhs-4" value="re" style="text;html=1;align=center;verticalAlign=middle;whiteSpace=wrap;rounded=0;" vertex="1" parent="1">
          <mxGeometry x="360" y="280" width="60" height="30" as="geometry" />
        </mxCell>
        <mxCell id="8hDpkD0ROf5ho9m0ZVhs-5" value="re" style="text;html=1;align=center;verticalAlign=middle;whiteSpace=wrap;rounded=0;" vertex="1" parent="1">
          <mxGeometry x="360" y="320" width="60" height="30" as="geometry" />
        </mxCell>
        <mxCell id="8hDpkD0ROf5ho9m0ZVhs-6" value="Pergunta" style="text;html=1;align=center;verticalAlign=middle;whiteSpace=wrap;rounded=0;" vertex="1" parent="1">
          <mxGeometry x="320" y="60" width="60" height="30" as="geometry" />
        </mxCell>
      </root>
    </mxGraphModel>
  </diagram>
</mxfile>
